# Blender 5.0.1
# www.blender.org
mtllib Arrows and Corners.mtl
o Arrow_and_Corners
v 2.379072 -0.193655 2.238180
v 2.379072 -0.023399 -2.361820
v 2.379072 -0.193655 -2.361820
v 2.379072 -0.023399 2.238180
v -2.000108 0.120597 -2.714478
v -2.200982 0.120597 -2.714478
v -2.200982 -0.337651 -2.714478
v -2.000108 -0.337651 -2.714478
v -1.439928 0.120597 -2.714478
v -1.439928 -0.337651 -2.714478
v -2.605102 -0.337651 -2.310359
v -2.605102 0.120597 -2.310358
v -2.605102 -0.337651 -2.154298
v -2.605102 0.120597 -2.154299
v -2.605102 -0.337651 -1.594118
v -2.605102 0.120597 -1.594118
v 2.359126 0.120597 -2.714478
v 2.158252 0.120597 -2.714478
v 2.359126 -0.337651 -2.714478
v 2.763246 -0.337651 -2.310359
v 2.763246 0.120597 -2.310358
v 2.763246 -0.337651 -2.154298
v 2.763246 0.120597 -2.154299
v 2.763246 -0.337651 -1.594118
v 2.763246 0.120597 -1.594118
v 2.158252 -0.337651 -2.714478
v 1.598072 0.120597 -2.714478
v 1.598072 -0.337651 -2.714478
v -2.000108 -0.337651 2.590838
v -2.200982 -0.337651 2.590838
v -2.000108 0.120597 2.590838
v -1.439928 0.120597 2.590838
v -1.439928 -0.337651 2.590838
v -2.200982 0.120597 2.590838
v -2.605102 -0.337651 2.186718
v -2.605102 0.120597 2.186718
v -2.605102 -0.337651 2.030658
v -2.605102 0.120597 2.030658
v -2.605102 -0.337651 1.470478
v -2.605102 0.120597 1.470478
v 2.158252 0.120597 2.590838
v 2.359126 -0.337651 2.590838
v 2.158252 -0.337651 2.590838
v 1.598072 0.120597 2.590838
v 2.359126 0.120597 2.590838
v 2.763246 -0.337651 2.186718
v 2.763246 0.120597 2.186718
v 2.763246 -0.337651 2.030658
v 2.763246 0.120597 2.030658
v 2.763246 -0.337651 1.470478
v 2.763246 0.120597 1.470478
v 1.598072 -0.337651 2.590838
v -1.439928 -0.337651 -2.714478
v -2.000108 -0.337651 -2.714478
v -2.000108 -0.337651 -2.154298
v -1.439928 -0.337651 -2.154298
v -2.200982 -0.337651 -2.714478
v -2.605102 -0.337651 -2.310359
v -2.605102 -0.337651 -2.154298
v -2.000108 -0.337651 -1.594118
v -2.605102 -0.337651 -1.594118
v 1.598072 -0.337651 -2.714478
v 2.158252 -0.337651 -2.154298
v 2.158252 -0.337651 -2.714478
v 1.598072 -0.337651 -2.154298
v 2.359126 -0.337651 -2.714478
v 2.763246 -0.337651 -2.310359
v 2.763246 -0.337651 -2.154298
v 2.158252 -0.337651 -1.594118
v 2.763246 -0.337651 -1.594118
v -1.439928 -0.337651 2.590838
v -1.439928 -0.337651 2.030658
v -2.000108 -0.337651 2.030658
v -2.000108 -0.337651 2.590838
v -2.200982 -0.337651 2.590838
v -2.605102 -0.337651 2.186718
v -2.605102 -0.337651 2.030658
v -2.000108 -0.337651 1.470478
v -2.605102 -0.337651 1.470478
v 1.598072 -0.337651 2.030658
v 1.598072 -0.337651 2.590838
v 2.158252 -0.337651 2.030658
v 2.158252 -0.337651 2.590838
v 2.359126 -0.337651 2.590838
v 2.763246 -0.337651 2.186718
v 2.763246 -0.337651 2.030658
v 2.158252 -0.337651 1.470478
v 2.763246 -0.337651 1.470478
v -1.439928 0.120597 -2.714478
v -1.439928 0.120597 -2.154299
v -2.000108 0.120597 -2.714478
v -2.000108 0.120597 -2.154299
v -2.200982 0.120597 -2.714478
v -2.605102 0.120597 -2.310358
v -2.605102 0.120597 -2.154299
v -2.605102 0.120597 -1.594118
v -2.000108 0.120597 -1.594118
v 1.598072 0.120597 -2.714478
v 2.158252 0.120597 -2.714478
v 1.598072 0.120597 -2.154299
v 2.158252 0.120597 -2.154299
v 2.359126 0.120597 -2.714478
v 2.763246 0.120597 -2.310358
v 2.763246 0.120597 -2.154299
v 2.763246 0.120597 -1.594118
v 2.158252 0.120597 -1.594118
v -1.439928 0.120597 2.030658
v -2.000108 0.120597 2.590838
v -2.000108 0.120597 2.030658
v -1.439928 0.120597 2.590838
v -2.200982 0.120597 2.590838
v -2.605102 0.120597 2.186718
v -2.605102 0.120597 2.030658
v -2.605102 0.120597 1.470478
v -2.000108 0.120597 1.470478
v 1.598072 0.120597 2.030658
v 2.158252 0.120597 2.030658
v 2.158252 0.120597 2.590838
v 1.598072 0.120597 2.590838
v 2.359126 0.120597 2.590838
v 2.763246 0.120597 2.186718
v 2.763246 0.120597 2.030658
v 2.763246 0.120597 1.470478
v 2.158252 0.120597 1.470478
v -1.439928 0.120597 -2.714478
v -1.439928 -0.337651 -2.714478
v -1.439928 0.120597 -2.154299
v -1.439928 -0.337651 -2.154298
v 1.598072 0.120597 -2.714478
v 1.598072 0.120597 -2.154299
v 1.598072 -0.337651 -2.714478
v 1.598072 -0.337651 -2.154298
v -1.439928 0.120597 2.030658
v -1.439928 -0.337651 2.030658
v -1.439928 -0.337651 2.590838
v -1.439928 0.120597 2.590838
v 1.598072 0.120597 2.030658
v 1.598072 -0.337651 2.590838
v 1.598072 -0.337651 2.030658
v 1.598072 0.120597 2.590838
v -2.605102 -0.337651 -1.594118
v -2.605102 0.120597 -1.594118
v -2.000108 -0.337651 -1.594118
v -2.000108 0.120597 -1.594118
v 2.763246 -0.337651 -1.594118
v 2.158252 -0.337651 -1.594118
v 2.763246 0.120597 -1.594118
v 2.158252 0.120597 -1.594118
v -2.605102 0.120597 1.470478
v -2.000108 -0.337651 1.470478
v -2.000108 0.120597 1.470478
v -2.605102 -0.337651 1.470478
v 2.763246 0.120597 1.470478
v 2.158252 0.120597 1.470478
v 2.158252 -0.337651 1.470478
v 2.763246 -0.337651 1.470478
v -2.000108 0.120597 -2.154299
v -2.000108 -0.337651 -2.154298
v -2.000108 0.120597 -1.594118
v -2.000108 -0.337651 -1.594118
v 2.158252 0.120597 -2.154299
v 2.158252 0.120597 -1.594118
v 2.158252 -0.337651 -2.154298
v 2.158252 -0.337651 -1.594118
v -2.000108 0.120597 1.470478
v -2.000108 -0.337651 1.470478
v -2.000108 -0.337651 2.030658
v -2.000108 0.120597 2.030658
v 2.158252 0.120597 1.470478
v 2.158252 -0.337651 2.030658
v 2.158252 -0.337651 1.470478
v 2.158252 0.120597 2.030658
v -1.439928 -0.337651 -2.154298
v -2.000108 -0.337651 -2.154298
v -2.000108 0.120597 -2.154299
v -1.439928 0.120597 -2.154299
v 1.598072 -0.337651 -2.154298
v 2.158252 0.120597 -2.154299
v 2.158252 -0.337651 -2.154298
v 1.598072 0.120597 -2.154299
v -1.439928 0.120597 2.030658
v -2.000108 0.120597 2.030658
v -1.439928 -0.337651 2.030658
v -2.000108 -0.337651 2.030658
v 1.598072 0.120597 2.030658
v 1.598072 -0.337651 2.030658
v 2.158252 0.120597 2.030658
v 2.158252 -0.337651 2.030658
v 0.178740 -0.063870 -1.971412
v 0.140770 -0.063349 -2.082383
v 0.121041 -0.004539 -2.059286
v 0.151060 -0.004951 -1.971397
v 0.119383 -0.005363 -1.884096
v 0.138677 -0.064390 -1.861181
v 0.178735 0.053969 -1.970858
v 0.138671 0.053449 -1.860627
v 0.140765 0.054490 -2.081829
v -0.086083 -0.063126 -2.131934
v -0.109863 -0.004072 -2.160711
v -0.177411 -0.004951 -1.974506
v -0.142934 -0.063870 -1.974457
v -0.089075 -0.064613 -1.815934
v -0.113400 -0.005830 -1.787056
v -0.089080 0.053226 -1.815380
v -0.142939 0.053969 -1.973903
v -0.086089 0.054713 -2.131379
v -0.034819 -0.006012 -1.747616
v -0.023025 -0.065161 -1.698957
v -0.022234 -0.064767 -1.782574
v -0.022239 0.053072 -1.782020
v -0.023030 0.052678 -1.698402
v -0.035281 -0.006242 -1.698796
v -0.024066 -0.065678 -1.589000
v -0.036322 -0.006759 -1.588838
v -0.024071 0.052161 -1.588445
v -0.024878 -0.066082 -1.503175
v -0.037134 -0.007163 -1.503014
v -0.024884 0.051757 -1.502621
v -0.025789 -0.066534 -1.407009
v -0.025794 0.051305 -1.406455
v -0.038374 -0.007779 -1.372048
v 0.122816 -0.006135 -1.720047
v 0.110363 -0.065161 -1.697694
v 0.166161 -0.065161 -1.697166
v 0.166155 0.052678 -1.696612
v 0.110358 0.052678 -1.697140
v 0.178626 -0.006135 -1.719519
v 0.215354 -0.065291 -1.668942
v 0.215348 0.052548 -1.668388
v 0.227806 -0.006265 -1.691295
v 0.120941 -0.007066 -1.521992
v 0.108510 -0.066082 -1.501912
v 0.164307 -0.066082 -1.501384
v 0.176752 -0.007066 -1.521463
v 0.164302 0.051757 -1.500830
v 0.108505 0.051757 -1.501358
v 0.208962 0.051631 -1.473462
v 0.221510 -0.007145 -1.504408
v 0.208968 -0.066208 -1.474016
v -0.028529 -0.005363 -1.885496
v -0.048252 -0.064390 -1.862951
v -0.001726 -0.064498 -1.839603
v -0.001731 0.053341 -1.839048
v -0.048257 0.053449 -1.862396
v 0.008059 -0.005448 -1.867005
v 0.044780 0.053233 -1.815700
v 0.044785 -0.064606 -1.816254
v 0.045090 -0.005534 -1.848511
v 0.082466 -0.005448 -1.866300
v 0.091726 0.053341 -1.838164
v 0.091731 -0.064498 -1.838718
v 0.119383 -0.005363 -1.884096
v 0.138677 -0.064390 -1.861181
v 0.138671 0.053449 -1.860627
v 0.181587 0.054713 -2.128846
v 0.048375 0.055021 -2.195556
v 0.048764 -0.003708 -2.236606
v 0.205912 -0.004072 -2.157722
v 0.181592 -0.063126 -2.129400
v 0.048381 -0.062818 -2.196110
v -0.086083 -0.063126 -2.131934
v -0.109863 -0.004072 -2.160711
v -0.086089 0.054713 -2.131379
v -0.048252 -0.064390 -1.862951
v -0.089075 -0.064613 -1.815934
v -0.022234 -0.064767 -1.782574
v -0.001726 -0.064498 -1.839603
v -0.086222 -0.063870 -1.973920
v -0.142934 -0.063870 -1.974457
v -0.086083 -0.063126 -2.131934
v -0.046158 -0.063349 -2.084152
v 0.048381 -0.062818 -2.196110
v 0.047746 -0.063134 -2.129079
v 0.140770 -0.063349 -2.082383
v 0.181592 -0.063126 -2.129400
v 0.235451 -0.063870 -1.970876
v 0.178740 -0.063870 -1.971412
v 0.138677 -0.064390 -1.861181
v 0.178601 -0.064613 -1.813400
v 0.111155 -0.064767 -1.781312
v 0.091731 -0.064498 -1.838718
v 0.044785 -0.064606 -1.816254
v 0.044150 -0.064921 -1.749224
v 0.110363 -0.065161 -1.697694
v -0.023025 -0.065161 -1.698957
v 0.043669 -0.065161 -1.698326
v 0.109323 -0.065678 -1.587737
v 0.042628 -0.065678 -1.588368
v -0.024066 -0.065678 -1.589000
v 0.041815 -0.066082 -1.502544
v 0.108510 -0.066082 -1.501912
v 0.107600 -0.066534 -1.405747
v 0.164307 -0.066082 -1.501384
v 0.163397 -0.066534 -1.405218
v 0.208968 -0.066208 -1.474016
v 0.208513 -0.066435 -1.425933
v 0.040595 -0.066688 -1.373655
v -0.025789 -0.066534 -1.407009
v -0.024878 -0.066082 -1.503175
v 0.166161 -0.065161 -1.697166
v 0.165120 -0.065678 -1.587209
v 0.215354 -0.065291 -1.668942
v 0.214838 -0.065547 -1.614496
v 0.227806 -0.006265 -1.691295
v 0.226782 -0.006774 -1.583112
v 0.214833 0.052292 -1.613942
v 0.215348 0.052548 -1.668388
v 0.214838 -0.065547 -1.614496
v 0.215354 -0.065291 -1.668942
v 0.220598 -0.007598 -1.408140
v 0.208507 0.051404 -1.425379
v 0.208962 0.051631 -1.473462
v 0.221510 -0.007145 -1.504408
v 0.208968 -0.066208 -1.474016
v 0.208513 -0.066435 -1.425933
v 0.123062 -0.006012 -1.746122
v 0.111155 -0.064767 -1.781312
v 0.110363 -0.065161 -1.697694
v 0.110358 0.052678 -1.697140
v 0.111150 0.053072 -1.780757
v 0.122816 -0.006135 -1.720047
v 0.109323 -0.065678 -1.587737
v 0.108510 -0.066082 -1.501912
v 0.120941 -0.007066 -1.521992
v 0.121367 -0.006855 -1.566979
v 0.109317 0.052161 -1.587183
v 0.108505 0.051757 -1.501358
v -0.058548 -0.004951 -1.973381
v -0.026871 -0.004539 -2.060686
v -0.086222 -0.063870 -1.973920
v -0.028529 -0.005363 -1.885496
v -0.086228 0.053969 -1.973366
v -0.048257 0.053449 -1.862396
v -0.046163 0.054490 -2.083598
v -0.048252 -0.064390 -1.862951
v -0.046158 -0.063349 -2.084152
v 0.181587 0.054713 -2.128846
v 0.205912 -0.004072 -2.157722
v 0.269924 -0.004951 -1.970272
v 0.235446 0.053969 -1.970321
v 0.178595 0.053226 -1.812846
v 0.202375 -0.005830 -1.784067
v 0.178601 -0.064613 -1.813400
v 0.235451 -0.063870 -1.970876
v 0.181592 -0.063126 -2.129400
v 0.123062 -0.006012 -1.746122
v 0.202375 -0.005830 -1.784067
v 0.178601 -0.064613 -1.813400
v 0.111155 -0.064767 -1.781312
v 0.178595 0.053226 -1.812846
v 0.111150 0.053072 -1.780757
v 0.121367 -0.006855 -1.566979
v 0.165120 -0.065678 -1.587209
v 0.109323 -0.065678 -1.587737
v 0.109317 0.052161 -1.587183
v 0.165115 0.052161 -1.586654
v 0.177177 -0.006855 -1.566451
v 0.214833 0.052292 -1.613942
v 0.214838 -0.065547 -1.614496
v 0.226782 -0.006774 -1.583112
v 0.047746 -0.063134 -2.129079
v -0.046158 -0.063349 -2.084152
v -0.026871 -0.004539 -2.060686
v 0.047436 -0.004368 -2.096267
v 0.121041 -0.004539 -2.059286
v 0.140770 -0.063349 -2.082383
v 0.047741 0.054705 -2.128525
v 0.140765 0.054490 -2.081829
v -0.046163 0.054490 -2.083598
v -0.089075 -0.064613 -1.815934
v -0.113400 -0.005830 -1.787056
v -0.034819 -0.006012 -1.747616
v -0.022234 -0.064767 -1.782574
v -0.089080 0.053226 -1.815380
v -0.022239 0.053072 -1.782020
v -0.025789 -0.066534 -1.407009
v -0.038374 -0.007779 -1.372048
v 0.040207 -0.007961 -1.332606
v 0.040595 -0.066688 -1.373655
v 0.107600 -0.066534 -1.405747
v 0.119507 -0.007779 -1.370553
v 0.163397 -0.066534 -1.405218
v 0.175318 -0.007779 -1.370025
v 0.208513 -0.066435 -1.425933
v 0.220598 -0.007598 -1.408140
v 0.208507 0.051404 -1.425379
v 0.163392 0.051305 -1.404664
v 0.107595 0.051305 -1.405192
v 0.040590 0.051151 -1.373101
v -0.025794 0.051305 -1.406455
v 0.041810 0.051757 -1.501989
v 0.108505 0.051757 -1.501358
v 0.107595 0.051305 -1.405192
v 0.040590 0.051151 -1.373101
v -0.025794 0.051305 -1.406455
v 0.109317 0.052161 -1.587183
v -0.024884 0.051757 -1.502621
v 0.042623 0.052161 -1.587814
v -0.024071 0.052161 -1.588445
v 0.110358 0.052678 -1.697140
v 0.043663 0.052678 -1.697771
v -0.023030 0.052678 -1.698402
v 0.044145 0.052918 -1.748669
v 0.111150 0.053072 -1.780757
v -0.022239 0.053072 -1.782020
v 0.044780 0.053233 -1.815700
v 0.091726 0.053341 -1.838164
v -0.001731 0.053341 -1.839048
v -0.048257 0.053449 -1.862396
v -0.089080 0.053226 -1.815380
v -0.086228 0.053969 -1.973366
v -0.142939 0.053969 -1.973903
v -0.086089 0.054713 -2.131379
v -0.046163 0.054490 -2.083598
v 0.048375 0.055021 -2.195556
v 0.047741 0.054705 -2.128525
v 0.140765 0.054490 -2.081829
v 0.235446 0.053969 -1.970321
v 0.178735 0.053969 -1.970858
v 0.181587 0.054713 -2.128846
v 0.138671 0.053449 -1.860627
v 0.178595 0.053226 -1.812846
v 0.165115 0.052161 -1.586654
v 0.166155 0.052678 -1.696612
v 0.215348 0.052548 -1.668388
v 0.214833 0.052292 -1.613942
v 0.163392 0.051305 -1.404664
v 0.164302 0.051757 -1.500830
v 0.208962 0.051631 -1.473462
v 0.208507 0.051404 -1.425379
v -1.852412 -0.084076 -0.175319
v -1.963012 -0.083556 -0.136283
v -1.939726 -0.024745 -0.116777
v -1.852131 -0.025157 -0.147640
v -1.764529 -0.025569 -0.116806
v -1.741801 -0.084596 -0.136319
v -1.851858 0.033763 -0.175319
v -1.741246 0.033243 -0.136319
v -1.962458 0.034283 -0.136283
v -2.010376 -0.083333 0.091037
v -2.038923 -0.024278 0.115093
v -1.852077 -0.025157 0.180845
v -1.852360 -0.084076 0.146369
v -1.694363 -0.084819 0.090986
v -1.665252 -0.026036 0.115032
v -1.693808 0.033020 0.090986
v -1.851805 0.033763 0.146369
v -2.009822 0.034506 0.091037
v -1.626570 -0.026218 0.036075
v -1.578027 -0.085367 0.023813
v -1.661648 -0.084973 0.023827
v -1.661094 0.032866 0.023827
v -1.577472 0.032472 0.023813
v -1.577748 -0.026448 0.036067
v -1.468065 -0.085884 0.023795
v -1.467786 -0.026965 0.036049
v -1.467510 0.031955 0.023795
v -1.382236 -0.086288 0.023781
v -1.381957 -0.027369 0.036035
v -1.381682 0.031551 0.023781
v -1.286066 -0.086740 0.023766
v -1.285512 0.031099 0.023765
v -1.250985 -0.027985 0.036013
v -1.600520 -0.026341 -0.121818
v -1.578049 -0.085367 -0.109581
v -1.578058 -0.085367 -0.165381
v -1.577503 0.032472 -0.165381
v -1.577494 0.032472 -0.109581
v -1.600529 -0.026341 -0.177631
v -1.550309 -0.085497 -0.214843
v -1.549755 0.032342 -0.214843
v -1.572781 -0.026471 -0.227080
v -1.402456 -0.027273 -0.121850
v -1.382258 -0.086288 -0.109613
v -1.382267 -0.086288 -0.165413
v -1.402465 -0.027273 -0.177663
v -1.381713 0.031551 -0.165413
v -1.381704 0.031551 -0.109613
v -1.354776 0.031424 -0.210335
v -1.385842 -0.027351 -0.222583
v -1.355330 -0.086415 -0.210335
v -1.764505 -0.025569 0.031113
v -1.741770 -0.084596 0.050618
v -1.718871 -0.084704 0.003869
v -1.718317 0.033135 0.003869
v -1.741216 0.033243 0.050618
v -1.746366 -0.025654 -0.005652
v -1.695418 0.033027 -0.042864
v -1.695972 -0.084812 -0.042864
v -1.728230 -0.025740 -0.042859
v -1.746378 -0.025654 -0.080062
v -1.718332 0.033135 -0.089592
v -1.718886 -0.084704 -0.089592
v -1.764529 -0.025569 -0.116806
v -1.741801 -0.084596 -0.136319
v -1.741246 0.033243 -0.136319
v -2.009866 0.034506 -0.176650
v -2.075290 0.034814 -0.042802
v -2.116342 -0.023914 -0.042796
v -2.038975 -0.024278 -0.200696
v -2.010420 -0.083333 -0.176650
v -2.075845 -0.083025 -0.042802
v -2.010376 -0.083333 0.091037
v -2.038923 -0.024278 0.115093
v -2.009822 0.034506 0.091037
v -1.741770 -0.084596 0.050618
v -1.694363 -0.084819 0.090986
v -1.661648 -0.084973 0.023827
v -1.718871 -0.084704 0.003869
v -1.852369 -0.084076 0.089655
v -1.852360 -0.084076 0.146369
v -2.010376 -0.083333 0.091037
v -1.962982 -0.083556 0.050654
v -2.075845 -0.083025 -0.042802
v -2.008811 -0.083340 -0.042813
v -1.963012 -0.083556 -0.136283
v -2.010420 -0.083333 -0.176650
v -1.852422 -0.084076 -0.232033
v -1.852412 -0.084076 -0.175319
v -1.741801 -0.084596 -0.136319
v -1.694406 -0.084819 -0.176701
v -1.661670 -0.084973 -0.109568
v -1.718886 -0.084704 -0.089592
v -1.695972 -0.084812 -0.042864
v -1.628938 -0.085127 -0.042875
v -1.578049 -0.085367 -0.109581
v -1.578027 -0.085367 0.023813
v -1.578038 -0.085367 -0.042884
v -1.468087 -0.085884 -0.109599
v -1.468076 -0.085884 -0.042901
v -1.468065 -0.085884 0.023795
v -1.382247 -0.086288 -0.042915
v -1.382258 -0.086288 -0.109613
v -1.286088 -0.086740 -0.109629
v -1.382267 -0.086288 -0.165413
v -1.286097 -0.086740 -0.165429
v -1.355330 -0.086415 -0.210335
v -1.307245 -0.086641 -0.210343
v -1.253353 -0.086894 -0.042936
v -1.286066 -0.086740 0.023766
v -1.382236 -0.086288 0.023781
v -1.578058 -0.085367 -0.165381
v -1.468096 -0.085884 -0.165399
v -1.550309 -0.085497 -0.214843
v -1.495860 -0.085754 -0.214852
v -1.572781 -0.026471 -0.227080
v -1.464593 -0.026980 -0.227097
v -1.495306 0.032086 -0.214852
v -1.549755 0.032342 -0.214843
v -1.495860 -0.085754 -0.214852
v -1.550309 -0.085497 -0.214843
v -1.289569 -0.027804 -0.222599
v -1.306691 0.031198 -0.210343
v -1.354776 0.031424 -0.210335
v -1.385842 -0.027351 -0.222583
v -1.355330 -0.086415 -0.210335
v -1.307245 -0.086641 -0.210343
v -1.626596 -0.026218 -0.121813
v -1.661670 -0.084973 -0.109568
v -1.578049 -0.085367 -0.109581
v -1.577494 0.032472 -0.109581
v -1.661115 0.032866 -0.109568
v -1.600520 -0.026341 -0.121818
v -1.468087 -0.085884 -0.109599
v -1.382258 -0.086288 -0.109613
v -1.402456 -0.027273 -0.121850
v -1.447446 -0.027061 -0.121843
v -1.467532 0.031955 -0.109599
v -1.381704 0.031551 -0.109613
v -1.852096 -0.025157 0.061976
v -1.939702 -0.024745 0.031142
v -1.852369 -0.084076 0.089655
v -1.764505 -0.025569 0.031113
v -1.851815 0.033763 0.089655
v -1.741216 0.033243 0.050618
v -1.962427 0.034283 0.050654
v -1.741770 -0.084596 0.050618
v -1.962982 -0.083556 0.050654
v -2.009866 0.034506 -0.176650
v -2.038975 -0.024278 -0.200696
v -1.852150 -0.025157 -0.266510
v -1.851867 0.033763 -0.232033
v -1.693852 0.033020 -0.176701
v -1.665304 -0.026036 -0.200757
v -1.694406 -0.084819 -0.176701
v -1.852422 -0.084076 -0.232033
v -2.010420 -0.083333 -0.176650
v -1.626596 -0.026218 -0.121813
v -1.665304 -0.026036 -0.200757
v -1.694406 -0.084819 -0.176701
v -1.661670 -0.084973 -0.109568
v -1.693852 0.033020 -0.176701
v -1.661115 0.032866 -0.109568
v -1.447446 -0.027061 -0.121843
v -1.468096 -0.085884 -0.165399
v -1.468087 -0.085884 -0.109599
v -1.467532 0.031955 -0.109599
v -1.467541 0.031955 -0.165399
v -1.447455 -0.027061 -0.177656
v -1.495306 0.032086 -0.214852
v -1.495860 -0.085754 -0.214852
v -1.464593 -0.026980 -0.227097
v -2.008811 -0.083340 -0.042813
v -1.962982 -0.083556 0.050654
v -1.939702 -0.024745 0.031142
v -1.975997 -0.024574 -0.042819
v -1.939726 -0.024745 -0.116777
v -1.963012 -0.083556 -0.136283
v -2.008256 0.034499 -0.042813
v -1.962458 0.034283 -0.136283
v -1.962427 0.034283 0.050654
v -1.694363 -0.084819 0.090986
v -1.665252 -0.026036 0.115032
v -1.626570 -0.026218 0.036075
v -1.661648 -0.084973 0.023827
v -1.693808 0.033020 0.090986
v -1.661094 0.032866 0.023827
v -1.286066 -0.086740 0.023766
v -1.250985 -0.027985 0.036013
v -1.212302 -0.028167 -0.042943
v -1.253353 -0.086894 -0.042936
v -1.286088 -0.086740 -0.109629
v -1.251011 -0.027985 -0.121875
v -1.286097 -0.086740 -0.165429
v -1.251020 -0.027985 -0.177688
v -1.307245 -0.086641 -0.210343
v -1.289569 -0.027804 -0.222599
v -1.306691 0.031198 -0.210343
v -1.285543 0.031099 -0.165429
v -1.285534 0.031099 -0.109629
v -1.252798 0.030945 -0.042937
v -1.285512 0.031099 0.023765
v -1.381693 0.031551 -0.042916
v -1.381704 0.031551 -0.109613
v -1.285534 0.031099 -0.109629
v -1.252798 0.030945 -0.042937
v -1.285512 0.031099 0.023765
v -1.467532 0.031955 -0.109599
v -1.381682 0.031551 0.023781
v -1.467521 0.031955 -0.042902
v -1.467510 0.031955 0.023795
v -1.577494 0.032472 -0.109581
v -1.577483 0.032472 -0.042884
v -1.577472 0.032472 0.023813
v -1.628384 0.032712 -0.042875
v -1.661115 0.032866 -0.109568
v -1.661094 0.032866 0.023827
v -1.695418 0.033027 -0.042864
v -1.718332 0.033135 -0.089592
v -1.718317 0.033135 0.003869
v -1.741216 0.033243 0.050618
v -1.693808 0.033020 0.090986
v -1.851815 0.033763 0.089655
v -1.851805 0.033763 0.146369
v -2.009822 0.034506 0.091037
v -1.962427 0.034283 0.050654
v -2.075290 0.034814 -0.042802
v -2.008256 0.034499 -0.042813
v -1.962458 0.034283 -0.136283
v -1.851867 0.033763 -0.232033
v -1.851858 0.033763 -0.175319
v -2.009866 0.034506 -0.176650
v -1.741246 0.033243 -0.136319
v -1.693852 0.033020 -0.176701
v -1.467541 0.031955 -0.165399
v -1.577503 0.032472 -0.165381
v -1.549755 0.032342 -0.214843
v -1.495306 0.032086 -0.214852
v -1.285543 0.031099 -0.165429
v -1.381713 0.031551 -0.165413
v -1.354776 0.031424 -0.210335
v -1.306691 0.031198 -0.210343
v -0.016914 -0.061509 1.864467
v 0.024356 -0.063698 1.974232
v 0.046518 -0.005892 1.950804
v 0.013885 -0.004162 1.863869
v 0.042848 -0.005747 1.775644
v 0.019722 -0.063514 1.753067
v -0.010581 0.056161 1.864432
v 0.026055 0.054156 1.753031
v 0.030690 0.053972 1.974197
v 0.252284 -0.075952 2.016858
v 0.280065 -0.018434 2.045158
v 0.341824 -0.021814 1.856983
v 0.304239 -0.078796 1.857723
v 0.245663 -0.075690 1.700910
v 0.272237 -0.018124 1.671565
v 0.251996 0.041980 1.700875
v 0.310572 0.038874 1.857688
v 0.258617 0.041718 2.016823
v 0.192606 -0.013849 1.634534
v 0.176184 -0.071985 1.585995
v 0.177936 -0.072054 1.669599
v 0.184269 0.045616 1.669564
v 0.182517 0.045685 1.585960
v 0.191584 -0.013809 1.585721
v 0.173880 -0.071894 1.476056
v 0.189280 -0.013718 1.475782
v 0.180213 0.045776 1.476021
v 0.172082 -0.071823 1.390246
v 0.187482 -0.013647 1.389971
v 0.178415 0.045847 1.390211
v 0.170067 -0.071743 1.294096
v 0.176400 0.045927 1.294061
v 0.184738 -0.013538 1.259027
v 0.034435 -0.005343 1.611773
v 0.043012 -0.064817 1.588792
v -0.012695 -0.061818 1.589962
v -0.006362 0.055852 1.589927
v 0.049345 0.052853 1.588757
v -0.021285 -0.002344 1.612943
v -0.062652 -0.059137 1.563248
v -0.056319 0.058533 1.563213
v -0.071229 0.000336 1.586229
v 0.030286 -0.005179 1.413750
v 0.038910 -0.064654 1.393042
v -0.016797 -0.061656 1.394212
v -0.025435 -0.002180 1.414920
v -0.010464 0.056014 1.394177
v 0.045243 0.053016 1.393007
v -0.055871 0.058450 1.368180
v -0.070626 0.000248 1.399235
v -0.062204 -0.059220 1.368215
v 0.190520 -0.013696 1.772543
v 0.206348 -0.073560 1.749148
v 0.159201 -0.071029 1.727226
v 0.165534 0.046641 1.727191
v 0.212681 0.044110 1.749113
v 0.153440 -0.011705 1.755173
v 0.118402 0.049171 1.705268
v 0.112069 -0.068499 1.705303
v 0.115917 -0.009691 1.737814
v 0.079154 -0.007707 1.756733
v 0.072229 0.051664 1.729150
v 0.065896 -0.066006 1.729185
v 0.042848 -0.005747 1.775644
v 0.019722 -0.063514 1.753067
v 0.026055 0.054156 1.753031
v -0.008625 0.056103 2.022434
v 0.126360 0.048856 2.085062
v 0.124048 -0.010013 2.125845
v -0.035199 -0.001464 2.051779
v -0.014958 -0.061567 2.022470
v 0.120027 -0.068814 2.085097
v 0.252284 -0.075952 2.016858
v 0.280065 -0.018434 2.045158
v 0.258617 0.041718 2.016823
v 0.206348 -0.073560 1.749148
v 0.245663 -0.075690 1.700910
v 0.177936 -0.072054 1.669599
v 0.159201 -0.071029 1.727226
v 0.247619 -0.075748 1.858912
v 0.304239 -0.078796 1.857723
v 0.252284 -0.075952 2.016858
v 0.210982 -0.073743 1.970313
v 0.120027 -0.068814 2.085097
v 0.118623 -0.068758 2.018077
v 0.024356 -0.063698 1.974232
v -0.014958 -0.061567 2.022470
v -0.073533 -0.058461 1.865656
v -0.016914 -0.061509 1.864467
v 0.019722 -0.063514 1.753067
v -0.021578 -0.061305 1.706522
v 0.044763 -0.064886 1.672396
v 0.065896 -0.066006 1.729185
v 0.112069 -0.068499 1.705303
v 0.110665 -0.068443 1.638283
v 0.043012 -0.064817 1.588792
v 0.176184 -0.071985 1.585995
v 0.109598 -0.068401 1.587394
v 0.040708 -0.064725 1.478853
v 0.107295 -0.068310 1.477455
v 0.173880 -0.071894 1.476056
v 0.105496 -0.068238 1.391644
v 0.038910 -0.064654 1.393042
v 0.036895 -0.064574 1.296892
v -0.016797 -0.061656 1.394212
v -0.018812 -0.061576 1.298062
v -0.062204 -0.059220 1.368215
v -0.063211 -0.059180 1.320140
v 0.102796 -0.068132 1.262776
v 0.170067 -0.071743 1.294096
v 0.172082 -0.071823 1.390246
v -0.012695 -0.061818 1.589962
v -0.014999 -0.061727 1.480023
v -0.062652 -0.059137 1.563248
v -0.063793 -0.059092 1.508810
v -0.071229 0.000336 1.586229
v -0.073495 0.000426 1.478063
v -0.057460 0.058578 1.508775
v -0.056319 0.058533 1.563213
v -0.063793 -0.059092 1.508810
v -0.062652 -0.059137 1.563248
v -0.072643 0.000328 1.302982
v -0.056878 0.058490 1.320105
v -0.055871 0.058450 1.368180
v -0.070626 0.000248 1.399235
v -0.062204 -0.059220 1.368215
v -0.063211 -0.059180 1.320140
v 0.034981 -0.005365 1.637843
v 0.044763 -0.064886 1.672396
v 0.043012 -0.064817 1.588792
v 0.049345 0.052853 1.588757
v 0.051097 0.052784 1.672361
v 0.034435 -0.005343 1.611773
v 0.040708 -0.064725 1.478853
v 0.038910 -0.064654 1.393042
v 0.030286 -0.005179 1.413750
v 0.031228 -0.005216 1.458730
v 0.047041 0.052945 1.478818
v 0.045243 0.053016 1.393007
v 0.223153 -0.015426 1.859475
v 0.194191 -0.013841 1.947703
v 0.247619 -0.075748 1.858912
v 0.190520 -0.013696 1.772543
v 0.253952 0.041922 1.858877
v 0.212681 0.044110 1.749113
v 0.217315 0.043927 1.970278
v 0.206348 -0.073560 1.749148
v 0.210982 -0.073743 1.970313
v -0.008625 0.056103 2.022434
v -0.035199 -0.001464 2.051779
v -0.104787 0.002226 1.866361
v -0.067200 0.059209 1.865620
v -0.015245 0.056365 1.706487
v -0.043027 -0.001154 1.678185
v -0.021578 -0.061305 1.706522
v -0.073533 -0.058461 1.865656
v -0.014958 -0.061567 2.022470
v 0.034981 -0.005365 1.637843
v -0.043027 -0.001154 1.678185
v -0.021578 -0.061305 1.706522
v 0.044763 -0.064886 1.672396
v -0.015245 0.056365 1.706487
v 0.051097 0.052784 1.672361
v 0.031228 -0.005216 1.458730
v -0.014999 -0.061727 1.480023
v 0.040708 -0.064725 1.478853
v 0.047041 0.052945 1.478818
v -0.008666 0.055943 1.479987
v -0.024492 -0.002217 1.459900
v -0.057460 0.058578 1.508775
v -0.063793 -0.059092 1.508810
v -0.073495 0.000426 1.478063
v 0.118623 -0.068758 2.018077
v 0.210982 -0.073743 1.970313
v 0.194191 -0.013841 1.947703
v 0.121108 -0.009897 1.985530
v 0.046518 -0.005892 1.950804
v 0.024356 -0.063698 1.974232
v 0.124956 0.048912 2.018042
v 0.030690 0.053972 1.974197
v 0.217315 0.043927 1.970278
v 0.245663 -0.075690 1.700910
v 0.272237 -0.018124 1.671565
v 0.192606 -0.013849 1.634534
v 0.177936 -0.072054 1.669599
v 0.251996 0.041980 1.700875
v 0.184269 0.045616 1.669564
v 0.170067 -0.071743 1.294096
v 0.184738 -0.013538 1.259027
v 0.105108 -0.009263 1.221994
v 0.102796 -0.068132 1.262776
v 0.036895 -0.064574 1.296892
v 0.027113 -0.005053 1.262336
v -0.018812 -0.061576 1.298062
v -0.028608 -0.002054 1.263506
v -0.063211 -0.059180 1.320140
v -0.072643 0.000328 1.302982
v -0.056878 0.058490 1.320105
v -0.012479 0.056094 1.298027
v 0.043228 0.053096 1.296857
v 0.109129 0.049538 1.262741
v 0.176400 0.045927 1.294061
v 0.111830 0.049432 1.391609
v 0.045243 0.053016 1.393007
v 0.043228 0.053096 1.296857
v 0.109129 0.049538 1.262741
v 0.176400 0.045927 1.294061
v 0.047041 0.052945 1.478818
v 0.178415 0.045847 1.390211
v 0.113628 0.049360 1.477419
v 0.180213 0.045776 1.476021
v 0.049345 0.052853 1.588757
v 0.115931 0.049269 1.587359
v 0.182517 0.045685 1.585960
v 0.116998 0.049227 1.638248
v 0.051097 0.052784 1.672361
v 0.184269 0.045616 1.669564
v 0.118402 0.049171 1.705268
v 0.072229 0.051664 1.729150
v 0.165534 0.046641 1.727191
v 0.212681 0.044110 1.749113
v 0.251996 0.041980 1.700875
v 0.253952 0.041922 1.858877
v 0.310572 0.038874 1.857688
v 0.258617 0.041718 2.016823
v 0.217315 0.043927 1.970278
v 0.126360 0.048856 2.085062
v 0.124956 0.048912 2.018042
v 0.030690 0.053972 1.974197
v -0.067200 0.059209 1.865620
v -0.010581 0.056161 1.864432
v -0.008625 0.056103 2.022434
v 0.026055 0.054156 1.753031
v -0.015245 0.056365 1.706487
v -0.008666 0.055943 1.479987
v -0.006362 0.055852 1.589927
v -0.056319 0.058533 1.563213
v -0.057460 0.058578 1.508775
v -0.012479 0.056094 1.298027
v -0.010464 0.056014 1.394177
v -0.055871 0.058450 1.368180
v -0.056878 0.058490 1.320105
v 2.123414 -0.068084 0.019745
v 2.234007 -0.067564 -0.019310
v 2.210717 -0.008753 -0.038812
v 2.123127 -0.009165 -0.007933
v 2.035520 -0.009577 -0.038752
v 2.012795 -0.068605 -0.019235
v 2.122859 0.049755 0.019745
v 2.012241 0.049234 -0.019235
v 2.233453 0.050275 -0.019310
v 2.281331 -0.067341 -0.246639
v 2.309874 -0.008286 -0.270700
v 2.123015 -0.009165 -0.336419
v 2.123304 -0.068084 -0.301943
v 1.965317 -0.068828 -0.246532
v 1.936202 -0.010044 -0.270573
v 1.964763 0.049011 -0.246531
v 2.122750 0.049755 -0.301942
v 2.280776 0.050498 -0.246639
v 1.897534 -0.010226 -0.191608
v 1.848993 -0.069375 -0.179338
v 1.932614 -0.068981 -0.179367
v 1.932060 0.048858 -0.179366
v 1.848439 0.048464 -0.179338
v 1.848712 -0.010456 -0.191592
v 1.739031 -0.069892 -0.179301
v 1.738750 -0.010973 -0.191554
v 1.738477 0.047947 -0.179301
v 1.653203 -0.070296 -0.179272
v 1.652921 -0.011377 -0.191525
v 1.652648 0.047543 -0.179271
v 1.557032 -0.070748 -0.179239
v 1.556478 0.047091 -0.179239
v 1.521949 -0.011993 -0.191481
v 1.871512 -0.010349 -0.033711
v 1.849038 -0.069375 -0.045944
v 1.849057 -0.069375 0.009856
v 1.848503 0.048464 0.009856
v 1.848484 0.048464 -0.045944
v 1.871531 -0.010349 0.022102
v 1.821318 -0.069505 0.059323
v 1.820763 0.048334 0.059323
v 1.843792 -0.010479 0.071556
v 1.673448 -0.011281 -0.033644
v 1.653248 -0.070296 -0.045877
v 1.653267 -0.070296 0.009922
v 1.673467 -0.011281 0.022169
v 1.652713 0.047543 0.009923
v 1.652694 0.047543 -0.045877
v 1.625784 0.047416 0.054849
v 1.656852 -0.011359 0.067092
v 1.626338 -0.070423 0.054849
v 2.035470 -0.009577 -0.186671
v 2.012732 -0.068605 -0.206172
v 1.989841 -0.068712 -0.159419
v 1.989286 0.049127 -0.159419
v 2.012177 0.049234 -0.206172
v 2.017338 -0.009663 -0.149903
v 1.966396 0.049019 -0.112682
v 1.966950 -0.068820 -0.112682
v 1.999208 -0.009748 -0.112693
v 2.017363 -0.009663 -0.075493
v 1.989318 0.049127 -0.065958
v 1.989873 -0.068712 -0.065958
v 2.035520 -0.009577 -0.038752
v 2.012795 -0.068605 -0.019235
v 2.012241 0.049234 -0.019235
v 2.280867 0.050498 0.021048
v 2.346268 0.050806 -0.112811
v 2.387320 -0.007922 -0.112825
v 2.309981 -0.008286 0.045090
v 2.281422 -0.067341 0.021048
v 2.346823 -0.067033 -0.112811
v 2.281331 -0.067341 -0.246639
v 2.309874 -0.008286 -0.270700
v 2.280776 0.050498 -0.246639
v 2.012732 -0.068605 -0.206172
v 1.965317 -0.068828 -0.246532
v 1.932614 -0.068981 -0.179367
v 1.989841 -0.068712 -0.159419
v 2.123324 -0.068084 -0.245229
v 2.123304 -0.068084 -0.301943
v 2.281331 -0.067341 -0.246639
v 2.233943 -0.067564 -0.206247
v 2.346823 -0.067033 -0.112811
v 2.279789 -0.067348 -0.112788
v 2.234007 -0.067564 -0.019310
v 2.281422 -0.067341 0.021048
v 2.123433 -0.068084 0.076459
v 2.123414 -0.068084 0.019745
v 2.012795 -0.068605 -0.019235
v 1.965408 -0.068828 0.021156
v 1.932660 -0.068981 -0.045972
v 1.989873 -0.068712 -0.065958
v 1.966950 -0.068820 -0.112682
v 1.899916 -0.069135 -0.112659
v 1.849038 -0.069375 -0.045944
v 1.848993 -0.069375 -0.179338
v 1.849016 -0.069375 -0.112642
v 1.739076 -0.069892 -0.045906
v 1.739054 -0.069892 -0.112604
v 1.739031 -0.069892 -0.179301
v 1.653225 -0.070296 -0.112575
v 1.653248 -0.070296 -0.045877
v 1.557078 -0.070748 -0.045844
v 1.653267 -0.070296 0.009922
v 1.557097 -0.070749 0.009955
v 1.626338 -0.070423 0.054849
v 1.578253 -0.070649 0.054865
v 1.524331 -0.070902 -0.112531
v 1.557032 -0.070748 -0.179239
v 1.653203 -0.070296 -0.179272
v 1.849057 -0.069375 0.009856
v 1.739095 -0.069892 0.009893
v 1.821318 -0.069505 0.059323
v 1.766869 -0.069762 0.059342
v 1.843792 -0.010479 0.071556
v 1.735604 -0.010988 0.071592
v 1.766315 0.048077 0.059342
v 1.820763 0.048334 0.059323
v 1.766869 -0.069762 0.059342
v 1.821318 -0.069505 0.059323
v 1.560579 -0.011812 0.067125
v 1.577698 0.047190 0.054866
v 1.625784 0.047416 0.054849
v 1.656852 -0.011359 0.067092
v 1.626338 -0.070423 0.054849
v 1.578253 -0.070649 0.054865
v 1.897588 -0.010226 -0.033720
v 1.932660 -0.068981 -0.045972
v 1.849038 -0.069375 -0.045944
v 1.848484 0.048464 -0.045944
v 1.932105 0.048858 -0.045972
v 1.871512 -0.010349 -0.033711
v 1.739076 -0.069892 -0.045906
v 1.653248 -0.070296 -0.045877
v 1.673448 -0.011281 -0.033644
v 1.718438 -0.011069 -0.033659
v 1.738522 0.047947 -0.045906
v 1.652694 0.047543 -0.045877
v 2.123056 -0.009165 -0.217550
v 2.210667 -0.008753 -0.186731
v 2.123324 -0.068084 -0.245229
v 2.035470 -0.009577 -0.186671
v 2.122769 0.049755 -0.245229
v 2.012177 0.049234 -0.206172
v 2.233389 0.050275 -0.206247
v 2.012732 -0.068605 -0.206172
v 2.233943 -0.067564 -0.206247
v 2.280867 0.050498 0.021048
v 2.309981 -0.008286 0.045090
v 2.123168 -0.009165 0.110937
v 2.122879 0.049755 0.076459
v 1.964854 0.049011 0.021156
v 1.936310 -0.010044 0.045217
v 1.965408 -0.068828 0.021156
v 2.123433 -0.068084 0.076459
v 2.281422 -0.067341 0.021048
v 1.897588 -0.010226 -0.033720
v 1.936310 -0.010044 0.045217
v 1.965408 -0.068828 0.021156
v 1.932660 -0.068981 -0.045972
v 1.964854 0.049011 0.021156
v 1.932105 0.048858 -0.045972
v 1.718438 -0.011069 -0.033659
v 1.739095 -0.069892 0.009893
v 1.739076 -0.069892 -0.045906
v 1.738522 0.047947 -0.045906
v 1.738541 0.047947 0.009893
v 1.718457 -0.011069 0.022154
v 1.766315 0.048077 0.059342
v 1.766869 -0.069762 0.059342
v 1.735604 -0.010988 0.071592
v 2.279789 -0.067348 -0.112788
v 2.233943 -0.067564 -0.206247
v 2.210667 -0.008753 -0.186731
v 2.246975 -0.008582 -0.112777
v 2.210717 -0.008753 -0.038812
v 2.234007 -0.067564 -0.019310
v 2.279234 0.050491 -0.112788
v 2.233453 0.050275 -0.019310
v 2.233389 0.050275 -0.206247
v 1.965317 -0.068828 -0.246532
v 1.936202 -0.010044 -0.270573
v 1.897534 -0.010226 -0.191608
v 1.932614 -0.068981 -0.179367
v 1.964763 0.049011 -0.246531
v 1.932060 0.048858 -0.179366
v 1.557032 -0.070748 -0.179239
v 1.521949 -0.011993 -0.191481
v 1.483280 -0.012175 -0.112517
v 1.524331 -0.070902 -0.112531
v 1.557078 -0.070748 -0.045844
v 1.522003 -0.011993 -0.033592
v 1.557097 -0.070749 0.009955
v 1.522022 -0.011993 0.022221
v 1.578253 -0.070649 0.054865
v 1.560579 -0.011812 0.067125
v 1.577698 0.047190 0.054866
v 1.556542 0.047091 0.009955
v 1.556524 0.047091 -0.045844
v 1.523776 0.046937 -0.112531
v 1.556478 0.047091 -0.179239
v 1.652671 0.047543 -0.112575
v 1.652694 0.047543 -0.045877
v 1.556524 0.047091 -0.045844
v 1.523776 0.046937 -0.112531
v 1.556478 0.047091 -0.179239
v 1.738522 0.047947 -0.045906
v 1.652648 0.047543 -0.179271
v 1.738499 0.047947 -0.112604
v 1.738477 0.047947 -0.179301
v 1.848484 0.048464 -0.045944
v 1.848461 0.048464 -0.112641
v 1.848439 0.048464 -0.179338
v 1.899362 0.048704 -0.112659
v 1.932105 0.048858 -0.045972
v 1.932060 0.048858 -0.179366
v 1.966396 0.049019 -0.112682
v 1.989318 0.049127 -0.065958
v 1.989286 0.049127 -0.159419
v 2.012177 0.049234 -0.206172
v 1.964763 0.049011 -0.246531
v 2.122769 0.049755 -0.245229
v 2.122750 0.049755 -0.301942
v 2.280776 0.050498 -0.246639
v 2.233389 0.050275 -0.206247
v 2.346268 0.050806 -0.112811
v 2.279234 0.050491 -0.112788
v 2.233453 0.050275 -0.019310
v 2.122879 0.049755 0.076459
v 2.122859 0.049755 0.019745
v 2.280867 0.050498 0.021048
v 2.012241 0.049234 -0.019235
v 1.964854 0.049011 0.021156
v 1.738541 0.047947 0.009893
v 1.848503 0.048464 0.009856
v 1.820763 0.048334 0.059323
v 1.766315 0.048077 0.059342
v 1.556542 0.047091 0.009955
v 1.652713 0.047543 0.009923
v 1.625784 0.047416 0.054849
v 1.577698 0.047190 0.054866
v -2.220928 -0.193655 2.238180
v 2.379072 -0.023399 2.238180
v 2.379072 -0.193655 2.238180
v -2.220928 -0.023399 2.238180
v -2.220928 -0.193655 -2.361820
v -2.220928 -0.023399 -2.361820
v -2.220928 -0.023399 2.238180
v -2.220928 -0.193655 2.238180
v 2.379072 -0.193655 -2.361820
v 2.379072 -0.023399 -2.361820
v -2.220928 -0.023399 -2.361820
v -2.220928 -0.193655 -2.361820
vn 1.0000 0.0071 0.0004
vn 1.0000 0.0066 0.0005
vn 1.0000 0.0060 0.0005
vn 0.0005 0.0062 -1.0000
vn -0.3748 -0.0000 -0.9271
vn -0.4255 -0.0000 -0.9049
vn -0.9045 -0.0000 -0.4264
vn -0.9557 -0.0000 -0.2945
vn -1.0000 0.0052 0.0003
vn -1.0000 0.0060 0.0005
vn -1.0000 0.0066 0.0005
vn 0.4255 -0.0000 -0.9049
vn 0.3748 -0.0000 -0.9271
vn 0.9045 -0.0000 -0.4264
vn 0.9557 -0.0000 -0.2945
vn 1.0000 0.0052 0.0003
vn 0.0005 0.0062 1.0000
vn -0.4255 -0.0000 0.9049
vn 0.0003 0.0036 1.0000
vn -0.3748 -0.0000 0.9271
vn -0.9557 -0.0000 0.2945
vn -0.9045 -0.0000 0.4264
vn -1.0000 0.0062 0.0003
vn -1.0000 0.0071 0.0004
vn 0.4255 -0.0000 0.9049
vn 0.3748 -0.0000 0.9271
vn 0.9557 -0.0000 0.2945
vn 0.9045 -0.0000 0.4264
vn 1.0000 0.0062 0.0003
vn -0.0000 -1.0000 -0.0000
vn 0.0001 -1.0000 -0.0000
vn -0.0000 1.0000 -0.0000
vn 1.0000 0.0043 0.0004
vn -1.0000 0.0043 0.0004
vn -0.9170 -0.3968 0.0392
vn -0.8131 -0.0692 0.5780
vn -0.7820 -0.2334 0.5780
vn -1.0000 0.0005 -0.0089
vn -0.8006 0.0684 -0.5952
vn -0.3273 -0.9099 -0.2547
vn -0.9165 0.3961 -0.0555
vn -0.7672 0.2444 -0.5930
vn -0.3322 0.9101 0.2476
vn -0.4814 -0.7950 -0.3691
vn -1.0000 -0.0007 -0.0089
vn -0.8052 -0.0856 -0.5867
vn -0.8704 -0.4888 -0.0581
vn -0.6954 -0.5167 0.4994
vn -0.8175 0.0863 0.5695
vn -0.4887 0.7953 0.3586
vn -0.8716 0.4884 0.0425
vn -0.6829 0.5201 -0.5130
vn -0.9790 -0.2036 -0.0102
vn -1.0000 -0.0000 -0.0095
vn -0.9480 -0.0315 0.3167
vn -0.4794 -0.8448 0.2377
vn -0.9782 0.2073 -0.0083
vn -0.1813 0.9785 0.0981
vn -0.9782 -0.2073 -0.0102
vn -0.9790 0.2036 -0.0083
vn -0.7618 -0.5863 0.2754
vn -0.4603 0.8686 0.1835
vn -0.8993 0.0324 0.4361
vn 0.7879 -0.0007 -0.6158
vn 0.2431 -0.3440 -0.9070
vn 0.3771 -0.8689 -0.3207
vn 0.2793 -0.0055 -0.9602
vn 0.2599 0.3579 -0.8968
vn 0.3735 0.8848 -0.2786
vn 0.4549 -0.4095 -0.7909
vn 0.4544 0.4191 -0.7860
vn 0.4976 0.0323 -0.8668
vn 0.7873 -0.0002 -0.6166
vn 0.1789 -0.5788 -0.7956
vn 0.0253 -0.9981 -0.0568
vn 0.2125 0.0098 -0.9771
vn 0.1975 0.5804 -0.7900
vn 0.3847 0.8796 -0.2798
vn 0.4228 0.5302 -0.7349
vn 0.4427 0.0266 -0.8963
vn 0.4148 -0.5501 -0.7248
vn 0.7499 -0.0281 -0.6610
vn 0.3947 -0.4701 -0.7894
vn 0.6948 -0.4154 -0.5871
vn 0.4490 0.0001 -0.8935
vn 0.3945 0.4782 -0.7847
vn 0.4370 0.8268 -0.3543
vn 0.0083 0.4635 -0.8861
vn 0.0098 -0.4552 -0.8903
vn 0.0101 0.0339 -0.9994
vn -0.4320 0.0001 -0.9019
vn -0.3797 0.4776 -0.7923
vn -0.3795 -0.4707 -0.7965
vn -0.7391 -0.0273 -0.6730
vn -0.6787 -0.4335 -0.5929
vn -0.4351 0.8232 -0.3648
vn 0.5400 0.7056 -0.4587
vn 0.0103 -0.0459 -0.9989
vn 0.0088 0.5943 -0.8042
vn 0.7465 0.0317 -0.6646
vn 0.6292 -0.5442 -0.5549
vn 0.0075 -0.5858 -0.8104
vn -0.6175 -0.5496 -0.5627
vn -0.7356 0.0300 -0.6767
vn -0.5345 0.7030 -0.4692
vn -0.0000 -1.0000 -0.0047
vn 0.0210 -0.9997 0.0116
vn 0.0190 -0.9996 -0.0189
vn 0.9773 -0.2117 0.0083
vn 0.9993 -0.0355 0.0093
vn 0.9993 0.0357 0.0096
vn 0.9777 0.2099 0.0104
vn 0.9777 0.2097 0.0102
vn 0.9777 -0.2099 0.0082
vn 0.9993 0.0354 0.0096
vn 0.9782 0.2072 0.0102
vn 0.9779 0.2090 0.0103
vn 0.9993 -0.0357 0.0093
vn 0.9782 -0.2074 0.0082
vn 0.9782 -0.2073 0.0083
vn 0.9414 -0.0320 0.3357
vn 0.1677 -0.9782 -0.1223
vn 0.4716 -0.8466 0.2467
vn 0.8667 0.0317 -0.4977
vn 0.7017 0.5226 -0.4842
vn 0.1789 0.9786 0.1015
vn 0.0371 -0.9992 0.0126
vn 0.8629 0.0311 -0.5044
vn 0.0336 -0.9990 -0.0287
vn 0.8509 -0.0313 0.5244
vn 0.1753 0.9756 0.1322
vn 0.7866 0.2975 -0.5410
vn 0.8006 -0.0688 0.5952
vn 0.9169 0.3972 -0.0391
vn 1.0000 -0.0005 0.0089
vn 0.9162 -0.3968 0.0555
vn 0.8131 0.0695 -0.5779
vn 0.7816 0.2352 -0.5777
vn 0.3273 0.9099 0.2547
vn 0.3323 -0.9101 -0.2476
vn 0.7671 -0.2455 0.5927
vn 0.6957 0.5160 -0.4997
vn 1.0000 0.0007 0.0089
vn 0.8174 -0.0866 -0.5694
vn 0.8704 0.4888 0.0581
vn 0.4811 0.7953 0.3689
vn 0.8052 0.0860 0.5867
vn 0.6830 -0.5198 0.5131
vn 0.8711 -0.4893 -0.0425
vn 0.4887 -0.7953 -0.3586
vn 0.6185 0.5469 0.5641
vn 0.8662 0.0306 0.4987
vn 0.7357 -0.0295 0.6767
vn 0.5355 -0.7013 0.4706
vn 0.6350 -0.6409 0.4313
vn 0.7853 -0.3013 0.5408
vn 0.1753 -0.0018 0.9845
vn 0.7784 -0.0005 0.6277
vn 0.1688 -0.6103 0.7740
vn 0.0247 -0.9996 0.0121
vn 0.1541 0.6049 0.7812
vn 0.3733 0.8711 0.3191
vn 0.3871 0.5321 0.7530
vn 0.3926 -0.5180 0.7599
vn 0.4036 -0.0233 0.9146
vn -0.0084 -0.4519 0.8920
vn 0.7439 0.0266 0.6677
vn 0.4352 -0.8231 0.3648
vn -0.0102 -0.0341 0.9994
vn -0.7547 0.0284 0.6555
vn -0.4367 -0.8270 0.3541
vn -0.0098 0.4450 0.8955
vn -0.6949 0.4151 0.5872
vn 0.6786 0.4336 0.5928
vn -0.5416 -0.7031 0.4607
vn -0.8735 0.0314 0.4859
vn -0.7465 -0.0313 0.6646
vn -0.6328 -0.6535 0.4155
vn -0.6305 0.5411 0.5565
vn -0.7871 -0.3256 0.5239
vn -0.7819 -0.4998 0.3726
vn -0.0102 0.0461 0.9989
vn -0.8074 -0.0294 0.5892
vn -0.0088 -0.5943 0.8042
vn 0.1853 -0.5428 0.8192
vn 0.2205 -0.0195 0.9752
vn 0.2974 -0.0297 0.9543
vn 0.3481 0.0196 0.9373
vn 0.4288 -0.3007 0.8519
vn 0.5477 -0.0365 0.8359
vn 0.4305 0.2945 0.8532
vn 0.2809 -0.1161 0.9527
vn 0.1964 0.5348 0.8218
vn -0.0075 0.5853 0.8108
vn -0.8975 0.0703 0.4354
vn -0.0000 1.0000 0.0047
vn -0.0134 -0.3863 0.9223
vn 0.6488 0.0373 0.7600
vn 0.3027 -0.8914 0.3374
vn -0.0001 -0.0226 0.9997
vn -0.6489 0.0173 0.7607
vn -0.3801 -0.8246 0.4191
vn 0.0124 0.3869 0.9220
vn -0.4408 0.7335 0.5173
vn 0.5630 0.5197 0.6426
vn -0.4604 -0.7203 0.5188
vn 0.0005 0.0410 0.9992
vn -0.6411 -0.0012 0.7675
vn 0.0079 -0.4860 0.8739
vn 0.4179 -0.7752 0.4737
vn 0.6408 -0.0429 0.7665
vn 0.5250 0.5912 0.6123
vn -0.0088 0.4864 0.8737
vn -0.4772 0.6726 0.5656
vn -0.0008 -0.2036 0.9791
vn 0.0002 0.0010 1.0000
vn 0.4799 0.0057 0.8773
vn 0.1487 -0.9744 0.1688
vn 0.0011 0.2104 0.9776
vn 0.1889 0.9491 0.2520
vn -0.0008 -0.2084 0.9780
vn 0.0011 0.2083 0.9781
vn 0.0011 0.2036 0.9791
vn 0.2782 -0.8513 0.4448
vn 0.3126 0.7866 0.5325
vn 0.6195 -0.0078 0.7849
vn -0.7791 0.0661 -0.6234
vn -0.8887 -0.3656 -0.2766
vn -0.1636 -0.9773 -0.1347
vn -0.9679 0.0114 -0.2511
vn -0.9186 0.3503 -0.1830
vn -0.5233 -0.7359 -0.4297
vn -0.7942 -0.4120 -0.4466
vn -0.7926 0.4143 -0.4474
vn -0.8693 -0.0817 -0.4876
vn -0.7803 0.0598 -0.6226
vn -0.8733 -0.4189 -0.2486
vn -0.0411 -0.9988 -0.0257
vn -0.9810 0.0440 -0.1891
vn -0.7650 0.6307 -0.1301
vn -0.4954 -0.7618 -0.4174
vn -0.7197 0.5606 -0.4096
vn -0.9060 -0.1131 -0.4079
vn -0.7652 -0.4775 -0.4319
vn -0.6964 0.0993 -0.7107
vn -0.7965 -0.4632 -0.3888
vn -0.2581 -0.9260 -0.2756
vn -0.8978 0.0020 -0.4404
vn -0.7903 0.4742 -0.3879
vn -0.6006 -0.4522 -0.6593
vn -0.8803 0.4685 -0.0746
vn -0.8849 -0.4592 0.0778
vn -1.0000 -0.0036 0.0003
vn -0.8975 0.0093 0.4410
vn -0.7916 0.4713 0.3889
vn -0.7942 -0.4677 0.3880
vn -0.6980 -0.0736 0.7123
vn -0.6557 0.2396 0.7160
vn -0.2791 0.9118 0.3013
vn -0.6537 0.3199 -0.6859
vn -0.9998 0.0185 0.0001
vn -0.8054 0.5881 0.0745
vn -0.7005 -0.1231 -0.7029
vn -0.4153 -0.8022 -0.4290
vn -0.8112 -0.5803 -0.0719
vn -0.6384 -0.3878 0.6648
vn -0.7008 0.1117 0.7046
vn -0.4297 0.7849 0.4464
vn -0.0047 -1.0000 -0.0000
vn 0.0128 -0.9998 -0.0157
vn -0.0222 -0.9996 -0.0158
vn -0.0010 -0.2141 -0.9768
vn -0.0001 0.0066 -1.0000
vn -0.0002 -0.0086 -1.0000
vn 0.0009 0.2115 -0.9774
vn 0.0008 0.2116 -0.9773
vn -0.0011 -0.2034 -0.9791
vn -0.0002 -0.0085 -1.0000
vn 0.0008 0.2084 -0.9780
vn -0.0001 0.0067 -1.0000
vn -0.0011 -0.2036 -0.9791
vn -0.0011 -0.2083 -0.9781
vn 0.4797 0.0009 -0.8774
vn -0.2867 -0.9165 -0.2790
vn 0.1472 -0.9664 -0.2107
vn -0.6820 -0.0025 -0.7314
vn -0.2087 0.9626 -0.1729
vn 0.1908 0.9586 -0.2114
vn 0.0211 -0.9985 -0.0501
vn -0.6882 -0.0032 -0.7255
vn -0.0287 -0.9983 -0.0508
vn 0.6893 -0.0005 -0.7244
vn 0.3249 0.9049 -0.2750
vn -0.2280 0.9545 -0.1922
vn 0.6489 -0.0177 -0.7607
vn 0.0134 0.3868 -0.9221
vn 0.0001 0.0226 -0.9997
vn -0.0124 -0.3884 -0.9214
vn -0.6488 -0.0369 -0.7600
vn -0.3025 0.8915 -0.3372
vn 0.3799 0.8247 -0.4190
vn -0.5630 -0.5196 -0.6427
vn 0.4405 -0.7339 -0.5170
vn -0.4182 0.7749 -0.4740
vn -0.0005 -0.0410 -0.9992
vn -0.6408 0.0425 -0.7665
vn -0.0079 0.4854 -0.8742
vn 0.4601 0.7208 -0.5184
vn 0.6411 0.0015 -0.7675
vn 0.4774 -0.6723 -0.5658
vn 0.0088 -0.4869 -0.8734
vn -0.5250 -0.5912 -0.6123
vn 0.6402 0.3835 -0.6656
vn 0.5021 0.0887 -0.8602
vn 0.7008 -0.1113 -0.7047
vn 0.4308 -0.7842 -0.4467
vn 0.2686 -0.8903 -0.3677
vn 0.3631 -0.7858 -0.5008
vn 0.9845 -0.0060 -0.1753
vn 0.7803 0.0517 -0.6233
vn 0.8481 -0.4777 -0.2291
vn 0.0408 -0.9988 -0.0257
vn 0.7634 0.6329 -0.1294
vn 0.4962 -0.7608 -0.4184
vn 0.7486 0.5300 -0.3983
vn 0.7728 -0.4818 -0.4130
vn 0.9158 -0.1107 -0.3862
vn 0.8837 -0.4620 0.0749
vn 0.6933 0.0733 -0.7169
vn 0.2791 -0.9117 -0.3014
vn 1.0000 0.0037 -0.0003
vn 0.6914 -0.0991 0.7156
vn 0.6010 0.4511 0.6598
vn 0.8880 0.4531 -0.0780
vn 0.2582 0.9259 0.2757
vn 0.6556 -0.2399 -0.7160
vn 0.6557 -0.3138 0.6867
vn 0.5001 -0.1158 0.8582
vn 0.7005 0.1235 0.7029
vn 0.3137 0.8457 0.4318
vn 0.4167 0.8011 0.4297
vn 0.2390 0.9152 0.3245
vn 0.3780 0.4780 0.7928
vn 0.9998 -0.0186 -0.0001
vn 0.6237 0.1209 0.7722
vn 0.8054 -0.5880 -0.0747
vn 0.8236 -0.5460 -0.1534
vn 0.9752 0.0025 -0.2212
vn 0.9020 -0.3147 -0.2956
vn 0.9452 -0.0550 -0.3218
vn 0.8371 -0.3469 -0.4231
vn 0.8223 -0.0481 -0.5670
vn 0.8449 0.3180 -0.4302
vn 0.9625 -0.1470 -0.2279
vn 0.8210 0.5244 -0.2257
vn 0.8109 0.5807 0.0721
vn 0.2856 0.7731 0.5664
vn 0.0047 1.0000 -0.0000
vn 0.8940 -0.4470 0.0303
vn 0.7938 -0.0451 -0.6065
vn 0.4377 -0.8249 -0.3577
vn 0.9998 0.0071 -0.0211
vn 0.8043 -0.1941 0.5617
vn 0.6183 0.6364 0.4612
vn 0.9350 0.3443 -0.0846
vn 0.2559 0.9509 0.1738
vn 0.5417 0.7348 -0.4082
vn 0.7843 -0.2387 0.5726
vn 0.9874 -0.1569 -0.0185
vn 0.8231 0.1251 0.5539
vn 0.8402 -0.5362 -0.0813
vn 0.5308 -0.7339 -0.4237
vn 0.7977 -0.0763 -0.5981
vn 0.6062 0.6533 -0.4536
vn 0.8971 0.4408 0.0302
vn 0.4271 0.8536 0.2981
vn 0.9665 -0.2559 -0.0205
vn 0.9982 -0.0561 -0.0210
vn 0.9375 -0.0182 -0.3474
vn 0.1664 -0.9814 -0.0953
vn 0.9884 0.1507 -0.0206
vn 0.5684 0.7601 -0.3149
vn 0.9652 -0.2609 -0.0204
vn 0.4233 -0.8870 -0.1845
vn 0.8089 0.4890 -0.3264
vn 0.8806 -0.0948 -0.4642
vn -0.7766 -0.0404 0.6287
vn -0.1691 -0.3245 0.9307
vn -0.2058 0.9575 0.2021
vn -0.2471 0.0369 0.9683
vn -0.2787 0.3911 0.8771
vn -0.0848 0.9893 0.1184
vn -0.4526 -0.3867 0.8035
vn -0.4070 0.4404 0.8002
vn -0.4596 0.1511 0.8752
vn -0.7758 -0.0324 0.6302
vn -0.1141 -0.7043 0.7007
vn -0.0712 -0.9972 0.0217
vn -0.1821 0.0148 0.9832
vn -0.2509 0.3308 0.9097
vn -0.0860 0.9894 0.1168
vn -0.3872 0.4933 0.7790
vn -0.3986 0.2004 0.8950
vn -0.4087 -0.5719 0.7112
vn -0.7345 -0.0717 0.6748
vn -0.3953 -0.4532 0.7990
vn -0.4566 0.7818 0.4246
vn -0.4205 0.0315 0.9068
vn -0.3461 0.4878 0.8015
vn -0.2089 0.9499 0.2323
vn 0.1817 0.4498 0.8745
vn -0.1593 -0.4484 0.8795
vn 0.0192 -0.0260 0.9995
vn 0.4587 -0.0228 0.8883
vn 0.4289 0.4493 0.7837
vn 0.3801 -0.4863 0.7868
vn 0.7551 0.1274 0.6431
vn 0.1702 -0.9734 0.1534
vn 0.3320 -0.9053 0.2649
vn -0.3723 0.8466 0.3803
vn 0.0268 0.0478 0.9985
vn -0.0952 0.5860 0.8047
vn -0.7064 0.2066 0.6770
vn -0.7491 -0.0207 0.6621
vn 0.1160 -0.5886 0.8001
vn 0.3426 -0.8908 0.2986
vn 0.7237 -0.2503 0.6432
vn 0.7564 -0.2421 0.6076
vn -0.0537 -0.9986 0.0003
vn -0.0825 -0.9964 -0.0172
vn -0.0920 -0.9954 0.0269
vn -0.9870 -0.1594 0.0204
vn -0.9949 0.0985 0.0209
vn -0.9997 0.0130 0.0210
vn -0.9652 0.2606 0.0204
vn -0.9649 0.2619 0.0205
vn -0.9878 -0.1542 0.0206
vn -0.9997 0.0133 0.0210
vn -0.9655 0.2596 0.0205
vn -0.9655 0.2594 0.0205
vn -0.9949 0.0988 0.0209
vn -0.9884 -0.1507 0.0206
vn -0.9878 -0.1546 0.0205
vn -0.9482 0.0913 -0.3044
vn -0.7909 -0.1163 0.6007
vn -0.1747 -0.9805 -0.0899
vn -0.8491 0.0169 0.5280
vn -0.1499 0.9819 0.1158
vn -0.5572 0.7833 -0.2755
vn -0.0340 -0.9991 -0.0257
vn -0.8450 0.0155 0.5346
vn -0.0377 -0.9992 0.0165
vn -0.8658 0.0842 -0.4933
vn -0.8231 -0.0894 -0.5608
vn -0.1587 0.9798 0.1215
vn -0.8043 0.1938 -0.5617
vn -0.8939 0.4473 -0.0303
vn -0.9998 -0.0071 0.0211
vn -0.9347 -0.3452 0.0846
vn -0.7938 0.0455 0.6065
vn -0.4374 0.8252 0.3574
vn -0.6185 -0.6360 -0.4614
vn -0.5418 -0.7347 0.4082
vn -0.2559 -0.9510 -0.1737
vn -0.5311 0.7336 0.4239
vn -0.9874 0.1569 0.0185
vn -0.7978 0.0759 0.5982
vn -0.8402 0.5362 0.0813
vn -0.7842 0.2397 -0.5724
vn -0.8232 -0.1248 -0.5539
vn -0.4273 -0.8535 -0.2982
vn -0.8971 -0.4408 -0.0302
vn -0.6061 -0.6533 0.4536
vn -0.3430 0.8904 -0.2992
vn -0.8741 -0.1337 -0.4669
vn -0.7236 0.2507 -0.6430
vn -0.7553 0.2463 -0.6074
vn -0.2244 0.9633 -0.1470
vn -0.1838 0.9749 -0.1255
vn -0.2079 -0.0566 -0.9765
vn -0.7953 -0.0355 -0.6052
vn -0.1259 -0.6925 -0.7103
vn -0.0728 -0.9953 -0.0644
vn -0.2769 0.3860 -0.8799
vn -0.0901 0.9935 -0.0701
vn -0.4081 0.4552 -0.7913
vn -0.4248 -0.5519 -0.7177
vn -0.4090 0.2347 -0.8818
vn -0.1821 -0.4412 -0.8787
vn -0.7596 -0.1272 -0.6378
vn -0.3319 0.9054 -0.2648
vn -0.0192 0.0262 -0.9995
vn 0.7395 0.0718 -0.6693
vn 0.2088 -0.9500 -0.2323
vn 0.1594 0.4396 -0.8839
vn 0.4567 -0.7816 -0.4248
vn -0.1702 0.9734 -0.1533
vn 0.3730 -0.8458 -0.3814
vn 0.8631 0.0728 -0.4998
vn 0.7065 -0.2063 -0.6770
vn 0.2411 -0.9472 -0.2114
vn 0.7488 0.0132 -0.6627
vn 0.2968 -0.9228 -0.2458
vn 0.4778 -0.8333 -0.2780
vn -0.0268 -0.0480 -0.9985
vn 0.7712 -0.1964 -0.6056
vn 0.0957 -0.5857 -0.8048
vn -0.3177 -0.5034 -0.8035
vn -0.2484 0.0389 -0.9679
vn -0.1999 0.4578 -0.8663
vn -0.3761 0.0467 -0.9254
vn -0.4828 -0.2534 -0.8383
vn -0.5596 0.1759 -0.8099
vn -0.4299 0.3417 -0.8357
vn -0.3154 0.5641 -0.7631
vn -0.1119 0.5585 -0.8219
vn -0.1163 0.5889 -0.7998
vn 0.6693 -0.6545 -0.3517
vn 0.0537 0.9986 -0.0003
vn 0.0119 -0.3884 -0.9214
vn -0.6492 -0.0174 -0.7604
vn -0.4413 -0.7331 -0.5175
vn -0.0006 0.0226 -0.9997
vn 0.6485 -0.0373 -0.7603
vn 0.5625 -0.5201 -0.6427
vn -0.0139 0.3857 -0.9225
vn 0.3026 0.8914 -0.3374
vn -0.3802 0.8247 -0.4188
vn 0.5250 -0.5907 -0.6128
vn -0.0000 -0.0410 -0.9992
vn 0.6404 0.0428 -0.7668
vn -0.0092 -0.4869 -0.8734
vn -0.4777 -0.6723 -0.5656
vn -0.6414 0.0012 -0.7672
vn -0.4603 0.7208 -0.5182
vn 0.0074 0.4854 -0.8742
vn 0.4176 0.7754 -0.4737
vn 0.0006 -0.2036 -0.9791
vn -0.0003 -0.0010 -1.0000
vn -0.4801 0.0013 -0.8772
vn -0.1475 -0.9663 -0.2109
vn -0.0013 0.2084 -0.9780
vn -0.1908 0.9586 -0.2114
vn -0.0013 0.2036 -0.9791
vn -0.2731 -0.8371 -0.4741
vn -0.3190 0.8006 -0.5072
vn -0.6194 -0.0127 -0.7850
vn 0.7797 -0.0580 0.6234
vn 0.9203 -0.3430 0.1881
vn 0.5212 0.7385 0.4277
vn 0.9676 0.0249 0.2512
vn 0.8870 0.3725 0.2729
vn 0.1633 0.9774 0.1345
vn 0.7962 -0.4076 0.4472
vn 0.7909 0.4184 0.4466
vn 0.8696 0.0747 0.4880
vn 0.7808 -0.0520 0.6226
vn 0.7695 -0.6243 0.1350
vn 0.0475 -0.9987 0.0163
vn 0.9817 0.0156 0.1899
vn 0.8688 0.4308 0.2441
vn 0.1615 0.9774 0.1364
vn 0.7561 0.4936 0.4297
vn 0.9063 0.1088 0.4083
vn 0.7276 -0.5491 0.4112
vn 0.6986 -0.0731 0.7118
vn 0.7948 -0.4668 0.3878
vn 0.6560 0.2404 0.7155
vn 0.8979 0.0082 0.4402
vn 0.7916 0.4716 0.3884
vn 0.2793 0.9117 0.3012
vn 0.8801 0.4688 -0.0750
vn 0.8846 -0.4599 0.0773
vn 1.0000 -0.0036 -0.0002
vn 0.8976 0.0020 -0.4409
vn 0.7903 0.4740 -0.3884
vn 0.7961 -0.4635 -0.3891
vn 0.6959 0.0988 -0.7113
vn 0.2580 -0.9259 -0.2758
vn 0.6007 -0.4508 -0.6603
vn 0.4298 0.7851 0.4460
vn 0.9998 0.0184 -0.0004
vn 0.8055 0.5879 0.0742
vn 0.7012 0.1117 0.7042
vn 0.6390 -0.3873 0.6646
vn 0.8108 -0.5808 -0.0723
vn 0.4148 -0.8024 -0.4291
vn 0.7001 -0.1231 -0.7033
vn 0.6533 0.3195 -0.6863
vn 0.0047 -1.0000 -0.0000
vn -0.0153 -0.9997 0.0181
vn 0.0257 -0.9995 0.0189
vn 0.0012 -0.2130 0.9771
vn 0.0003 0.0085 1.0000
vn 0.0004 -0.0067 1.0000
vn -0.0008 0.2127 0.9771
vn -0.0006 0.2142 0.9768
vn 0.0013 -0.2034 0.9791
vn 0.0004 -0.0066 1.0000
vn -0.0006 0.2117 0.9773
vn -0.0007 0.2117 0.9773
vn 0.0003 0.0086 1.0000
vn 0.0013 -0.2036 0.9791
vn 0.0013 -0.2105 0.9776
vn -0.4795 0.0052 0.8775
vn 0.2899 -0.9264 0.2403
vn -0.1485 -0.9744 0.1688
vn 0.6821 0.0015 0.7313
vn 0.2070 0.9546 0.2144
vn -0.1887 0.9492 0.2519
vn -0.0211 -0.9998 0.0051
vn 0.6884 0.0005 0.7254
vn 0.0287 -0.9996 0.0058
vn -0.6892 0.0031 0.7246
vn -0.3207 0.8944 0.3117
vn 0.2259 0.9459 0.2330
vn -0.6485 0.0369 0.7603
vn -0.0119 0.3884 0.9214
vn 0.0006 -0.0226 0.9997
vn 0.0139 -0.3863 0.9223
vn 0.6492 0.0177 0.7604
vn 0.4408 0.7337 0.5170
vn -0.5624 0.5204 0.6426
vn 0.3802 -0.8246 0.4189
vn -0.3024 -0.8915 0.3373
vn 0.4780 0.6717 0.5660
vn -0.0000 0.0410 0.9992
vn 0.6414 -0.0015 0.7672
vn 0.0092 0.4869 0.8734
vn -0.5246 0.5913 0.6124
vn -0.6405 -0.0425 0.7668
vn -0.4177 -0.7752 0.4739
vn -0.0074 -0.4854 0.8742
vn 0.4603 -0.7208 0.5182
vn -0.4160 0.8015 0.4296
vn -0.4996 -0.1149 0.8586
vn -0.7000 0.1235 0.7034
vn -0.6549 -0.3154 0.6868
vn -0.3136 0.8454 0.4323
vn -0.2388 0.9151 0.3248
vn -0.9839 -0.0369 0.1749
vn -0.7797 -0.0595 0.6233
vn -0.7590 -0.6390 0.1251
vn -0.0472 -0.9988 0.0163
vn -0.8533 0.4663 0.2333
vn -0.1613 0.9774 0.1365
vn -0.7805 0.4681 0.4144
vn -0.7419 -0.5401 0.3974
vn -0.9155 0.1142 0.3859
vn -0.8838 -0.4618 0.0753
vn -0.6911 -0.0995 0.7159
vn -0.6005 0.4513 0.6600
vn -1.0000 0.0036 0.0001
vn -0.6936 0.0739 -0.7166
vn -0.2792 -0.9118 -0.3011
vn -0.8880 0.4533 -0.0776
vn -0.6560 -0.2400 -0.7156
vn -0.2580 0.9259 0.2758
vn -0.4315 -0.7837 -0.4468
vn -0.5027 0.0879 -0.8600
vn -0.7012 -0.1113 -0.7042
vn -0.2688 -0.8903 -0.3675
vn -0.6411 0.3818 -0.6657
vn -0.3633 -0.7859 -0.5004
vn -0.3056 -0.7323 -0.6086
vn -0.9998 -0.0185 0.0004
vn -0.6244 -0.1078 -0.7737
vn -0.8054 -0.5880 -0.0743
vn -0.8153 -0.5320 0.2285
vn -0.9752 -0.0031 0.2212
vn -0.9614 0.1619 0.2225
vn -0.9460 0.0348 0.3223
vn -0.8414 -0.3260 0.4310
vn -0.8220 0.0570 0.5666
vn -0.8404 0.3388 0.4230
vn -0.8927 0.3399 0.2960
vn -0.8292 0.5385 0.1498
vn -0.8109 0.5807 0.0724
vn -0.4032 -0.3687 -0.8375
vn -0.0047 1.0000 -0.0000
vt 0.000000 0.000000
vt -0.509521 1.452160
vt -0.491115 1.475610
vt -0.509521 1.481770
vt -0.491115 1.452160
vt -0.491115 1.428710
vt -0.509521 1.422550
vt -0.472708 1.452160
vt -0.472708 1.422550
vt -0.472708 1.481770
vt -0.509521 1.494460
vt -0.491115 1.502180
vt -0.509521 1.409860
vt -0.491115 1.402140
vt -0.472708 1.409860
vt -0.472708 1.494460
vt -0.509521 1.378710
vt -0.491115 1.378710
vt -0.491115 1.391780
vt -0.509521 1.401090
vt -0.472708 1.378710
vt -0.472708 1.401090
vt -0.509521 1.349270
vt -0.491115 1.349270
vt -0.472708 1.349270
vt -0.509521 1.326290
vt -0.491115 1.326290
vt -0.472708 1.326290
vt -0.509521 1.300540
vt -0.472708 1.300540
vt -0.491115 1.291220
vt -0.469341 1.401880
vt -0.457364 1.420290
vt -0.472701 1.420290
vt -0.454004 1.401880
vt -0.457364 1.383480
vt -0.472701 1.383480
vt -0.443681 1.420290
vt -0.443681 1.383480
vt -0.440321 1.401880
vt -0.444921 1.383480
vt -0.441562 1.401880
vt -0.444921 1.420290
vt -0.511533 1.401880
vt -0.504005 1.420290
vt -0.516895 1.420290
vt -0.501324 1.401880
vt -0.504005 1.383480
vt -0.516895 1.383480
vt -0.491115 1.383480
vt -0.491115 1.420290
vt -0.491115 1.401880
vt -0.480907 1.401880
vt -0.478225 1.383480
vt -0.478225 1.420290
vt -0.470697 1.401880
vt -0.465335 1.420290
vt -0.465335 1.383480
vt -0.454287 1.383480
vt -0.447567 1.401880
vt -0.454287 1.420290
vt -0.527944 1.420290
vt -0.534663 1.401880
vt -0.527944 1.383480
vt -0.454286 1.409860
vt -0.454657 1.452160
vt -0.465335 1.422550
vt -0.472701 1.401090
vt -0.478225 1.416410
vt -0.439032 1.452160
vt -0.454286 1.494460
vt -0.465335 1.481770
vt -0.491115 1.511980
vt -0.491115 1.494040
vt -0.516895 1.481770
vt -0.527943 1.494460
vt -0.543198 1.452160
vt -0.527573 1.452160
vt -0.516895 1.422550
vt -0.527943 1.409860
vt -0.509529 1.401090
vt -0.504005 1.416410
vt -0.491115 1.410280
vt -0.491115 1.392330
vt -0.509529 1.378710
vt -0.472701 1.378710
vt -0.509529 1.349270
vt -0.472701 1.349270
vt -0.509529 1.326290
vt -0.509529 1.300540
vt -0.524866 1.326290
vt -0.524866 1.300540
vt -0.537309 1.319070
vt -0.537309 1.306200
vt -0.491115 1.291780
vt -0.472701 1.300540
vt -0.472701 1.326290
vt -0.524866 1.378710
vt -0.524866 1.349270
vt -0.538549 1.371280
vt -0.538549 1.356700
vt -0.472708 1.356700
vt -0.491115 1.377370
vt -0.491115 1.348400
vt -0.509521 1.356700
vt -0.509521 1.371280
vt -0.472708 1.371280
vt -0.491115 1.301540
vt -0.509521 1.319070
vt -0.509521 1.306200
vt -0.491115 1.327320
vt -0.472708 1.319070
vt -0.472708 1.306200
vt -0.491115 1.384800
vt -0.491115 1.331770
vt -0.491115 1.343810
vt -0.527943 1.383480
vt -0.512889 1.401880
vt -0.527943 1.420290
vt -0.509529 1.420290
vt -0.509529 1.383480
vt -0.528226 1.401880
vt -0.524866 1.420290
vt -0.524866 1.383480
vt -0.538549 1.383480
vt -0.538549 1.420290
vt -0.541909 1.401880
vt -0.454286 1.420290
vt -0.454286 1.383480
vt -0.537309 1.420290
vt -0.540668 1.401880
vt -0.537309 1.383480
vt -0.527944 1.409860
vt -0.527944 1.494460
vt -0.454287 1.494460
vt -0.454287 1.409860
vt -0.457364 1.349270
vt -0.457364 1.378710
vt -0.443681 1.371280
vt -0.443681 1.356700
vt -0.457364 1.300540
vt -0.457364 1.326290
vt -0.444921 1.319070
vt -0.444921 1.306200
s 1
f 2/1/1 4/1/2 1/1/3
f 1/1/3 3/1/2 2/1/1
f 5/1/4 7/1/5 6/1/6
f 7/1/5 5/1/4 8/1/4
f 9/1/4 8/1/4 5/1/4
f 8/1/4 9/1/4 10/1/4
f 6/1/6 7/1/5 11/1/7
f 12/1/8 6/1/6 11/1/7
f 12/1/8 11/1/7 13/1/9
f 12/1/8 13/1/9 14/1/9
f 15/1/10 14/1/9 13/1/9
f 14/1/9 15/1/10 16/1/11
f 17/1/12 19/1/13 18/1/4
f 17/1/12 20/1/14 19/1/13
f 20/1/14 17/1/12 21/1/15
f 21/1/15 22/1/16 20/1/14
f 22/1/16 21/1/15 23/1/16
f 22/1/16 23/1/16 24/1/3
f 23/1/16 25/1/2 24/1/3
f 18/1/4 19/1/13 26/1/4
f 27/1/4 18/1/4 26/1/4
f 27/1/4 26/1/4 28/1/4
f 29/1/17 31/1/17 30/1/18
f 29/1/17 32/1/19 31/1/17
f 33/1/17 32/1/19 29/1/17
f 30/1/18 31/1/17 34/1/20
f 35/1/21 30/1/18 34/1/20
f 35/1/21 34/1/20 36/1/22
f 35/1/21 36/1/22 37/1/23
f 38/1/9 37/1/23 36/1/22
f 38/1/9 39/1/11 37/1/23
f 39/1/11 38/1/9 40/1/24
f 42/1/25 45/1/26 41/1/17
f 41/1/17 43/1/17 42/1/25
f 43/1/17 41/1/17 44/1/19
f 46/1/27 45/1/26 42/1/25
f 45/1/26 46/1/27 47/1/28
f 48/1/29 47/1/28 46/1/27
f 48/1/29 49/1/16 47/1/28
f 50/1/2 49/1/16 48/1/29
f 50/1/2 51/1/1 49/1/16
f 52/1/17 43/1/17 44/1/19
f 53/1/30 55/1/30 54/1/30
f 55/1/30 53/1/30 56/1/31
f 54/1/30 55/1/30 57/1/30
f 55/1/30 58/1/30 57/1/30
f 58/1/30 55/1/30 59/1/30
f 60/1/30 59/1/30 55/1/30
f 59/1/30 60/1/30 61/1/30
f 62/1/30 63/1/30 65/1/30
f 62/1/30 64/1/30 63/1/30
f 66/1/30 63/1/30 64/1/30
f 63/1/30 66/1/30 67/1/30
f 63/1/30 67/1/30 68/1/30
f 63/1/30 68/1/30 69/1/30
f 68/1/30 70/1/30 69/1/30
f 71/1/30 73/1/30 72/1/30
f 73/1/30 71/1/30 74/1/30
f 73/1/30 74/1/30 75/1/30
f 75/1/30 76/1/30 73/1/30
f 77/1/30 73/1/30 76/1/30
f 77/1/30 78/1/30 73/1/30
f 78/1/30 77/1/30 79/1/30
f 80/1/30 82/1/30 81/1/30
f 82/1/30 83/1/30 81/1/30
f 82/1/30 84/1/30 83/1/30
f 84/1/30 82/1/30 85/1/30
f 82/1/30 86/1/30 85/1/30
f 87/1/30 86/1/30 82/1/30
f 87/1/30 88/1/30 86/1/30
f 89/1/32 91/1/32 90/1/32
f 91/1/32 92/1/32 90/1/32
f 93/1/32 92/1/32 91/1/32
f 94/1/32 92/1/32 93/1/32
f 92/1/32 94/1/32 95/1/32
f 95/1/32 96/1/32 92/1/32
f 92/1/32 96/1/32 97/1/32
f 98/1/32 100/1/32 99/1/32
f 99/1/32 100/1/32 101/1/32
f 101/1/32 102/1/32 99/1/32
f 101/1/32 103/1/32 102/1/32
f 103/1/32 101/1/32 104/1/32
f 104/1/32 101/1/32 105/1/32
f 101/1/32 106/1/32 105/1/32
f 107/1/32 108/1/32 110/1/32
f 107/1/32 109/1/32 108/1/32
f 109/1/32 111/1/32 108/1/32
f 109/1/32 112/1/32 111/1/32
f 112/1/32 109/1/32 113/1/32
f 109/1/32 114/1/32 113/1/32
f 114/1/32 109/1/32 115/1/32
f 116/1/32 118/1/32 117/1/32
f 118/1/32 116/1/32 119/1/32
f 120/1/32 117/1/32 118/1/32
f 121/1/32 117/1/32 120/1/32
f 117/1/32 121/1/32 122/1/32
f 123/1/32 117/1/32 122/1/32
f 123/1/32 124/1/32 117/1/32
f 125/1/1 127/1/2 126/1/2
f 126/1/2 127/1/2 128/1/33
f 129/1/24 131/1/11 130/1/11
f 131/1/11 132/1/34 130/1/11
f 133/1/1 135/1/33 134/1/2
f 135/1/33 133/1/1 136/1/2
f 137/1/24 138/1/10 140/1/11
f 137/1/24 139/1/11 138/1/10
f 141/1/17 143/1/17 142/1/17
f 143/1/17 144/1/17 142/1/17
f 145/1/17 147/1/17 146/1/17
f 146/1/17 147/1/17 148/1/17
f 149/1/4 150/1/4 152/1/4
f 149/1/4 151/1/4 150/1/4
f 153/1/4 155/1/4 154/1/4
f 155/1/4 153/1/4 156/1/4
f 157/1/1 159/1/2 158/1/2
f 158/1/2 159/1/2 160/1/33
f 161/1/24 163/1/11 162/1/11
f 163/1/11 164/1/34 162/1/11
f 165/1/1 167/1/33 166/1/2
f 167/1/33 165/1/1 168/1/2
f 169/1/24 170/1/34 172/1/11
f 169/1/24 171/1/11 170/1/34
f 173/1/19 175/1/19 174/1/17
f 175/1/19 173/1/19 176/1/17
f 177/1/19 178/1/19 180/1/17
f 177/1/19 179/1/17 178/1/19
f 181/1/4 183/1/4 182/1/4
f 182/1/4 183/1/4 184/1/4
f 185/1/4 187/1/4 186/1/4
f 187/1/4 188/1/4 186/1/4
f 189/2/35 191/3/36 190/4/37
f 191/3/36 189/2/35 192/5/38
f 192/5/38 189/2/35 193/6/39
f 193/6/39 189/2/35 194/7/40
f 193/6/39 195/8/41 192/5/38
f 195/8/41 193/6/39 196/9/42
f 195/8/41 191/3/36 192/5/38
f 191/3/36 195/8/41 197/10/43
f 198/11/44 200/5/45 199/12/46
f 200/5/45 198/11/44 201/2/47
f 202/13/48 200/5/45 201/2/47
f 200/5/45 202/13/48 203/14/49
f 204/15/50 200/5/45 203/14/49
f 200/5/45 204/15/50 205/8/51
f 206/16/52 200/5/45 205/8/51
f 200/5/45 206/16/52 199/12/46
f 208/17/53 212/18/54 207/19/55
f 207/19/55 209/20/56 208/17/53
f 207/19/55 211/21/57 210/22/58
f 211/21/57 207/19/55 212/18/54
f 212/18/54 208/17/53 213/23/59
f 211/21/57 212/18/54 214/24/54
f 214/24/54 212/18/54 213/23/59
f 215/25/60 211/21/57 214/24/54
f 214/24/54 213/23/59 216/26/53
f 215/25/60 214/24/54 217/27/54
f 217/27/54 214/24/54 216/26/53
f 218/28/57 215/25/60 217/27/54
f 217/27/54 216/26/53 219/29/61
f 217/27/54 220/30/62 218/28/57
f 221/31/63 217/27/54 219/29/61
f 220/30/62 217/27/54 221/31/63
f 222/32/64 224/33/65 223/34/66
f 224/33/65 222/32/64 227/35/67
f 222/32/64 225/36/68 227/35/67
f 225/36/68 222/32/64 226/37/69
f 227/35/67 228/38/70 224/33/65
f 229/39/71 227/35/67 225/36/68
f 228/38/70 227/35/67 230/40/72
f 227/35/67 229/39/71 230/40/72
f 231/32/73 233/33/74 232/34/75
f 233/33/74 231/32/73 234/35/76
f 231/32/73 235/36/77 234/35/76
f 235/36/77 231/32/73 236/37/78
f 237/41/79 234/35/76 235/36/77
f 234/35/76 237/41/79 238/42/80
f 239/43/81 234/35/76 238/42/80
f 234/35/76 239/43/81 233/33/74
f 240/44/82 242/45/83 241/46/84
f 245/47/85 242/45/83 240/44/82
f 240/44/82 243/48/86 245/47/85
f 243/48/86 240/44/82 244/49/87
f 246/50/88 245/47/85 243/48/86
f 245/47/85 247/51/89 242/45/83
f 245/47/85 246/50/88 248/52/90
f 248/52/90 247/51/89 245/47/85
f 246/50/88 249/53/91 248/52/90
f 249/53/91 247/51/89 248/52/90
f 249/53/91 246/50/88 250/54/92
f 247/51/89 249/53/91 251/55/93
f 250/54/92 252/56/94 249/53/91
f 252/56/94 251/55/93 249/53/91
f 251/55/93 252/56/94 253/57/95
f 254/58/96 252/56/94 250/54/92
f 255/59/97 257/52/98 256/50/99
f 257/52/98 255/59/97 258/60/100
f 259/61/101 257/52/98 258/60/100
f 257/52/98 259/61/101 260/51/102
f 261/62/103 257/52/98 260/51/102
f 257/52/98 261/62/103 262/63/104
f 263/64/105 257/52/98 262/63/104
f 257/52/98 263/64/105 256/50/99
f 265/65/106 268/66/106 264/67/106
f 264/67/106 266/68/106 265/65/106
f 266/68/106 264/67/106 267/69/106
f 265/65/106 269/70/106 268/66/106
f 270/71/106 268/66/106 269/70/106
f 268/66/106 270/71/106 271/72/106
f 272/73/106 271/72/106 270/71/106
f 271/72/106 272/73/106 273/74/106
f 274/75/106 273/74/106 272/73/106
f 272/73/106 275/76/106 274/75/106
f 276/77/106 274/75/106 275/76/106
f 274/75/106 276/77/106 277/78/106
f 276/77/106 278/79/106 277/78/106
f 276/77/106 279/80/106 278/79/106
f 280/81/106 278/79/106 279/80/106
f 278/79/106 280/81/106 281/82/106
f 281/82/106 280/81/106 282/83/106
f 280/81/106 283/84/106 282/83/106
f 266/68/106 282/83/106 283/84/106
f 282/83/106 266/68/106 267/69/106
f 284/85/106 283/84/106 280/81/106
f 284/85/106 286/18/106 283/84/106
f 283/84/106 285/86/106 266/68/106
f 285/86/106 283/84/106 286/18/106
f 287/87/107 286/18/106 284/85/106
f 288/24/106 285/86/106 286/18/106
f 287/87/107 288/24/106 286/18/106
f 288/24/106 289/88/106 285/86/106
f 291/89/108 288/24/106 287/87/107
f 290/27/106 289/88/106 288/24/106
f 291/89/108 290/27/106 288/24/106
f 292/90/106 290/27/106 291/89/108
f 292/90/106 291/89/108 293/91/106
f 294/92/106 292/90/106 293/91/106
f 294/92/106 293/91/106 295/93/106
f 296/94/106 294/92/106 295/93/106
f 292/90/106 297/95/106 290/27/106
f 298/96/106 290/27/106 297/95/106
f 290/27/106 298/96/106 299/97/106
f 290/27/106 299/97/106 289/88/106
f 287/87/107 284/85/106 300/98/106
f 301/99/106 287/87/107 300/98/106
f 301/99/106 300/98/106 302/100/106
f 303/101/106 301/99/106 302/100/106
f 308/102/109 304/103/110 305/104/111
f 304/103/110 306/105/112 305/104/111
f 306/105/112 304/103/110 307/106/113
f 304/103/110 308/102/109 309/107/114
f 310/108/115 312/109/116 311/110/117
f 312/109/116 310/108/115 313/111/118
f 310/108/115 314/112/119 313/111/118
f 314/112/119 310/108/115 315/113/120
f 316/19/121 318/21/122 317/22/123
f 318/21/122 316/19/121 321/114/124
f 316/19/121 319/17/125 321/114/124
f 319/17/125 316/19/121 320/20/126
f 322/25/127 324/115/128 323/28/129
f 324/115/128 322/25/127 325/116/130
f 326/23/131 324/115/128 325/116/130
f 324/115/128 326/23/131 327/26/132
f 329/3/133 332/2/134 328/5/135
f 328/5/135 330/8/136 329/3/133
f 331/6/137 330/8/136 328/5/135
f 332/2/134 331/6/137 328/5/135
f 333/7/138 331/6/137 332/2/134
f 332/2/134 329/3/133 334/4/139
f 330/8/136 331/6/137 335/9/140
f 329/3/133 330/8/136 336/10/141
f 337/11/142 339/5/143 338/12/144
f 339/5/143 337/11/142 340/2/145
f 341/13/146 339/5/143 340/2/145
f 339/5/143 341/13/146 342/14/147
f 343/15/148 339/5/143 342/14/147
f 339/5/143 343/15/148 344/8/149
f 345/16/150 339/5/143 344/8/149
f 339/5/143 345/16/150 338/12/144
f 350/117/151 346/118/152 347/63/153
f 346/118/152 348/119/154 347/63/153
f 348/119/154 346/118/152 349/120/155
f 346/118/152 350/117/151 351/121/156
f 357/122/157 352/118/158 353/123/159
f 352/118/158 354/120/160 353/123/159
f 352/118/158 356/124/161 355/121/162
f 356/124/161 352/118/158 357/122/157
f 357/122/157 358/125/163 356/124/161
f 357/122/157 353/123/159 359/126/164
f 358/125/163 357/122/157 360/127/165
f 359/126/164 360/127/165 357/122/157
f 361/51/166 363/56/167 362/57/168
f 363/56/167 361/51/166 364/52/169
f 364/52/169 361/51/166 365/44/170
f 365/44/170 361/51/166 366/46/171
f 365/44/170 367/50/172 364/52/169
f 367/50/172 365/44/170 368/49/173
f 369/58/174 363/56/167 367/50/172
f 367/50/172 363/56/167 364/52/169
f 370/128/175 372/32/176 371/60/177
f 372/32/176 370/128/175 373/34/178
f 372/32/176 374/129/179 371/60/177
f 374/129/179 372/32/176 375/37/180
f 376/34/181 378/52/182 377/32/183
f 378/52/182 376/34/181 379/51/184
f 380/120/185 378/52/182 379/51/184
f 378/52/182 380/120/185 381/118/186
f 381/118/186 380/120/185 382/123/187
f 383/122/188 381/118/186 382/123/187
f 383/122/188 382/123/187 384/130/189
f 384/130/189 385/131/190 383/122/188
f 386/132/191 383/122/188 385/131/190
f 383/122/188 386/132/191 387/124/192
f 387/124/192 381/118/186 383/122/188
f 381/118/186 387/124/192 388/121/193
f 388/121/193 378/52/182 381/118/186
f 378/52/182 388/121/193 389/50/194
f 390/37/195 378/52/182 389/50/194
f 378/52/182 390/37/195 377/32/183
f 396/88/196 391/27/196 392/97/196
f 391/27/196 393/96/196 392/97/196
f 393/96/196 391/27/196 394/95/196
f 394/95/196 391/27/196 395/90/196
f 397/89/196 395/90/196 391/27/196
f 391/27/196 396/88/196 398/24/196
f 398/24/196 397/89/196 391/27/196
f 399/87/196 397/89/196 398/24/196
f 400/86/196 398/24/196 396/88/196
f 401/18/196 399/87/196 398/24/196
f 398/24/196 400/86/196 401/18/196
f 402/85/196 399/87/196 401/18/196
f 400/86/196 403/84/196 401/18/196
f 403/84/196 402/85/196 401/18/196
f 405/81/196 402/85/196 403/84/196
f 403/84/196 400/86/196 404/68/196
f 404/68/196 406/83/196 403/84/196
f 406/83/196 405/81/196 403/84/196
f 406/83/196 404/68/196 407/69/196
f 405/81/196 406/83/196 408/82/196
f 409/79/196 405/81/196 408/82/196
f 405/81/196 409/79/196 410/133/196
f 411/78/196 410/133/196 409/79/196
f 410/133/196 411/78/196 412/77/196
f 413/134/196 412/77/196 411/78/196
f 413/134/196 411/78/196 414/75/196
f 414/75/196 415/73/196 413/134/196
f 415/73/196 414/75/196 416/74/196
f 417/72/196 415/73/196 416/74/196
f 418/70/196 420/135/196 417/72/196
f 418/70/196 417/72/196 419/66/196
f 415/73/196 417/72/196 420/135/196
f 421/67/196 418/70/196 419/66/196
f 407/69/196 404/68/196 421/67/196
f 404/68/196 422/136/196 421/67/196
f 418/70/196 421/67/196 422/136/196
f 400/86/196 396/88/196 423/137/196
f 424/138/196 400/86/196 423/137/196
f 423/137/196 425/139/196 424/138/196
f 425/139/196 423/137/196 426/140/196
f 392/97/196 393/96/196 427/141/196
f 428/142/196 392/97/196 427/141/196
f 427/141/196 429/143/196 428/142/196
f 429/143/196 427/141/196 430/144/196
f 431/2/197 433/3/198 432/4/199
f 433/3/198 431/2/197 434/5/200
f 434/5/200 431/2/197 435/6/201
f 435/6/201 431/2/197 436/7/202
f 435/6/201 437/8/203 434/5/200
f 437/8/203 435/6/201 438/9/204
f 437/8/203 433/3/198 434/5/200
f 433/3/198 437/8/203 439/10/205
f 440/11/206 442/5/207 441/12/208
f 442/5/207 440/11/206 443/2/209
f 444/13/210 442/5/207 443/2/209
f 442/5/207 444/13/210 445/14/211
f 446/15/212 442/5/207 445/14/211
f 442/5/207 446/15/212 447/8/213
f 448/16/214 442/5/207 447/8/213
f 442/5/207 448/16/214 441/12/208
f 450/17/215 454/18/216 449/19/217
f 449/19/217 451/20/218 450/17/215
f 449/19/217 453/21/219 452/22/220
f 453/21/219 449/19/217 454/18/216
f 454/18/216 450/17/215 455/23/221
f 453/21/219 454/18/216 456/24/216
f 456/24/216 454/18/216 455/23/221
f 457/25/222 453/21/219 456/24/216
f 456/24/216 455/23/221 458/26/221
f 457/25/222 456/24/216 459/27/216
f 459/27/216 456/24/216 458/26/221
f 460/28/223 457/25/222 459/27/216
f 459/27/216 458/26/221 461/29/224
f 459/27/216 462/30/225 460/28/223
f 463/31/226 459/27/216 461/29/224
f 462/30/225 459/27/216 463/31/226
f 464/32/227 466/33/228 465/34/229
f 466/33/228 464/32/227 469/35/230
f 464/32/227 467/36/231 469/35/230
f 467/36/231 464/32/227 468/37/232
f 469/35/230 470/38/233 466/33/228
f 471/39/234 469/35/230 467/36/231
f 470/38/233 469/35/230 472/40/235
f 469/35/230 471/39/234 472/40/235
f 473/32/236 475/33/237 474/34/238
f 475/33/237 473/32/236 476/35/239
f 473/32/236 477/36/240 476/35/239
f 477/36/240 473/32/236 478/37/241
f 479/41/242 476/35/239 477/36/240
f 476/35/239 479/41/242 480/42/243
f 481/43/244 476/35/239 480/42/243
f 476/35/239 481/43/244 475/33/237
f 482/44/245 484/45/246 483/46/247
f 487/47/248 484/45/246 482/44/245
f 482/44/245 485/48/249 487/47/248
f 485/48/249 482/44/245 486/49/250
f 488/50/251 487/47/248 485/48/249
f 487/47/248 489/51/252 484/45/246
f 487/47/248 488/50/251 490/52/253
f 490/52/253 489/51/252 487/47/248
f 488/50/251 491/53/254 490/52/253
f 491/53/254 489/51/252 490/52/253
f 491/53/254 488/50/251 492/54/255
f 489/51/252 491/53/254 493/55/256
f 492/54/255 494/56/257 491/53/254
f 494/56/257 493/55/256 491/53/254
f 493/55/256 494/56/257 495/57/258
f 496/58/259 494/56/257 492/54/255
f 497/59/260 499/52/261 498/50/262
f 499/52/261 497/59/260 500/60/263
f 501/61/264 499/52/261 500/60/263
f 499/52/261 501/61/264 502/51/265
f 503/62/266 499/52/261 502/51/265
f 499/52/261 503/62/266 504/63/267
f 505/64/268 499/52/261 504/63/267
f 499/52/261 505/64/268 498/50/262
f 507/65/269 510/66/269 506/67/269
f 506/67/269 508/68/269 507/65/269
f 508/68/269 506/67/269 509/69/269
f 507/65/269 511/70/269 510/66/269
f 512/71/269 510/66/269 511/70/269
f 510/66/269 512/71/269 513/72/269
f 514/73/269 513/72/269 512/71/269
f 513/72/269 514/73/269 515/74/269
f 516/75/269 515/74/269 514/73/269
f 514/73/269 517/76/269 516/75/269
f 518/77/269 516/75/269 517/76/269
f 516/75/269 518/77/269 519/78/269
f 518/77/269 520/79/269 519/78/269
f 518/77/269 521/80/269 520/79/269
f 522/81/269 520/79/269 521/80/269
f 520/79/269 522/81/269 523/82/269
f 523/82/269 522/81/269 524/83/269
f 522/81/269 525/84/269 524/83/269
f 508/68/269 524/83/269 525/84/269
f 524/83/269 508/68/269 509/69/269
f 526/85/269 525/84/269 522/81/269
f 526/85/269 528/18/269 525/84/269
f 525/84/269 527/86/269 508/68/269
f 527/86/269 525/84/269 528/18/269
f 529/87/270 528/18/269 526/85/269
f 530/24/269 527/86/269 528/18/269
f 529/87/270 530/24/269 528/18/269
f 530/24/269 531/88/269 527/86/269
f 533/89/271 530/24/269 529/87/270
f 532/27/269 531/88/269 530/24/269
f 533/89/271 532/27/269 530/24/269
f 534/90/269 532/27/269 533/89/271
f 534/90/269 533/89/271 535/91/269
f 536/92/269 534/90/269 535/91/269
f 536/92/269 535/91/269 537/93/269
f 538/94/269 536/92/269 537/93/269
f 534/90/269 539/95/269 532/27/269
f 540/96/269 532/27/269 539/95/269
f 532/27/269 540/96/269 541/97/269
f 532/27/269 541/97/269 531/88/269
f 529/87/270 526/85/269 542/98/269
f 543/99/269 529/87/270 542/98/269
f 543/99/269 542/98/269 544/100/269
f 545/101/269 543/99/269 544/100/269
f 550/102/272 546/103/273 547/104/274
f 546/103/273 548/105/275 547/104/274
f 548/105/275 546/103/273 549/106/276
f 546/103/273 550/102/272 551/107/277
f 552/108/278 554/109/279 553/110/279
f 554/109/279 552/108/278 555/111/280
f 552/108/278 556/112/281 555/111/280
f 556/112/281 552/108/278 557/113/282
f 558/19/283 560/21/284 559/22/285
f 560/21/284 558/19/283 563/114/286
f 558/19/283 561/17/287 563/114/286
f 561/17/287 558/19/283 562/20/288
f 564/25/289 566/115/290 565/28/291
f 566/115/290 564/25/289 567/116/292
f 568/23/293 566/115/290 567/116/292
f 566/115/290 568/23/293 569/26/294
f 571/3/295 574/2/296 570/5/297
f 570/5/297 572/8/298 571/3/295
f 573/6/299 572/8/298 570/5/297
f 574/2/296 573/6/299 570/5/297
f 575/7/300 573/6/299 574/2/296
f 574/2/296 571/3/295 576/4/301
f 572/8/298 573/6/299 577/9/302
f 571/3/295 572/8/298 578/10/303
f 579/11/304 581/5/305 580/12/306
f 581/5/305 579/11/304 582/2/307
f 583/13/308 581/5/305 582/2/307
f 581/5/305 583/13/308 584/14/309
f 585/15/310 581/5/305 584/14/309
f 581/5/305 585/15/310 586/8/311
f 587/16/312 581/5/305 586/8/311
f 581/5/305 587/16/312 580/12/306
f 592/117/313 588/118/314 589/63/315
f 588/118/314 590/119/316 589/63/315
f 590/119/316 588/118/314 591/120/317
f 588/118/314 592/117/313 593/121/318
f 599/122/319 594/118/320 595/123/321
f 594/118/320 596/120/322 595/123/321
f 594/118/320 598/124/323 597/121/324
f 598/124/323 594/118/320 599/122/319
f 599/122/319 600/125/325 598/124/323
f 599/122/319 595/123/321 601/126/326
f 600/125/325 599/122/319 602/127/327
f 601/126/326 602/127/327 599/122/319
f 603/51/328 605/56/329 604/57/330
f 605/56/329 603/51/328 606/52/331
f 606/52/331 603/51/328 607/44/332
f 607/44/332 603/51/328 608/46/333
f 607/44/332 609/50/334 606/52/331
f 609/50/334 607/44/332 610/49/335
f 611/58/336 605/56/329 609/50/334
f 609/50/334 605/56/329 606/52/331
f 612/128/337 614/32/338 613/60/339
f 614/32/338 612/128/337 615/34/340
f 614/32/338 616/129/341 613/60/339
f 616/129/341 614/32/338 617/37/342
f 618/34/343 620/52/344 619/32/345
f 620/52/344 618/34/343 621/51/346
f 622/120/347 620/52/344 621/51/346
f 620/52/344 622/120/347 623/118/348
f 623/118/348 622/120/347 624/123/349
f 625/122/350 623/118/348 624/123/349
f 625/122/350 624/123/349 626/130/351
f 626/130/351 627/131/352 625/122/350
f 628/132/353 625/122/350 627/131/352
f 625/122/350 628/132/353 629/124/354
f 629/124/354 623/118/348 625/122/350
f 623/118/348 629/124/354 630/121/355
f 630/121/355 620/52/344 623/118/348
f 620/52/344 630/121/355 631/50/356
f 632/37/357 620/52/344 631/50/356
f 620/52/344 632/37/357 619/32/345
f 638/88/358 633/27/358 634/97/358
f 633/27/358 635/96/358 634/97/358
f 635/96/358 633/27/358 636/95/358
f 636/95/358 633/27/358 637/90/358
f 639/89/358 637/90/358 633/27/358
f 633/27/358 638/88/358 640/24/358
f 640/24/358 639/89/358 633/27/358
f 641/87/358 639/89/358 640/24/358
f 642/86/358 640/24/358 638/88/358
f 643/18/358 641/87/358 640/24/358
f 640/24/358 642/86/358 643/18/358
f 644/85/358 641/87/358 643/18/358
f 642/86/358 645/84/358 643/18/358
f 645/84/358 644/85/358 643/18/358
f 647/81/358 644/85/358 645/84/358
f 645/84/358 642/86/358 646/68/358
f 646/68/358 648/83/358 645/84/358
f 648/83/358 647/81/358 645/84/358
f 648/83/358 646/68/358 649/69/358
f 647/81/358 648/83/358 650/82/358
f 651/79/358 647/81/358 650/82/358
f 647/81/358 651/79/358 652/133/358
f 653/78/358 652/133/358 651/79/358
f 652/133/358 653/78/358 654/77/358
f 655/134/358 654/77/358 653/78/358
f 655/134/358 653/78/358 656/75/358
f 656/75/358 657/73/358 655/134/358
f 657/73/358 656/75/358 658/74/358
f 659/72/358 657/73/358 658/74/358
f 660/70/358 662/135/358 659/72/358
f 660/70/358 659/72/358 661/66/358
f 657/73/358 659/72/358 662/135/358
f 663/67/358 660/70/358 661/66/358
f 649/69/358 646/68/358 663/67/358
f 646/68/358 664/136/358 663/67/358
f 660/70/358 663/67/358 664/136/358
f 642/86/358 638/88/358 665/137/358
f 666/138/358 642/86/358 665/137/358
f 665/137/358 667/139/358 666/138/358
f 667/139/358 665/137/358 668/140/358
f 634/97/358 635/96/358 669/141/358
f 670/142/358 634/97/358 669/141/358
f 669/141/358 671/143/358 670/142/358
f 671/143/358 669/141/358 672/144/358
f 673/2/359 675/3/360 674/4/361
f 675/3/360 673/2/359 676/5/362
f 676/5/362 673/2/359 677/6/363
f 677/6/363 673/2/359 678/7/364
f 677/6/363 679/8/365 676/5/362
f 679/8/365 677/6/363 680/9/366
f 679/8/365 675/3/360 676/5/362
f 675/3/360 679/8/365 681/10/367
f 682/11/368 684/5/369 683/12/370
f 684/5/369 682/11/368 685/2/371
f 686/13/372 684/5/369 685/2/371
f 684/5/369 686/13/372 687/14/373
f 688/15/374 684/5/369 687/14/373
f 684/5/369 688/15/374 689/8/375
f 690/16/376 684/5/369 689/8/375
f 684/5/369 690/16/376 683/12/370
f 692/17/377 696/18/378 691/19/379
f 691/19/379 693/20/380 692/17/377
f 691/19/379 695/21/381 694/22/382
f 695/21/381 691/19/379 696/18/378
f 696/18/378 692/17/377 697/23/383
f 695/21/381 696/18/378 698/24/378
f 698/24/378 696/18/378 697/23/383
f 699/25/381 695/21/381 698/24/378
f 698/24/378 697/23/383 700/26/377
f 699/25/381 698/24/378 701/27/378
f 701/27/378 698/24/378 700/26/377
f 702/28/381 699/25/381 701/27/378
f 701/27/378 700/26/377 703/29/384
f 701/27/378 704/30/385 702/28/381
f 705/31/386 701/27/378 703/29/384
f 704/30/385 701/27/378 705/31/386
f 706/32/387 708/33/388 707/34/389
f 708/33/388 706/32/387 711/35/390
f 706/32/387 709/36/391 711/35/390
f 709/36/391 706/32/387 710/37/392
f 711/35/390 712/38/393 708/33/388
f 713/39/394 711/35/390 709/36/391
f 712/38/393 711/35/390 714/40/395
f 711/35/390 713/39/394 714/40/395
f 715/32/396 717/33/397 716/34/398
f 717/33/397 715/32/396 718/35/399
f 715/32/396 719/36/400 718/35/399
f 719/36/400 715/32/396 720/37/401
f 721/41/402 718/35/399 719/36/400
f 718/35/399 721/41/402 722/42/403
f 723/43/404 718/35/399 722/42/403
f 718/35/399 723/43/404 717/33/397
f 724/44/405 726/45/406 725/46/407
f 729/47/408 726/45/406 724/44/405
f 724/44/405 727/48/409 729/47/408
f 727/48/409 724/44/405 728/49/410
f 730/50/411 729/47/408 727/48/409
f 729/47/408 731/51/412 726/45/406
f 729/47/408 730/50/411 732/52/413
f 732/52/413 731/51/412 729/47/408
f 730/50/411 733/53/414 732/52/413
f 733/53/414 731/51/412 732/52/413
f 733/53/414 730/50/411 734/54/415
f 731/51/412 733/53/414 735/55/416
f 734/54/415 736/56/417 733/53/414
f 736/56/417 735/55/416 733/53/414
f 735/55/416 736/56/417 737/57/418
f 738/58/419 736/56/417 734/54/415
f 739/59/420 741/52/421 740/50/422
f 741/52/421 739/59/420 742/60/423
f 743/61/424 741/52/421 742/60/423
f 741/52/421 743/61/424 744/51/425
f 745/62/426 741/52/421 744/51/425
f 741/52/421 745/62/426 746/63/427
f 747/64/428 741/52/421 746/63/427
f 741/52/421 747/64/428 740/50/422
f 749/65/429 752/66/429 748/67/429
f 748/67/429 750/68/429 749/65/429
f 750/68/429 748/67/429 751/69/429
f 749/65/429 753/70/429 752/66/429
f 754/71/429 752/66/429 753/70/429
f 752/66/429 754/71/429 755/72/429
f 756/73/429 755/72/429 754/71/429
f 755/72/429 756/73/429 757/74/429
f 758/75/429 757/74/429 756/73/429
f 756/73/429 759/76/429 758/75/429
f 760/77/429 758/75/429 759/76/429
f 758/75/429 760/77/429 761/78/429
f 760/77/429 762/79/429 761/78/429
f 760/77/429 763/80/429 762/79/429
f 764/81/429 762/79/429 763/80/429
f 762/79/429 764/81/429 765/82/429
f 765/82/429 764/81/429 766/83/429
f 764/81/429 767/84/429 766/83/429
f 750/68/429 766/83/429 767/84/429
f 766/83/429 750/68/429 751/69/429
f 768/85/429 767/84/429 764/81/429
f 768/85/429 770/18/429 767/84/429
f 767/84/429 769/86/429 750/68/429
f 769/86/429 767/84/429 770/18/429
f 771/87/430 770/18/429 768/85/429
f 772/24/429 769/86/429 770/18/429
f 771/87/430 772/24/429 770/18/429
f 772/24/429 773/88/429 769/86/429
f 775/89/431 772/24/429 771/87/430
f 774/27/429 773/88/429 772/24/429
f 775/89/431 774/27/429 772/24/429
f 776/90/429 774/27/429 775/89/431
f 776/90/429 775/89/431 777/91/429
f 778/92/429 776/90/429 777/91/429
f 778/92/429 777/91/429 779/93/429
f 780/94/429 778/92/429 779/93/429
f 776/90/429 781/95/429 774/27/429
f 782/96/429 774/27/429 781/95/429
f 774/27/429 782/96/429 783/97/429
f 774/27/429 783/97/429 773/88/429
f 771/87/430 768/85/429 784/98/429
f 785/99/429 771/87/430 784/98/429
f 785/99/429 784/98/429 786/100/429
f 787/101/429 785/99/429 786/100/429
f 792/102/432 788/103/433 789/104/434
f 788/103/433 790/105/435 789/104/434
f 790/105/435 788/103/433 791/106/436
f 788/103/433 792/102/432 793/107/437
f 794/108/438 796/109/439 795/110/440
f 796/109/439 794/108/438 797/111/441
f 794/108/438 798/112/442 797/111/441
f 798/112/442 794/108/438 799/113/443
f 800/19/444 802/21/445 801/22/446
f 802/21/445 800/19/444 805/114/447
f 800/19/444 803/17/448 805/114/447
f 803/17/448 800/19/444 804/20/449
f 806/25/450 808/115/451 807/28/452
f 808/115/451 806/25/450 809/116/453
f 810/23/454 808/115/451 809/116/453
f 808/115/451 810/23/454 811/26/455
f 813/3/456 816/2/457 812/5/458
f 812/5/458 814/8/459 813/3/456
f 815/6/460 814/8/459 812/5/458
f 816/2/457 815/6/460 812/5/458
f 817/7/461 815/6/460 816/2/457
f 816/2/457 813/3/456 818/4/462
f 814/8/459 815/6/460 819/9/463
f 813/3/456 814/8/459 820/10/464
f 821/11/465 823/5/466 822/12/467
f 823/5/466 821/11/465 824/2/468
f 825/13/469 823/5/466 824/2/468
f 823/5/466 825/13/469 826/14/470
f 827/15/471 823/5/466 826/14/470
f 823/5/466 827/15/471 828/8/472
f 829/16/473 823/5/466 828/8/472
f 823/5/466 829/16/473 822/12/467
f 834/117/474 830/118/475 831/63/476
f 830/118/475 832/119/477 831/63/476
f 832/119/477 830/118/475 833/120/478
f 830/118/475 834/117/474 835/121/479
f 841/122/480 836/118/481 837/123/482
f 836/118/481 838/120/483 837/123/482
f 836/118/481 840/124/484 839/121/485
f 840/124/484 836/118/481 841/122/480
f 841/122/480 842/125/486 840/124/484
f 841/122/480 837/123/482 843/126/487
f 842/125/486 841/122/480 844/127/488
f 843/126/487 844/127/488 841/122/480
f 845/51/489 847/56/490 846/57/491
f 847/56/490 845/51/489 848/52/492
f 848/52/492 845/51/489 849/44/493
f 849/44/493 845/51/489 850/46/494
f 849/44/493 851/50/495 848/52/492
f 851/50/495 849/44/493 852/49/496
f 853/58/497 847/56/490 851/50/495
f 851/50/495 847/56/490 848/52/492
f 854/128/498 856/32/499 855/60/500
f 856/32/499 854/128/498 857/34/501
f 856/32/499 858/129/502 855/60/500
f 858/129/502 856/32/499 859/37/503
f 860/34/504 862/52/505 861/32/506
f 862/52/505 860/34/504 863/51/507
f 864/120/508 862/52/505 863/51/507
f 862/52/505 864/120/508 865/118/509
f 865/118/509 864/120/508 866/123/510
f 867/122/511 865/118/509 866/123/510
f 867/122/511 866/123/510 868/130/512
f 868/130/512 869/131/513 867/122/511
f 870/132/514 867/122/511 869/131/513
f 867/122/511 870/132/514 871/124/515
f 871/124/515 865/118/509 867/122/511
f 865/118/509 871/124/515 872/121/516
f 872/121/516 862/52/505 865/118/509
f 862/52/505 872/121/516 873/50/517
f 874/37/518 862/52/505 873/50/517
f 862/52/505 874/37/518 861/32/506
f 880/88/519 875/27/519 876/97/519
f 875/27/519 877/96/519 876/97/519
f 877/96/519 875/27/519 878/95/519
f 878/95/519 875/27/519 879/90/519
f 881/89/519 879/90/519 875/27/519
f 875/27/519 880/88/519 882/24/519
f 882/24/519 881/89/519 875/27/519
f 883/87/519 881/89/519 882/24/519
f 884/86/519 882/24/519 880/88/519
f 885/18/519 883/87/519 882/24/519
f 882/24/519 884/86/519 885/18/519
f 886/85/519 883/87/519 885/18/519
f 884/86/519 887/84/519 885/18/519
f 887/84/519 886/85/519 885/18/519
f 889/81/519 886/85/519 887/84/519
f 887/84/519 884/86/519 888/68/519
f 888/68/519 890/83/519 887/84/519
f 890/83/519 889/81/519 887/84/519
f 890/83/519 888/68/519 891/69/519
f 889/81/519 890/83/519 892/82/519
f 893/79/519 889/81/519 892/82/519
f 889/81/519 893/79/519 894/133/519
f 895/78/519 894/133/519 893/79/519
f 894/133/519 895/78/519 896/77/519
f 897/134/519 896/77/519 895/78/519
f 897/134/519 895/78/519 898/75/519
f 898/75/519 899/73/519 897/134/519
f 899/73/519 898/75/519 900/74/519
f 901/72/519 899/73/519 900/74/519
f 902/70/519 904/135/519 901/72/519
f 902/70/519 901/72/519 903/66/519
f 899/73/519 901/72/519 904/135/519
f 905/67/519 902/70/519 903/66/519
f 891/69/519 888/68/519 905/67/519
f 888/68/519 906/136/519 905/67/519
f 902/70/519 905/67/519 906/136/519
f 884/86/519 880/88/519 907/137/519
f 908/138/519 884/86/519 907/137/519
f 907/137/519 909/139/519 908/138/519
f 909/139/519 907/137/519 910/140/519
f 876/97/519 877/96/519 911/141/519
f 912/142/519 876/97/519 911/141/519
f 911/141/519 913/143/519 912/142/519
f 913/143/519 911/141/519 914/144/519
f 915/2/520 917/3/521 916/4/522
f 917/3/521 915/2/520 918/5/523
f 918/5/523 915/2/520 919/6/524
f 919/6/524 915/2/520 920/7/525
f 919/6/524 921/8/526 918/5/523
f 921/8/526 919/6/524 922/9/527
f 921/8/526 917/3/521 918/5/523
f 917/3/521 921/8/526 923/10/528
f 924/11/529 926/5/530 925/12/531
f 926/5/530 924/11/529 927/2/532
f 928/13/533 926/5/530 927/2/532
f 926/5/530 928/13/533 929/14/534
f 930/15/535 926/5/530 929/14/534
f 926/5/530 930/15/535 931/8/536
f 932/16/537 926/5/530 931/8/536
f 926/5/530 932/16/537 925/12/531
f 934/17/538 938/18/539 933/19/540
f 933/19/540 935/20/541 934/17/538
f 933/19/540 937/21/542 936/22/543
f 937/21/542 933/19/540 938/18/539
f 938/18/539 934/17/538 939/23/538
f 937/21/542 938/18/539 940/24/539
f 940/24/539 938/18/539 939/23/538
f 941/25/544 937/21/542 940/24/539
f 940/24/539 939/23/538 942/26/538
f 941/25/544 940/24/539 943/27/539
f 943/27/539 940/24/539 942/26/538
f 944/28/544 941/25/544 943/27/539
f 943/27/539 942/26/538 945/29/545
f 943/27/539 946/30/546 944/28/544
f 947/31/547 943/27/539 945/29/545
f 946/30/546 943/27/539 947/31/547
f 948/32/548 950/33/549 949/34/550
f 950/33/549 948/32/548 953/35/551
f 948/32/548 951/36/552 953/35/551
f 951/36/552 948/32/548 952/37/553
f 953/35/551 954/38/554 950/33/549
f 955/39/555 953/35/551 951/36/552
f 954/38/554 953/35/551 956/40/556
f 953/35/551 955/39/555 956/40/556
f 957/32/557 959/33/558 958/34/559
f 959/33/558 957/32/557 960/35/560
f 957/32/557 961/36/561 960/35/560
f 961/36/561 957/32/557 962/37/562
f 963/41/563 960/35/560 961/36/561
f 960/35/560 963/41/563 964/42/564
f 965/43/565 960/35/560 964/42/564
f 960/35/560 965/43/565 959/33/558
f 966/44/566 968/45/567 967/46/568
f 971/47/569 968/45/567 966/44/566
f 966/44/566 969/48/570 971/47/569
f 969/48/570 966/44/566 970/49/571
f 972/50/572 971/47/569 969/48/570
f 971/47/569 973/51/573 968/45/567
f 971/47/569 972/50/572 974/52/574
f 974/52/574 973/51/573 971/47/569
f 972/50/572 975/53/575 974/52/574
f 975/53/575 973/51/573 974/52/574
f 975/53/575 972/50/572 976/54/576
f 973/51/573 975/53/575 977/55/577
f 976/54/576 978/56/578 975/53/575
f 978/56/578 977/55/577 975/53/575
f 977/55/577 978/56/578 979/57/579
f 980/58/580 978/56/578 976/54/576
f 981/59/581 983/52/582 982/50/583
f 983/52/582 981/59/581 984/60/584
f 985/61/585 983/52/582 984/60/584
f 983/52/582 985/61/585 986/51/586
f 987/62/587 983/52/582 986/51/586
f 983/52/582 987/62/587 988/63/588
f 989/64/589 983/52/582 988/63/588
f 983/52/582 989/64/589 982/50/583
f 991/65/590 994/66/590 990/67/590
f 990/67/590 992/68/590 991/65/590
f 992/68/590 990/67/590 993/69/590
f 991/65/590 995/70/590 994/66/590
f 996/71/590 994/66/590 995/70/590
f 994/66/590 996/71/590 997/72/590
f 998/73/590 997/72/590 996/71/590
f 997/72/590 998/73/590 999/74/590
f 1000/75/590 999/74/590 998/73/590
f 998/73/590 1001/76/590 1000/75/590
f 1002/77/590 1000/75/590 1001/76/590
f 1000/75/590 1002/77/590 1003/78/590
f 1002/77/590 1004/79/590 1003/78/590
f 1002/77/590 1005/80/590 1004/79/590
f 1006/81/590 1004/79/590 1005/80/590
f 1004/79/590 1006/81/590 1007/82/590
f 1007/82/590 1006/81/590 1008/83/590
f 1006/81/590 1009/84/590 1008/83/590
f 992/68/590 1008/83/590 1009/84/590
f 1008/83/590 992/68/590 993/69/590
f 1010/85/590 1009/84/590 1006/81/590
f 1010/85/590 1012/18/590 1009/84/590
f 1009/84/590 1011/86/590 992/68/590
f 1011/86/590 1009/84/590 1012/18/590
f 1013/87/591 1012/18/590 1010/85/590
f 1014/24/590 1011/86/590 1012/18/590
f 1013/87/591 1014/24/590 1012/18/590
f 1014/24/590 1015/88/590 1011/86/590
f 1017/89/592 1014/24/590 1013/87/591
f 1016/27/590 1015/88/590 1014/24/590
f 1017/89/592 1016/27/590 1014/24/590
f 1018/90/590 1016/27/590 1017/89/592
f 1018/90/590 1017/89/592 1019/91/590
f 1020/92/590 1018/90/590 1019/91/590
f 1020/92/590 1019/91/590 1021/93/590
f 1022/94/590 1020/92/590 1021/93/590
f 1018/90/590 1023/95/590 1016/27/590
f 1024/96/590 1016/27/590 1023/95/590
f 1016/27/590 1024/96/590 1025/97/590
f 1016/27/590 1025/97/590 1015/88/590
f 1013/87/591 1010/85/590 1026/98/590
f 1027/99/590 1013/87/591 1026/98/590
f 1027/99/590 1026/98/590 1028/100/590
f 1029/101/590 1027/99/590 1028/100/590
f 1034/102/593 1030/103/594 1031/104/595
f 1030/103/594 1032/105/596 1031/104/595
f 1032/105/596 1030/103/594 1033/106/597
f 1030/103/594 1034/102/593 1035/107/598
f 1036/108/599 1038/109/600 1037/110/601
f 1038/109/600 1036/108/599 1039/111/602
f 1036/108/599 1040/112/603 1039/111/602
f 1040/112/603 1036/108/599 1041/113/604
f 1042/19/605 1044/21/606 1043/22/607
f 1044/21/606 1042/19/605 1047/114/608
f 1042/19/605 1045/17/609 1047/114/608
f 1045/17/609 1042/19/605 1046/20/610
f 1048/25/611 1050/115/612 1049/28/613
f 1050/115/612 1048/25/611 1051/116/614
f 1052/23/615 1050/115/612 1051/116/614
f 1050/115/612 1052/23/615 1053/26/616
f 1055/3/617 1058/2/618 1054/5/619
f 1054/5/619 1056/8/620 1055/3/617
f 1057/6/621 1056/8/620 1054/5/619
f 1058/2/618 1057/6/621 1054/5/619
f 1059/7/622 1057/6/621 1058/2/618
f 1058/2/618 1055/3/617 1060/4/623
f 1056/8/620 1057/6/621 1061/9/624
f 1055/3/617 1056/8/620 1062/10/625
f 1063/11/626 1065/5/627 1064/12/628
f 1065/5/627 1063/11/626 1066/2/629
f 1067/13/630 1065/5/627 1066/2/629
f 1065/5/627 1067/13/630 1068/14/631
f 1069/15/632 1065/5/627 1068/14/631
f 1065/5/627 1069/15/632 1070/8/633
f 1071/16/634 1065/5/627 1070/8/633
f 1065/5/627 1071/16/634 1064/12/628
f 1076/117/635 1072/118/636 1073/63/637
f 1072/118/636 1074/119/638 1073/63/637
f 1074/119/638 1072/118/636 1075/120/639
f 1072/118/636 1076/117/635 1077/121/640
f 1083/122/641 1078/118/642 1079/123/643
f 1078/118/642 1080/120/644 1079/123/643
f 1078/118/642 1082/124/645 1081/121/646
f 1082/124/645 1078/118/642 1083/122/641
f 1083/122/641 1084/125/647 1082/124/645
f 1083/122/641 1079/123/643 1085/126/648
f 1084/125/647 1083/122/641 1086/127/649
f 1085/126/648 1086/127/649 1083/122/641
f 1087/51/650 1089/56/651 1088/57/652
f 1089/56/651 1087/51/650 1090/52/653
f 1090/52/653 1087/51/650 1091/44/654
f 1091/44/654 1087/51/650 1092/46/655
f 1091/44/654 1093/50/656 1090/52/653
f 1093/50/656 1091/44/654 1094/49/657
f 1095/58/658 1089/56/651 1093/50/656
f 1093/50/656 1089/56/651 1090/52/653
f 1096/128/659 1098/32/660 1097/60/661
f 1098/32/660 1096/128/659 1099/34/662
f 1098/32/660 1100/129/663 1097/60/661
f 1100/129/663 1098/32/660 1101/37/664
f 1102/34/665 1104/52/666 1103/32/667
f 1104/52/666 1102/34/665 1105/51/668
f 1106/120/669 1104/52/666 1105/51/668
f 1104/52/666 1106/120/669 1107/118/670
f 1107/118/670 1106/120/669 1108/123/671
f 1109/122/672 1107/118/670 1108/123/671
f 1109/122/672 1108/123/671 1110/130/673
f 1110/130/673 1111/131/674 1109/122/672
f 1112/132/675 1109/122/672 1111/131/674
f 1109/122/672 1112/132/675 1113/124/676
f 1113/124/676 1107/118/670 1109/122/672
f 1107/118/670 1113/124/676 1114/121/677
f 1114/121/677 1104/52/666 1107/118/670
f 1104/52/666 1114/121/677 1115/50/678
f 1116/37/679 1104/52/666 1115/50/678
f 1104/52/666 1116/37/679 1103/32/667
f 1122/88/680 1117/27/680 1118/97/680
f 1117/27/680 1119/96/680 1118/97/680
f 1119/96/680 1117/27/680 1120/95/680
f 1120/95/680 1117/27/680 1121/90/680
f 1123/89/680 1121/90/680 1117/27/680
f 1117/27/680 1122/88/680 1124/24/680
f 1124/24/680 1123/89/680 1117/27/680
f 1125/87/680 1123/89/680 1124/24/680
f 1126/86/680 1124/24/680 1122/88/680
f 1127/18/680 1125/87/680 1124/24/680
f 1124/24/680 1126/86/680 1127/18/680
f 1128/85/680 1125/87/680 1127/18/680
f 1126/86/680 1129/84/680 1127/18/680
f 1129/84/680 1128/85/680 1127/18/680
f 1131/81/680 1128/85/680 1129/84/680
f 1129/84/680 1126/86/680 1130/68/680
f 1130/68/680 1132/83/680 1129/84/680
f 1132/83/680 1131/81/680 1129/84/680
f 1132/83/680 1130/68/680 1133/69/680
f 1131/81/680 1132/83/680 1134/82/680
f 1135/79/680 1131/81/680 1134/82/680
f 1131/81/680 1135/79/680 1136/133/680
f 1137/78/680 1136/133/680 1135/79/680
f 1136/133/680 1137/78/680 1138/77/680
f 1139/134/680 1138/77/680 1137/78/680
f 1139/134/680 1137/78/680 1140/75/680
f 1140/75/680 1141/73/680 1139/134/680
f 1141/73/680 1140/75/680 1142/74/680
f 1143/72/680 1141/73/680 1142/74/680
f 1144/70/680 1146/135/680 1143/72/680
f 1144/70/680 1143/72/680 1145/66/680
f 1141/73/680 1143/72/680 1146/135/680
f 1147/67/680 1144/70/680 1145/66/680
f 1133/69/680 1130/68/680 1147/67/680
f 1130/68/680 1148/136/680 1147/67/680
f 1144/70/680 1147/67/680 1148/136/680
f 1126/86/680 1122/88/680 1149/137/680
f 1150/138/680 1126/86/680 1149/137/680
f 1149/137/680 1151/139/680 1150/138/680
f 1151/139/680 1149/137/680 1152/140/680
f 1118/97/680 1119/96/680 1153/141/680
f 1154/142/680 1118/97/680 1153/141/680
f 1153/141/680 1155/143/680 1154/142/680
f 1155/143/680 1153/141/680 1156/144/680
f 1157/1/17 1158/1/17 1160/1/17
f 1157/1/17 1159/1/17 1158/1/17
f 1161/1/11 1163/1/11 1162/1/24
f 1163/1/11 1161/1/11 1164/1/34
f 1165/1/4 1167/1/4 1166/1/4
f 1167/1/4 1165/1/4 1168/1/4
