# Blender 5.0.1
# www.blender.org
mtllib BluePart.mtl
o 109492916953075.116
v -2.334967 -0.020178 -2.504326
v 2.493629 -0.020178 -2.504326
v 2.493629 -0.026637 2.381440
v -2.334967 -0.026637 2.381440
v -0.076883 0.030631 0.367695
v 0.224608 0.030631 0.367695
v 0.073862 0.028852 0.446357
v 0.224608 0.039219 -0.012083
v 0.287055 0.034925 0.177806
v -0.076883 0.039219 -0.012083
v -0.139330 0.034925 0.177806
v -0.182411 0.052092 -0.581271
v 0.330136 0.052092 -0.581271
v -0.139330 -0.009770 0.177806
v -0.076883 -0.005476 -0.012083
v -0.076883 -0.014324 -0.012283
v -0.139330 -0.018618 0.177606
v -0.076883 -0.014065 0.367695
v -0.076883 -0.022912 0.367495
v 0.060411 -0.024533 0.439139
v 0.073862 -0.015844 0.446357
v 0.073862 -0.024691 0.446157
v -0.166709 -0.003367 -0.496776
v -0.182411 0.007397 -0.581270
v -0.182411 -0.001451 -0.581471
v 0.073862 -0.015844 0.446357
v 0.073862 -0.024691 0.446157
v 0.087313 -0.024533 0.439139
v 0.224608 -0.014065 0.367695
v 0.224608 -0.022912 0.367495
v 0.287055 -0.009770 0.177806
v 0.287055 -0.018618 0.177606
v 0.224608 -0.005476 -0.012083
v 0.224608 -0.014324 -0.012283
v 0.314434 -0.003367 -0.496776
v 0.330136 0.007397 -0.581270
v 0.330136 -0.001451 -0.581471
v -0.182411 0.007397 -0.581270
v 0.330136 0.007397 -0.581270
v 0.330136 -0.001451 -0.581471
v -0.182411 -0.001451 -0.581471
v 2.379072 -0.193655 -2.361820
v -2.220928 -0.193655 -2.361820
v -2.220928 -0.193655 2.238180
v 2.379072 -0.193655 2.238180
vn -0.0000 1.0000 0.0014
vn -0.0000 -0.9997 -0.0226
vn 1.0000 -0.0000 -0.0000
vn 0.9975 -0.0016 0.0707
vn 0.6861 0.0164 -0.7273
vn 0.6863 0.0164 -0.7272
vn 0.4627 0.0200 -0.8863
vn 0.4627 0.0199 -0.8863
vn 0.9833 0.0041 -0.1822
vn -0.4627 0.0199 -0.8863
vn -0.4627 0.0200 -0.8863
vn -0.6862 0.0164 -0.7273
vn -0.6861 0.0156 -0.7273
vn -1.0000 -0.0000 -0.0000
vn -0.9975 -0.0016 0.0708
vn -0.9975 -0.0016 0.0707
vn -0.9833 0.0041 -0.1822
vn 0.0004 -0.0226 0.9997
vn 0.0006 -0.0226 0.9997
vn -0.0000 -1.0000 -0.0000
vt 0.000000 0.000000
s 1
f 1/1/1 3/1/1 2/1/1
f 3/1/1 1/1/1 4/1/1
f 5/1/2 6/1/2 7/1/2
f 5/1/2 8/1/2 6/1/2
f 6/1/2 8/1/2 9/1/2
f 5/1/2 10/1/2 8/1/2
f 10/1/2 5/1/2 11/1/2
f 12/1/2 8/1/2 10/1/2
f 12/1/2 13/1/2 8/1/2
f 14/1/3 16/1/4 15/1/4
f 16/1/4 14/1/3 17/1/3
f 18/1/5 17/1/3 14/1/3
f 17/1/3 18/1/5 19/1/6
f 18/1/5 20/1/7 19/1/6
f 20/1/7 18/1/5 21/1/8
f 21/1/8 22/1/7 20/1/7
f 23/1/9 15/1/4 16/1/4
f 15/1/4 23/1/9 24/1/9
f 24/1/9 23/1/9 25/1/9
f 26/1/10 28/1/11 27/1/11
f 28/1/11 26/1/10 29/1/12
f 29/1/12 30/1/13 28/1/11
f 31/1/14 30/1/13 29/1/12
f 30/1/13 31/1/14 32/1/14
f 33/1/15 32/1/14 31/1/14
f 32/1/14 33/1/15 34/1/16
f 33/1/15 35/1/17 34/1/16
f 35/1/17 33/1/15 36/1/17
f 36/1/17 37/1/17 35/1/17
f 38/1/18 40/1/18 39/1/19
f 40/1/18 38/1/18 41/1/19
f 42/1/20 44/1/20 43/1/20
f 44/1/20 42/1/20 45/1/20
