# Blender 5.0.1
# www.blender.org
mtllib Keypad.mtl
o Keypad
v -0.155955 0.094462 0.429516
v 0.145536 0.094462 0.429516
v -0.005210 0.092683 0.508178
v 0.145536 0.103051 0.049737
v 0.207983 0.098757 0.239626
v -0.155955 0.103051 0.049737
v -0.218402 0.098757 0.239626
v -0.261483 0.115923 -0.519450
v 0.251064 0.115923 -0.519450
v -0.218402 0.098757 0.239626
v -0.155955 0.094203 0.049537
v -0.155955 0.103051 0.049737
v -0.245781 0.105160 -0.434956
v -0.261483 0.115923 -0.519450
v -0.261483 0.107076 -0.519650
v -0.218402 0.089909 0.239426
v -0.155955 0.094462 0.429516
v -0.155955 0.085614 0.429316
v -0.018660 0.083994 0.500960
v -0.005210 0.092683 0.508178
v -0.005210 0.083836 0.507978
v -0.005210 0.092683 0.508178
v 0.008241 0.083994 0.500960
v -0.005210 0.083836 0.507978
v 0.145536 0.094462 0.429516
v 0.145536 0.085614 0.429316
v 0.207983 0.098757 0.239626
v 0.207983 0.089909 0.239426
v 0.145536 0.103051 0.049737
v 0.145536 0.094203 0.049537
v 0.235362 0.105160 -0.434956
v 0.251064 0.115923 -0.519450
v 0.251064 0.107076 -0.519650
v -0.261483 0.115923 -0.519450
v 0.251064 0.107076 -0.519650
v 0.251064 0.115923 -0.519450
v -0.261483 0.107076 -0.519650
v -2.079180 0.229124 -2.652658
v -2.280054 -0.229124 -2.652658
v -2.280054 0.229124 -2.652658
v -2.684174 -0.229124 -2.248538
v -2.079180 -0.229124 -2.652658
v -1.519000 0.229124 -2.652658
v -1.519000 -0.229124 -2.652658
v -2.684174 0.229124 -2.248538
v -2.684174 -0.229124 -2.092478
v -2.684174 0.229124 -2.092478
v -2.684174 -0.229124 -1.532298
v -2.684174 0.229124 -1.532298
v 2.280054 0.229124 -2.652658
v 2.280054 -0.229124 -2.652658
v 2.079180 0.229124 -2.652658
v 2.079180 -0.229124 -2.652658
v 1.519000 0.229124 -2.652658
v 1.519000 -0.229124 -2.652658
v 2.684174 -0.229124 -2.248538
v 2.684174 0.229124 -2.248538
v 2.684174 -0.229124 -2.092478
v 2.684174 0.229124 -2.092478
v 2.684174 -0.229124 -1.532298
v 2.684174 0.229124 -1.532298
v -2.079180 -0.229124 2.652658
v -2.079180 0.229124 2.652658
v -2.280054 -0.229124 2.652658
v -1.519000 0.229124 2.652658
v -1.519000 -0.229124 2.652658
v -2.280054 0.229124 2.652658
v -2.684174 -0.229124 2.248538
v -2.684174 0.229124 2.248538
v -2.684174 -0.229124 2.092478
v -2.684174 0.229124 2.092478
v -2.684174 -0.229124 1.532298
v -2.684174 0.229124 1.532298
v 2.079180 0.229124 2.652658
v 2.079180 -0.229124 2.652658
v 2.280054 -0.229124 2.652658
v 1.519000 0.229124 2.652658
v 1.519000 -0.229124 2.652658
v 2.280054 0.229124 2.652658
v 2.684174 -0.229124 2.248538
v 2.684174 0.229124 2.248538
v 2.684174 -0.229124 2.092478
v 2.684174 0.229124 2.092478
v 2.684174 -0.229124 1.532298
v 2.684174 0.229124 1.532298
v -1.519000 -0.229124 -2.652658
v -2.079180 -0.229124 -2.092478
v -2.079180 -0.229124 -2.652658
v -1.519000 -0.229124 -2.092478
v -2.280054 -0.229124 -2.652658
v -2.684174 -0.229124 -2.248538
v -2.684174 -0.229124 -2.092478
v -2.079180 -0.229124 -1.532298
v -2.684174 -0.229124 -1.532298
v 1.519000 -0.229124 -2.652658
v 2.079180 -0.229124 -2.652658
v 2.079180 -0.229124 -2.092478
v 1.519000 -0.229124 -2.092478
v 2.280054 -0.229124 -2.652658
v 2.684174 -0.229124 -2.248538
v 2.684174 -0.229124 -2.092478
v 2.079180 -0.229124 -1.532298
v 2.684174 -0.229124 -1.532298
v -1.519000 -0.229124 2.652658
v -2.079180 -0.229124 2.092478
v -1.519000 -0.229124 2.092478
v -2.079180 -0.229124 2.652658
v -2.280054 -0.229124 2.652658
v -2.684174 -0.229124 2.248538
v -2.684174 -0.229124 2.092478
v -2.079180 -0.229124 1.532298
v -2.684174 -0.229124 1.532298
v 1.519000 -0.229124 2.092478
v 2.079180 -0.229124 2.092478
v 1.519000 -0.229124 2.652658
v 2.079180 -0.229124 2.652658
v 2.280054 -0.229124 2.652658
v 2.684174 -0.229124 2.248538
v 2.684174 -0.229124 2.092478
v 2.079180 -0.229124 1.532298
v 2.684174 -0.229124 1.532298
v -1.519000 0.229124 -2.652658
v -2.079180 0.229124 -2.652658
v -1.519000 0.229124 -2.092478
v -2.079180 0.229124 -2.092478
v -2.280054 0.229124 -2.652658
v -2.684174 0.229124 -2.248538
v -2.684174 0.229124 -2.092478
v -2.684174 0.229124 -1.532298
v -2.079180 0.229124 -1.532298
v 1.519000 0.229124 -2.652658
v 1.519000 0.229124 -2.092478
v 2.079180 0.229124 -2.652658
v 2.079180 0.229124 -2.092478
v 2.280054 0.229124 -2.652658
v 2.684174 0.229124 -2.248538
v 2.684174 0.229124 -2.092478
v 2.684174 0.229124 -1.532298
v 2.079180 0.229124 -1.532298
v -1.519000 0.229124 2.092478
v -2.079180 0.229124 2.092478
v -2.079180 0.229124 2.652658
v -1.519000 0.229124 2.652658
v -2.280054 0.229124 2.652658
v -2.684174 0.229124 2.248538
v -2.684174 0.229124 2.092478
v -2.684174 0.229124 1.532298
v -2.079180 0.229124 1.532298
v 1.519000 0.229124 2.092478
v 2.079180 0.229124 2.652658
v 2.079180 0.229124 2.092478
v 1.519000 0.229124 2.652658
v 2.280054 0.229124 2.652658
v 2.684174 0.229124 2.248538
v 2.684174 0.229124 2.092478
v 2.684174 0.229124 1.532298
v 2.079180 0.229124 1.532298
v -1.519000 0.229124 -2.652658
v -1.519000 0.229124 -2.092478
v -1.519000 -0.229124 -2.652658
v -1.519000 -0.229124 -2.092478
v 1.519000 0.229124 -2.652658
v 1.519000 -0.229124 -2.652658
v 1.519000 0.229124 -2.092478
v 1.519000 -0.229124 -2.092478
v -1.519000 0.229124 2.092478
v -1.519000 -0.229124 2.652658
v -1.519000 -0.229124 2.092478
v -1.519000 0.229124 2.652658
v 1.519000 0.229124 2.092478
v 1.519000 -0.229124 2.092478
v 1.519000 -0.229124 2.652658
v 1.519000 0.229124 2.652658
v -2.684174 -0.229124 -1.532298
v -2.079180 -0.229124 -1.532298
v -2.684174 0.229124 -1.532298
v -2.079180 0.229124 -1.532298
v 2.684174 -0.229124 -1.532298
v 2.684174 0.229124 -1.532298
v 2.079180 -0.229124 -1.532298
v 2.079180 0.229124 -1.532298
v -2.684174 0.229124 1.532298
v -2.079180 0.229124 1.532298
v -2.079180 -0.229124 1.532298
v -2.684174 -0.229124 1.532298
v 2.684174 0.229124 1.532298
v 2.079180 -0.229124 1.532298
v 2.079180 0.229124 1.532298
v 2.684174 -0.229124 1.532298
v -2.079180 0.229124 -2.092478
v -2.079180 0.229124 -1.532298
v -2.079180 -0.229124 -2.092478
v -2.079180 -0.229124 -1.532298
v 2.079180 0.229124 -2.092478
v 2.079180 -0.229124 -2.092478
v 2.079180 0.229124 -1.532298
v 2.079180 -0.229124 -1.532298
v -2.079180 0.229124 1.532298
v -2.079180 -0.229124 2.092478
v -2.079180 -0.229124 1.532298
v -2.079180 0.229124 2.092478
v 2.079180 0.229124 1.532298
v 2.079180 -0.229124 1.532298
v 2.079180 -0.229124 2.092478
v 2.079180 0.229124 2.092478
v -1.519000 -0.229124 -2.092478
v -2.079180 0.229124 -2.092478
v -2.079180 -0.229124 -2.092478
v -1.519000 0.229124 -2.092478
v 1.519000 -0.229124 -2.092478
v 2.079180 -0.229124 -2.092478
v 2.079180 0.229124 -2.092478
v 1.519000 0.229124 -2.092478
v -1.519000 0.229124 2.092478
v -1.519000 -0.229124 2.092478
v -2.079180 0.229124 2.092478
v -2.079180 -0.229124 2.092478
v 1.519000 0.229124 2.092478
v 2.079180 0.229124 2.092478
v 1.519000 -0.229124 2.092478
v 2.079180 -0.229124 2.092478
v 0.099668 0.044657 -1.909592
v 0.041970 0.103988 -1.997465
v 0.061699 0.045177 -2.020563
v 0.099663 0.162496 -1.909038
v 0.061693 0.163016 -2.020008
v 0.071988 0.103576 -1.909577
v 0.040311 0.103164 -1.822276
v 0.059605 0.044137 -1.799361
v 0.059600 0.161976 -1.798807
v -0.165155 0.045400 -2.070113
v -0.256483 0.103576 -1.912686
v -0.188935 0.104455 -2.098891
v -0.165160 0.163239 -2.069559
v -0.222006 0.044657 -1.912637
v -0.222011 0.162496 -1.912083
v -0.168146 0.043914 -1.754114
v -0.168152 0.161753 -1.753560
v -0.192472 0.102697 -1.725236
v -0.113890 0.102515 -1.685796
v -0.101305 0.043760 -1.720754
v -0.102097 0.043366 -1.637137
v -0.102102 0.161205 -1.636582
v -0.101311 0.161599 -1.720200
v -0.114353 0.102285 -1.636975
v -0.103138 0.042849 -1.527180
v -0.115393 0.101768 -1.527018
v -0.103143 0.160688 -1.526625
v -0.103950 0.042445 -1.441355
v -0.116206 0.101364 -1.441194
v -0.103955 0.160284 -1.440800
v -0.104860 0.041993 -1.345189
v -0.104866 0.159832 -1.344635
v -0.117446 0.100748 -1.310227
v 0.043744 0.102392 -1.658227
v 0.087089 0.043366 -1.635346
v 0.031292 0.043366 -1.635874
v 0.087084 0.161205 -1.634791
v 0.031286 0.161205 -1.635320
v 0.099554 0.102392 -1.657699
v 0.136282 0.043236 -1.607122
v 0.136276 0.161075 -1.606568
v 0.148734 0.102262 -1.629475
v 0.041869 0.101461 -1.460171
v 0.085235 0.042445 -1.439564
v 0.029438 0.042445 -1.440092
v 0.097680 0.101461 -1.459643
v 0.129896 0.042318 -1.412196
v 0.142438 0.101382 -1.442588
v 0.129891 0.160157 -1.411641
v 0.085230 0.160284 -1.439010
v 0.029433 0.160284 -1.439538
v -0.107601 0.103164 -1.823676
v -0.080798 0.044029 -1.777782
v -0.127324 0.044137 -1.801131
v -0.080803 0.161868 -1.777228
v -0.127329 0.161976 -1.800576
v -0.071012 0.103079 -1.805184
v -0.034292 0.161760 -1.753880
v -0.034287 0.043921 -1.754434
v -0.033982 0.102993 -1.786691
v 0.003394 0.103079 -1.804480
v 0.012654 0.161868 -1.776343
v 0.012659 0.044029 -1.776898
v 0.040311 0.103164 -1.822276
v 0.059605 0.044137 -1.799361
v 0.059600 0.161976 -1.798807
v 0.102515 0.163240 -2.067025
v -0.030308 0.104819 -2.174786
v -0.030696 0.163547 -2.133735
v -0.165160 0.163239 -2.069559
v 0.126841 0.104455 -2.095902
v 0.102520 0.045400 -2.067580
v -0.030691 0.045708 -2.134290
v -0.165155 0.045400 -2.070113
v -0.188935 0.104455 -2.098891
v -0.127324 0.044137 -1.801131
v -0.101305 0.043760 -1.720754
v -0.168146 0.043914 -1.754114
v -0.080798 0.044029 -1.777782
v -0.165294 0.044657 -1.912100
v -0.222006 0.044657 -1.912637
v -0.165155 0.045400 -2.070113
v -0.125230 0.045177 -2.022332
v -0.030691 0.045708 -2.134290
v -0.031326 0.045393 -2.067259
v 0.061699 0.045177 -2.020563
v 0.102520 0.045400 -2.067580
v 0.156379 0.044657 -1.909055
v 0.099668 0.044657 -1.909592
v 0.059605 0.044137 -1.799361
v 0.099529 0.043914 -1.751580
v 0.032083 0.043760 -1.719492
v 0.012659 0.044029 -1.776898
v -0.034287 0.043921 -1.754434
v -0.034921 0.043606 -1.687403
v 0.031292 0.043366 -1.635874
v -0.102097 0.043366 -1.637137
v -0.035403 0.043366 -1.636505
v 0.030251 0.042849 -1.525917
v -0.036444 0.042849 -1.526548
v -0.103138 0.042849 -1.527180
v 0.087089 0.043366 -1.635346
v -0.037256 0.042445 -1.440724
v -0.103950 0.042445 -1.441355
v -0.104860 0.041993 -1.345189
v -0.038477 0.041839 -1.311835
v 0.028528 0.041993 -1.343926
v 0.029438 0.042445 -1.440092
v 0.085235 0.042445 -1.439564
v 0.084325 0.041993 -1.343398
v 0.129896 0.042318 -1.412196
v 0.129441 0.042092 -1.364113
v 0.086048 0.042849 -1.525389
v 0.136282 0.043236 -1.607122
v 0.135766 0.042980 -1.552676
v 0.148734 0.102262 -1.629475
v 0.135761 0.160819 -1.552121
v 0.147710 0.101753 -1.521292
v 0.136276 0.161075 -1.606568
v 0.135766 0.042980 -1.552676
v 0.136282 0.043236 -1.607122
v 0.141526 0.100929 -1.346320
v 0.129891 0.160157 -1.411641
v 0.129435 0.159931 -1.363559
v 0.142438 0.101382 -1.442588
v 0.129896 0.042318 -1.412196
v 0.129441 0.042092 -1.364113
v 0.043991 0.102515 -1.684301
v 0.031292 0.043366 -1.635874
v 0.032083 0.043760 -1.719492
v 0.031286 0.161205 -1.635320
v 0.032078 0.161599 -1.718937
v 0.043744 0.102392 -1.658227
v 0.030251 0.042849 -1.525917
v 0.041869 0.101461 -1.460171
v 0.029438 0.042445 -1.440092
v 0.042295 0.101672 -1.505159
v 0.030246 0.160688 -1.525362
v 0.029433 0.160284 -1.439538
v -0.137619 0.103576 -1.911561
v -0.165294 0.044657 -1.912100
v -0.105943 0.103988 -1.998865
v -0.125230 0.045177 -2.022332
v -0.107601 0.103164 -1.823676
v -0.127324 0.044137 -1.801131
v -0.165300 0.162496 -1.911546
v -0.127329 0.161976 -1.800576
v -0.125235 0.163016 -2.021778
v 0.102515 0.163240 -2.067025
v 0.190853 0.103576 -1.908452
v 0.126841 0.104455 -2.095902
v 0.156374 0.162496 -1.908501
v 0.102520 0.045400 -2.067580
v 0.156379 0.044657 -1.909055
v 0.099524 0.161753 -1.751026
v 0.099529 0.043914 -1.751580
v 0.123304 0.102697 -1.722247
v 0.043991 0.102515 -1.684301
v 0.099529 0.043914 -1.751580
v 0.123304 0.102697 -1.722247
v 0.032083 0.043760 -1.719492
v 0.099524 0.161753 -1.751026
v 0.032078 0.161599 -1.718937
v 0.042295 0.101672 -1.505159
v 0.030251 0.042849 -1.525917
v 0.086048 0.042849 -1.525389
v 0.086043 0.160688 -1.524834
v 0.030246 0.160688 -1.525362
v 0.098106 0.101672 -1.504631
v 0.135761 0.160819 -1.552121
v 0.135766 0.042980 -1.552676
v 0.147710 0.101753 -1.521292
v -0.031326 0.045393 -2.067259
v -0.105943 0.103988 -1.998865
v -0.125230 0.045177 -2.022332
v -0.125235 0.163016 -2.021778
v -0.031331 0.163232 -2.066705
v -0.031636 0.104159 -2.034447
v 0.041970 0.103988 -1.997465
v 0.061699 0.045177 -2.020563
v 0.061693 0.163016 -2.020008
v -0.168146 0.043914 -1.754114
v -0.113890 0.102515 -1.685796
v -0.192472 0.102697 -1.725236
v -0.168152 0.161753 -1.753560
v -0.101305 0.043760 -1.720754
v -0.101311 0.161599 -1.720200
v -0.104860 0.041993 -1.345189
v -0.038865 0.100566 -1.270786
v -0.117446 0.100748 -1.310227
v -0.104866 0.159832 -1.344635
v -0.038477 0.041839 -1.311835
v -0.038482 0.159678 -1.311280
v 0.028528 0.041993 -1.343926
v 0.028523 0.159832 -1.343372
v 0.040435 0.100748 -1.308733
v 0.084325 0.041993 -1.343398
v 0.084320 0.159832 -1.342844
v 0.096246 0.100748 -1.308205
v 0.129441 0.042092 -1.364113
v 0.129435 0.159931 -1.363559
v 0.141526 0.100929 -1.346320
v -0.037262 0.160284 -1.440169
v 0.028523 0.159832 -1.343372
v 0.029433 0.160284 -1.439538
v 0.084320 0.159832 -1.342844
v -0.038482 0.159678 -1.311280
v 0.085230 0.160284 -1.439010
v 0.129891 0.160157 -1.411641
v 0.129435 0.159931 -1.363559
v -0.104866 0.159832 -1.344635
v 0.030246 0.160688 -1.525362
v -0.103955 0.160284 -1.440800
v -0.036449 0.160688 -1.525994
v -0.103143 0.160688 -1.526625
v 0.031286 0.161205 -1.635320
v -0.035408 0.161205 -1.635951
v -0.102102 0.161205 -1.636582
v 0.086043 0.160688 -1.524834
v -0.034927 0.161445 -1.686849
v 0.087084 0.161205 -1.634791
v 0.136276 0.161075 -1.606568
v 0.135761 0.160819 -1.552121
v 0.032078 0.161599 -1.718937
v -0.101311 0.161599 -1.720200
v -0.034292 0.161760 -1.753880
v 0.012654 0.161868 -1.776343
v -0.080803 0.161868 -1.777228
v 0.059600 0.161976 -1.798807
v -0.127329 0.161976 -1.800576
v 0.099524 0.161753 -1.751026
v -0.168152 0.161753 -1.753560
v 0.156374 0.162496 -1.908501
v -0.165300 0.162496 -1.911546
v 0.099663 0.162496 -1.909038
v -0.222011 0.162496 -1.912083
v 0.061693 0.163016 -2.020008
v -0.165160 0.163239 -2.069559
v 0.102515 0.163240 -2.067025
v -0.125235 0.163016 -2.021778
v -0.030696 0.163547 -2.133735
v -0.031331 0.163232 -2.066705
v -1.931484 0.024451 -0.113499
v -2.018798 0.083782 -0.054957
v -2.042084 0.024971 -0.074463
v -1.930930 0.142290 -0.113499
v -2.041530 0.142810 -0.074463
v -1.931202 0.083370 -0.085820
v -1.843601 0.082958 -0.054985
v -1.820873 0.023931 -0.074499
v -1.820318 0.141770 -0.074499
v -2.089448 0.025194 0.152858
v -1.931149 0.083370 0.242666
v -2.117995 0.084249 0.176914
v -2.088894 0.143033 0.152858
v -1.931432 0.024451 0.208189
v -1.930877 0.142290 0.208189
v -1.773435 0.023708 0.152806
v -1.772880 0.141547 0.152806
v -1.744324 0.082491 0.176853
v -1.705642 0.082309 0.097895
v -1.740720 0.023554 0.085647
v -1.657099 0.023160 0.085634
v -1.656544 0.140999 0.085633
v -1.740166 0.141393 0.085647
v -1.656819 0.082079 0.097887
v -1.547137 0.022643 0.085616
v -1.546857 0.081562 0.097869
v -1.546582 0.140482 0.085615
v -1.461308 0.022239 0.085602
v -1.461029 0.081158 0.097855
v -1.460754 0.140078 0.085601
v -1.365138 0.021787 0.085586
v -1.364584 0.139626 0.085586
v -1.330057 0.080542 0.097834
v -1.679592 0.082186 -0.059997
v -1.657130 0.023160 -0.103561
v -1.657120 0.023160 -0.047761
v -1.656575 0.140999 -0.103561
v -1.656566 0.140999 -0.047761
v -1.679601 0.082186 -0.115811
v -1.629381 0.023030 -0.153023
v -1.628827 0.140869 -0.153023
v -1.651853 0.082056 -0.165259
v -1.481528 0.081254 -0.060030
v -1.461339 0.022239 -0.103593
v -1.461330 0.022239 -0.047793
v -1.481537 0.081254 -0.115843
v -1.434402 0.022112 -0.148514
v -1.464914 0.081176 -0.160763
v -1.433848 0.139951 -0.148514
v -1.460785 0.140078 -0.103593
v -1.460775 0.140078 -0.047793
v -1.843577 0.082958 0.092933
v -1.797943 0.023823 0.065690
v -1.820842 0.023931 0.112438
v -1.797389 0.141662 0.065690
v -1.820288 0.141770 0.112438
v -1.825438 0.082872 0.056169
v -1.774489 0.141554 0.018956
v -1.775044 0.023715 0.018956
v -1.807302 0.082787 0.018961
v -1.825450 0.082872 -0.018241
v -1.797404 0.141662 -0.027771
v -1.797958 0.023823 -0.027771
v -1.843601 0.082958 -0.054985
v -1.820873 0.023931 -0.074499
v -1.820318 0.141770 -0.074499
v -2.088937 0.143033 -0.114830
v -2.195414 0.084613 0.019025
v -2.154362 0.143341 0.019018
v -2.088894 0.143033 0.152858
v -2.118047 0.084249 -0.138876
v -2.089492 0.025194 -0.114829
v -2.154916 0.025502 0.019018
v -2.089448 0.025194 0.152858
v -2.117995 0.084249 0.176914
v -1.820842 0.023931 0.112438
v -1.740720 0.023554 0.085647
v -1.773435 0.023708 0.152806
v -1.797943 0.023823 0.065690
v -1.931441 0.024451 0.151475
v -1.931432 0.024451 0.208189
v -2.089448 0.025194 0.152858
v -2.042054 0.024971 0.112474
v -2.154916 0.025502 0.019018
v -2.087883 0.025187 0.019007
v -2.042084 0.024971 -0.074463
v -2.089492 0.025194 -0.114829
v -1.931493 0.024451 -0.170213
v -1.931484 0.024451 -0.113499
v -1.820873 0.023931 -0.074499
v -1.773478 0.023708 -0.114881
v -1.740742 0.023554 -0.047747
v -1.797958 0.023823 -0.027771
v -1.775044 0.023715 0.018956
v -1.708010 0.023400 0.018945
v -1.657120 0.023160 -0.047761
v -1.657099 0.023160 0.085634
v -1.657110 0.023160 0.018937
v -1.547158 0.022643 -0.047779
v -1.547148 0.022643 0.018919
v -1.547137 0.022643 0.085616
v -1.657130 0.023160 -0.103561
v -1.461319 0.022239 0.018905
v -1.461308 0.022239 0.085602
v -1.365138 0.021787 0.085586
v -1.332425 0.021633 0.018884
v -1.365160 0.021787 -0.047809
v -1.461330 0.022239 -0.047793
v -1.461339 0.022239 -0.103593
v -1.365169 0.021787 -0.103608
v -1.434402 0.022112 -0.148514
v -1.386317 0.021886 -0.148522
v -1.547168 0.022643 -0.103579
v -1.629381 0.023030 -0.153023
v -1.574932 0.022773 -0.153032
v -1.651853 0.082056 -0.165259
v -1.574378 0.140612 -0.153032
v -1.543665 0.081547 -0.165277
v -1.628827 0.140869 -0.153023
v -1.574932 0.022773 -0.153032
v -1.629381 0.023030 -0.153023
v -1.368641 0.080723 -0.160779
v -1.433848 0.139951 -0.148514
v -1.385763 0.139725 -0.148522
v -1.464914 0.081176 -0.160763
v -1.434402 0.022112 -0.148514
v -1.386317 0.021886 -0.148522
v -1.705668 0.082309 -0.059993
v -1.657120 0.023160 -0.047761
v -1.740742 0.023554 -0.047747
v -1.656566 0.140999 -0.047761
v -1.740187 0.141393 -0.047747
v -1.679592 0.082186 -0.059997
v -1.547158 0.022643 -0.047779
v -1.481528 0.081254 -0.060030
v -1.461330 0.022239 -0.047793
v -1.526517 0.081466 -0.060022
v -1.546604 0.140482 -0.047779
v -1.460775 0.140078 -0.047793
v -1.931168 0.083370 0.123797
v -1.931441 0.024451 0.151475
v -2.018774 0.083782 0.092962
v -2.042054 0.024971 0.112474
v -1.843577 0.082958 0.092933
v -1.820842 0.023931 0.112438
v -1.930887 0.142290 0.151475
v -1.820288 0.141770 0.112438
v -2.041499 0.142810 0.112474
v -2.088937 0.143033 -0.114830
v -1.931222 0.083370 -0.204690
v -2.118047 0.084249 -0.138876
v -1.930939 0.142290 -0.170213
v -2.089492 0.025194 -0.114829
v -1.931493 0.024451 -0.170213
v -1.772924 0.141547 -0.114881
v -1.773478 0.023708 -0.114881
v -1.744376 0.082491 -0.138937
v -1.705668 0.082309 -0.059993
v -1.773478 0.023708 -0.114881
v -1.744376 0.082491 -0.138937
v -1.740742 0.023554 -0.047747
v -1.772924 0.141547 -0.114881
v -1.740187 0.141393 -0.047747
v -1.526517 0.081466 -0.060022
v -1.547158 0.022643 -0.047779
v -1.547168 0.022643 -0.103579
v -1.546613 0.140482 -0.103579
v -1.546604 0.140482 -0.047779
v -1.526527 0.081466 -0.115836
v -1.574378 0.140612 -0.153032
v -1.574932 0.022773 -0.153032
v -1.543665 0.081547 -0.165277
v -2.087883 0.025187 0.019007
v -2.018774 0.083782 0.092962
v -2.042054 0.024971 0.112474
v -2.041499 0.142810 0.112474
v -2.087328 0.143026 0.019007
v -2.055069 0.083953 0.019002
v -2.018798 0.083782 -0.054957
v -2.042084 0.024971 -0.074463
v -2.041530 0.142810 -0.074463
v -1.773435 0.023708 0.152806
v -1.705642 0.082309 0.097895
v -1.744324 0.082491 0.176853
v -1.772880 0.141547 0.152806
v -1.740720 0.023554 0.085647
v -1.740166 0.141393 0.085647
v -1.365138 0.021787 0.085586
v -1.291374 0.080360 0.018877
v -1.330057 0.080542 0.097834
v -1.364584 0.139626 0.085586
v -1.332425 0.021633 0.018884
v -1.331870 0.139472 0.018884
v -1.365160 0.021787 -0.047809
v -1.364605 0.139626 -0.047809
v -1.330083 0.080542 -0.060054
v -1.365169 0.021787 -0.103608
v -1.364615 0.139626 -0.103608
v -1.330092 0.080542 -0.115868
v -1.386317 0.021886 -0.148522
v -1.385763 0.139725 -0.148522
v -1.368641 0.080723 -0.160779
v -1.460765 0.140078 0.018905
v -1.364605 0.139626 -0.047809
v -1.460775 0.140078 -0.047793
v -1.364615 0.139626 -0.103608
v -1.331870 0.139472 0.018884
v -1.460785 0.140078 -0.103593
v -1.433848 0.139951 -0.148514
v -1.385763 0.139725 -0.148522
v -1.364584 0.139626 0.085586
v -1.546604 0.140482 -0.047779
v -1.460754 0.140078 0.085601
v -1.546593 0.140482 0.018919
v -1.546582 0.140482 0.085615
v -1.656566 0.140999 -0.047761
v -1.656555 0.140999 0.018937
v -1.656544 0.140999 0.085633
v -1.546613 0.140482 -0.103579
v -1.707456 0.141239 0.018945
v -1.656575 0.140999 -0.103561
v -1.628827 0.140869 -0.153023
v -1.574378 0.140612 -0.153032
v -1.740187 0.141393 -0.047747
v -1.740166 0.141393 0.085647
v -1.774489 0.141554 0.018956
v -1.797404 0.141662 -0.027771
v -1.797389 0.141662 0.065690
v -1.820318 0.141770 -0.074499
v -1.820288 0.141770 0.112438
v -1.772924 0.141547 -0.114881
v -1.772880 0.141547 0.152806
v -1.930939 0.142290 -0.170213
v -1.930887 0.142290 0.151475
v -1.930930 0.142290 -0.113499
v -1.930877 0.142290 0.208189
v -2.041530 0.142810 -0.074463
v -2.088894 0.143033 0.152858
v -2.088937 0.143033 -0.114830
v -2.041499 0.142810 0.112474
v -2.154362 0.143341 0.019018
v -2.087328 0.143026 0.019007
v -0.095986 0.047018 1.926287
v -0.032554 0.102634 2.012625
v -0.054715 0.044829 2.036052
v -0.089652 0.164688 1.926252
v -0.048382 0.162499 2.036017
v -0.065186 0.104365 1.925689
v -0.036224 0.102780 1.837464
v -0.059350 0.045013 1.814887
v -0.053017 0.162683 1.814852
v 0.173212 0.032575 2.078678
v 0.262752 0.086713 1.918803
v 0.200994 0.090093 2.106979
v 0.179545 0.150245 2.078643
v 0.225167 0.029731 1.919543
v 0.231500 0.147401 1.919508
v 0.166591 0.032837 1.762730
v 0.172925 0.150507 1.762695
v 0.193165 0.090403 1.733385
v 0.113535 0.094677 1.696354
v 0.098864 0.036473 1.731419
v 0.097112 0.036542 1.647816
v 0.103445 0.154212 1.647781
v 0.105197 0.154143 1.731384
v 0.112512 0.094718 1.647541
v 0.094808 0.036633 1.537876
v 0.110208 0.094809 1.537602
v 0.101141 0.154303 1.537842
v 0.093010 0.036704 1.452066
v 0.108410 0.094880 1.451792
v 0.099343 0.154374 1.452031
v 0.090995 0.036784 1.355916
v 0.097329 0.154454 1.355881
v 0.105666 0.094989 1.320847
v -0.044637 0.103184 1.673593
v -0.091767 0.046709 1.651782
v -0.036060 0.043710 1.650612
v -0.085434 0.164379 1.651747
v -0.029727 0.161380 1.650577
v -0.100357 0.106183 1.674763
v -0.141724 0.049390 1.625068
v -0.135391 0.167060 1.625033
v -0.150301 0.108863 1.648049
v -0.048786 0.103348 1.475570
v -0.095869 0.046871 1.456032
v -0.040162 0.043873 1.454862
v -0.104507 0.106347 1.476740
v -0.141276 0.049307 1.430035
v -0.149698 0.108775 1.461055
v -0.134943 0.166977 1.430000
v -0.089536 0.164541 1.455997
v -0.033829 0.161543 1.454827
v 0.111449 0.094831 1.834363
v 0.080129 0.037498 1.789046
v 0.127276 0.034967 1.810968
v 0.086462 0.155168 1.789011
v 0.133609 0.152637 1.810933
v 0.074368 0.096821 1.816993
v 0.039330 0.157698 1.767088
v 0.032997 0.040028 1.767124
v 0.036845 0.098836 1.799634
v 0.000082 0.100820 1.818553
v -0.006843 0.160190 1.790970
v -0.013176 0.042520 1.791005
v -0.036224 0.102780 1.837464
v -0.059350 0.045013 1.814887
v -0.053017 0.162683 1.814852
v -0.087697 0.164630 2.084255
v 0.044976 0.098514 2.187665
v 0.047289 0.157383 2.146882
v 0.179545 0.150245 2.078643
v -0.114270 0.107063 2.113599
v -0.094030 0.046960 2.084290
v 0.040955 0.039713 2.146917
v 0.173212 0.032575 2.078678
v 0.200994 0.090093 2.106979
v 0.127276 0.034967 1.810968
v 0.098864 0.036473 1.731419
v 0.166591 0.032837 1.762730
v 0.080129 0.037498 1.789046
v 0.168547 0.032779 1.920732
v 0.225167 0.029731 1.919543
v 0.173212 0.032575 2.078678
v 0.131910 0.034784 2.032134
v 0.040955 0.039713 2.146917
v 0.039551 0.039769 2.079897
v -0.054715 0.044829 2.036052
v -0.094030 0.046960 2.084290
v -0.152605 0.050065 1.927476
v -0.095986 0.047018 1.926287
v -0.059350 0.045013 1.814887
v -0.100650 0.047222 1.768342
v -0.034308 0.043641 1.734216
v -0.013176 0.042520 1.791005
v 0.032997 0.040028 1.767124
v 0.031593 0.040084 1.700104
v -0.036060 0.043710 1.650612
v 0.097112 0.036542 1.647816
v 0.030526 0.040126 1.649214
v -0.038364 0.043801 1.540673
v 0.028223 0.040217 1.539275
v 0.094808 0.036633 1.537876
v -0.091767 0.046709 1.651782
v 0.026425 0.040288 1.453464
v 0.093010 0.036704 1.452066
v 0.090995 0.036784 1.355916
v 0.023724 0.040395 1.324597
v -0.042177 0.043952 1.358712
v -0.040162 0.043873 1.454862
v -0.095869 0.046871 1.456032
v -0.097884 0.046951 1.359882
v -0.141276 0.049307 1.430035
v -0.142283 0.049347 1.381960
v -0.094071 0.046800 1.541843
v -0.141724 0.049390 1.625068
v -0.142865 0.049435 1.570630
v -0.150301 0.108863 1.648049
v -0.136532 0.167105 1.570595
v -0.152567 0.108953 1.539884
v -0.135391 0.167060 1.625033
v -0.142865 0.049435 1.570630
v -0.141724 0.049390 1.625068
v -0.151715 0.108855 1.364802
v -0.134943 0.166977 1.430000
v -0.135950 0.167017 1.381925
v -0.149698 0.108775 1.461055
v -0.141276 0.049307 1.430035
v -0.142283 0.049347 1.381960
v -0.044091 0.103162 1.699664
v -0.036060 0.043710 1.650612
v -0.034308 0.043641 1.734216
v -0.029727 0.161380 1.650577
v -0.027975 0.161311 1.734181
v -0.044637 0.103184 1.673593
v -0.038364 0.043801 1.540673
v -0.048786 0.103348 1.475570
v -0.040162 0.043873 1.454862
v -0.047844 0.103311 1.520551
v -0.032031 0.161471 1.540638
v -0.033829 0.161543 1.454827
v 0.144081 0.093100 1.921295
v 0.168547 0.032779 1.920732
v 0.115119 0.094686 2.009524
v 0.131910 0.034784 2.032134
v 0.111449 0.094831 1.834363
v 0.127276 0.034967 1.810968
v 0.174880 0.150449 1.920697
v 0.133609 0.152637 1.810933
v 0.138243 0.152454 2.032099
v -0.087697 0.164630 2.084255
v -0.183859 0.110753 1.928181
v -0.114270 0.107063 2.113599
v -0.146272 0.167735 1.927441
v -0.094030 0.046960 2.084290
v -0.152605 0.050065 1.927476
v -0.094317 0.164892 1.768307
v -0.100650 0.047222 1.768342
v -0.122099 0.107373 1.740005
v -0.044091 0.103162 1.699664
v -0.100650 0.047222 1.768342
v -0.122099 0.107373 1.740005
v -0.034308 0.043641 1.734216
v -0.094317 0.164892 1.768307
v -0.027975 0.161311 1.734181
v -0.047844 0.103311 1.520551
v -0.038364 0.043801 1.540673
v -0.094071 0.046800 1.541843
v -0.087738 0.164470 1.541808
v -0.032031 0.161471 1.540638
v -0.103564 0.106310 1.521721
v -0.136532 0.167105 1.570595
v -0.142865 0.049435 1.570630
v -0.152567 0.108953 1.539884
v 0.039551 0.039769 2.079897
v 0.115119 0.094686 2.009524
v 0.131910 0.034784 2.032134
v 0.138243 0.152454 2.032099
v 0.045884 0.157439 2.079862
v 0.042036 0.098630 2.047350
v -0.032554 0.102634 2.012625
v -0.054715 0.044829 2.036052
v -0.048382 0.162499 2.036017
v 0.166591 0.032837 1.762730
v 0.113535 0.094677 1.696354
v 0.193165 0.090403 1.733385
v 0.172925 0.150507 1.762695
v 0.098864 0.036473 1.731419
v 0.105197 0.154143 1.731384
v 0.090995 0.036784 1.355916
v 0.026037 0.099264 1.283814
v 0.105666 0.094989 1.320847
v 0.097329 0.154454 1.355881
v 0.023724 0.040395 1.324597
v 0.030057 0.158065 1.324561
v -0.042177 0.043952 1.358712
v -0.035844 0.161622 1.358677
v -0.051959 0.103474 1.324157
v -0.097884 0.046951 1.359882
v -0.091550 0.164621 1.359847
v -0.107679 0.106473 1.325327
v -0.142283 0.049347 1.381960
v -0.135950 0.167017 1.381925
v -0.151715 0.108855 1.364802
v 0.032758 0.157958 1.453429
v -0.035844 0.161622 1.358677
v -0.033829 0.161543 1.454827
v -0.091550 0.164621 1.359847
v 0.030057 0.158065 1.324561
v -0.089536 0.164541 1.455997
v -0.134943 0.166977 1.430000
v -0.135950 0.167017 1.381925
v 0.097329 0.154454 1.355881
v -0.032031 0.161471 1.540638
v 0.099343 0.154374 1.452031
v 0.034556 0.157887 1.539240
v 0.101141 0.154303 1.537842
v -0.029727 0.161380 1.650577
v 0.036860 0.157796 1.649179
v 0.103445 0.154212 1.647781
v -0.087738 0.164470 1.541808
v 0.037926 0.157754 1.700069
v -0.085434 0.164379 1.651747
v -0.135391 0.167060 1.625033
v -0.136532 0.167105 1.570595
v -0.027975 0.161311 1.734181
v 0.105197 0.154143 1.731384
v 0.039330 0.157698 1.767088
v -0.006843 0.160190 1.790970
v 0.086462 0.155168 1.789011
v -0.053017 0.162683 1.814852
v 0.133609 0.152637 1.810933
v -0.094317 0.164892 1.768307
v 0.172925 0.150507 1.762695
v -0.146272 0.167735 1.927441
v 0.174880 0.150449 1.920697
v -0.089652 0.164688 1.926252
v 0.231500 0.147401 1.919508
v -0.048382 0.162499 2.036017
v 0.179545 0.150245 2.078643
v -0.087697 0.164630 2.084255
v 0.138243 0.152454 2.032099
v 0.047289 0.157383 2.146882
v 0.045884 0.157439 2.079862
v 2.044342 0.040443 0.081566
v 2.131645 0.099774 0.023008
v 2.154935 0.040963 0.042510
v 2.043788 0.158282 0.081566
v 2.154381 0.158802 0.042510
v 2.044055 0.099362 0.053887
v 1.956448 0.098950 0.023068
v 1.933724 0.039922 0.042585
v 1.933169 0.157761 0.042585
v 2.202259 0.041186 -0.184819
v 2.043944 0.099362 -0.274599
v 2.230802 0.100241 -0.208880
v 2.201705 0.159025 -0.184819
v 2.044233 0.040443 -0.240122
v 2.043678 0.158282 -0.240122
v 1.886245 0.039699 -0.184711
v 1.885691 0.157538 -0.184711
v 1.857130 0.098483 -0.208753
v 1.818462 0.098301 -0.129788
v 1.853543 0.039545 -0.117546
v 1.769921 0.039152 -0.117518
v 1.769367 0.156991 -0.117518
v 1.852988 0.157384 -0.117546
v 1.769640 0.098071 -0.129771
v 1.659959 0.038635 -0.117480
v 1.659678 0.097554 -0.129734
v 1.659405 0.156474 -0.117480
v 1.574131 0.038231 -0.117451
v 1.573849 0.097150 -0.129705
v 1.573576 0.156070 -0.117451
v 1.477961 0.037778 -0.117418
v 1.477406 0.155617 -0.117418
v 1.442877 0.096534 -0.129660
v 1.792440 0.098178 0.028109
v 1.769986 0.039152 0.071676
v 1.769967 0.039152 0.015877
v 1.769431 0.156991 0.071676
v 1.769412 0.156991 0.015877
v 1.792459 0.098178 0.083922
v 1.742246 0.039021 0.121144
v 1.741691 0.156860 0.121144
v 1.764720 0.098047 0.133376
v 1.594376 0.097246 0.028176
v 1.574195 0.038231 0.071743
v 1.574176 0.038231 0.015943
v 1.594395 0.097246 0.083990
v 1.547266 0.038104 0.116669
v 1.577780 0.097168 0.128913
v 1.546712 0.155943 0.116670
v 1.573641 0.156070 0.071743
v 1.573622 0.156070 0.015943
v 1.956398 0.098950 -0.124851
v 1.910769 0.039815 -0.097599
v 1.933660 0.039922 -0.144352
v 1.910215 0.157654 -0.097599
v 1.933105 0.157761 -0.144351
v 1.938266 0.098864 -0.088083
v 1.887324 0.157546 -0.050861
v 1.887878 0.039707 -0.050861
v 1.920136 0.098779 -0.050872
v 1.938291 0.098864 -0.013673
v 1.910246 0.157654 -0.004138
v 1.910801 0.039815 -0.004138
v 1.956448 0.098950 0.023068
v 1.933724 0.039922 0.042585
v 1.933169 0.157761 0.042585
v 2.201796 0.159025 0.082869
v 2.308248 0.100605 -0.051004
v 2.267196 0.159333 -0.050990
v 2.201705 0.159025 -0.184819
v 2.230909 0.100241 0.106910
v 2.202350 0.041186 0.082868
v 2.267751 0.041494 -0.050991
v 2.202259 0.041186 -0.184819
v 2.230802 0.100241 -0.208880
v 1.933660 0.039922 -0.144352
v 1.853543 0.039545 -0.117546
v 1.886245 0.039699 -0.184711
v 1.910769 0.039815 -0.097599
v 2.044252 0.040443 -0.183408
v 2.044233 0.040443 -0.240122
v 2.202259 0.041186 -0.184819
v 2.154872 0.040963 -0.144427
v 2.267751 0.041494 -0.050991
v 2.200717 0.041179 -0.050968
v 2.154935 0.040963 0.042510
v 2.202350 0.041186 0.082868
v 2.044362 0.040443 0.138279
v 2.044342 0.040443 0.081566
v 1.933724 0.039922 0.042585
v 1.886336 0.039699 0.082976
v 1.853588 0.039545 0.015848
v 1.910801 0.039815 -0.004138
v 1.887878 0.039707 -0.050861
v 1.820844 0.039391 -0.050839
v 1.769967 0.039152 0.015877
v 1.769921 0.039152 -0.117518
v 1.769944 0.039152 -0.050821
v 1.660005 0.038635 0.015914
v 1.659982 0.038635 -0.050784
v 1.659959 0.038635 -0.117480
v 1.769986 0.039152 0.071676
v 1.574153 0.038231 -0.050755
v 1.574131 0.038231 -0.117451
v 1.477961 0.037778 -0.117418
v 1.445259 0.037624 -0.050711
v 1.478006 0.037778 0.015976
v 1.574176 0.038231 0.015943
v 1.574195 0.038231 0.071743
v 1.478025 0.037778 0.071776
v 1.547266 0.038104 0.116669
v 1.499181 0.037878 0.116686
v 1.660024 0.038635 0.071714
v 1.742246 0.039021 0.121144
v 1.687797 0.038765 0.121162
v 1.764720 0.098047 0.133376
v 1.687243 0.156604 0.121162
v 1.656532 0.097538 0.133413
v 1.741691 0.156860 0.121144
v 1.687797 0.038765 0.121162
v 1.742246 0.039021 0.121144
v 1.481507 0.096715 0.128945
v 1.546712 0.155943 0.116670
v 1.498627 0.155717 0.116686
v 1.577780 0.097168 0.128913
v 1.547266 0.038104 0.116669
v 1.499181 0.037878 0.116686
v 1.818516 0.098301 0.028100
v 1.769967 0.039152 0.015877
v 1.853588 0.039545 0.015848
v 1.769412 0.156991 0.015877
v 1.853034 0.157384 0.015848
v 1.792440 0.098178 0.028109
v 1.660005 0.038635 0.015914
v 1.594376 0.097246 0.028176
v 1.574176 0.038231 0.015943
v 1.639366 0.097458 0.028161
v 1.659450 0.156474 0.015914
v 1.573622 0.156070 0.015943
v 2.043984 0.099362 -0.155730
v 2.044252 0.040443 -0.183408
v 2.131595 0.099774 -0.124911
v 2.154872 0.040963 -0.144427
v 1.956398 0.098950 -0.124851
v 1.933660 0.039922 -0.144352
v 2.043698 0.158282 -0.183408
v 1.933105 0.157761 -0.144351
v 2.154317 0.158802 -0.144427
v 2.201796 0.159025 0.082869
v 2.044096 0.099362 0.172757
v 2.230909 0.100241 0.106910
v 2.043807 0.158282 0.138280
v 2.202350 0.041186 0.082868
v 2.044362 0.040443 0.138279
v 1.885782 0.157538 0.082976
v 1.886336 0.039699 0.082976
v 1.857238 0.098483 0.107037
v 1.818516 0.098301 0.028100
v 1.886336 0.039699 0.082976
v 1.857238 0.098483 0.107037
v 1.853588 0.039545 0.015848
v 1.885782 0.157538 0.082976
v 1.853034 0.157384 0.015848
v 1.639366 0.097458 0.028161
v 1.660005 0.038635 0.015914
v 1.660024 0.038635 0.071714
v 1.659469 0.156474 0.071714
v 1.659450 0.156474 0.015914
v 1.639385 0.097458 0.083974
v 1.687243 0.156604 0.121162
v 1.687797 0.038765 0.121162
v 1.656532 0.097538 0.133413
v 2.200717 0.041179 -0.050968
v 2.131595 0.099774 -0.124911
v 2.154872 0.040963 -0.144427
v 2.154317 0.158802 -0.144427
v 2.200163 0.159018 -0.050968
v 2.167903 0.099945 -0.050957
v 2.131645 0.099774 0.023008
v 2.154935 0.040963 0.042510
v 2.154381 0.158802 0.042510
v 1.886245 0.039699 -0.184711
v 1.818462 0.098301 -0.129788
v 1.857130 0.098483 -0.208753
v 1.885691 0.157538 -0.184711
v 1.853543 0.039545 -0.117546
v 1.852988 0.157384 -0.117546
v 1.477961 0.037778 -0.117418
v 1.404208 0.096352 -0.050697
v 1.442877 0.096534 -0.129660
v 1.477406 0.155617 -0.117418
v 1.445259 0.037624 -0.050711
v 1.444705 0.155463 -0.050711
v 1.478006 0.037778 0.015976
v 1.477452 0.155617 0.015976
v 1.442931 0.096534 0.028228
v 1.478025 0.037778 0.071776
v 1.477471 0.155617 0.071776
v 1.442950 0.096534 0.084041
v 1.499181 0.037878 0.116686
v 1.498627 0.155717 0.116686
v 1.481507 0.096715 0.128945
v 1.573599 0.156070 -0.050754
v 1.477452 0.155617 0.015976
v 1.573622 0.156070 0.015943
v 1.477471 0.155617 0.071776
v 1.444705 0.155463 -0.050711
v 1.573641 0.156070 0.071743
v 1.546712 0.155943 0.116670
v 1.498627 0.155717 0.116686
v 1.477406 0.155617 -0.117418
v 1.659450 0.156474 0.015914
v 1.573576 0.156070 -0.117451
v 1.659428 0.156474 -0.050784
v 1.659405 0.156474 -0.117480
v 1.769412 0.156991 0.015877
v 1.769390 0.156991 -0.050821
v 1.769367 0.156991 -0.117518
v 1.659469 0.156474 0.071714
v 1.820290 0.157230 -0.050838
v 1.769431 0.156991 0.071676
v 1.741691 0.156860 0.121144
v 1.687243 0.156604 0.121162
v 1.853034 0.157384 0.015848
v 1.852988 0.157384 -0.117546
v 1.887324 0.157546 -0.050861
v 1.910246 0.157654 -0.004138
v 1.910215 0.157654 -0.097599
v 1.933169 0.157761 0.042585
v 1.933105 0.157761 -0.144351
v 1.885782 0.157538 0.082976
v 1.885691 0.157538 -0.184711
v 2.043807 0.158282 0.138280
v 2.043698 0.158282 -0.183408
v 2.043788 0.158282 0.081566
v 2.043678 0.158282 -0.240122
v 2.154381 0.158802 0.042510
v 2.201705 0.159025 -0.184819
v 2.201796 0.159025 0.082869
v 2.154317 0.158802 -0.144427
v 2.267196 0.159333 -0.050990
v 2.200163 0.159018 -0.050968
v 2.300000 -0.085128 2.300000
v 2.300000 -0.085128 -2.300000
v 2.300000 0.085128 -2.300000
v 2.300000 0.085128 2.300000
v -2.300000 -0.085128 2.300000
v 2.300000 -0.085128 2.300000
v 2.300000 0.085128 2.300000
v -2.300000 0.085128 2.300000
v -2.300000 -0.085128 -2.300000
v -2.300000 0.085128 2.300000
v -2.300000 0.085128 -2.300000
v -2.300000 -0.085128 2.300000
v 2.300000 -0.085128 -2.300000
v -2.300000 0.085128 -2.300000
v 2.300000 0.085128 -2.300000
v -2.300000 -0.085128 -2.300000
v -2.300000 0.085128 -2.300000
v 2.300000 0.085128 2.300000
v 2.300000 0.085128 -2.300000
v -2.300000 0.085128 2.300000
v 2.300000 -0.085128 -2.300000
v -2.300000 -0.085128 2.300000
v -2.300000 -0.085128 -2.300000
v 2.300000 -0.085128 2.300000
vn -0.0000 -0.9997 -0.0226
vn 1.0000 -0.0000 -0.0000
vn 0.9975 -0.0016 0.0710
vn 0.9833 0.0041 -0.1822
vn 0.6851 0.0164 -0.7282
vn 0.6851 0.0165 -0.7283
vn 0.4627 0.0200 -0.8863
vn 0.4627 0.0199 -0.8863
vn 0.4623 0.0200 -0.8865
vn -0.4627 0.0199 -0.8863
vn -0.4627 0.0200 -0.8863
vn -0.4623 0.0200 -0.8865
vn -0.6851 0.0164 -0.7282
vn -0.6851 0.0164 -0.7283
vn -1.0000 -0.0000 -0.0000
vn -0.9975 -0.0016 0.0710
vn -0.9833 0.0041 -0.1822
vn 0.0004 -0.0226 0.9997
vn 0.0006 -0.0226 0.9997
vn 0.0006 0.0072 -1.0000
vn -0.3748 -0.0000 -0.9271
vn -0.4255 -0.0000 -0.9049
vn -0.9045 -0.0000 -0.4264
vn -0.9557 -0.0000 -0.2945
vn -1.0000 0.0073 0.0004
vn -1.0000 0.0060 0.0005
vn -1.0000 0.0066 0.0005
vn 0.4255 -0.0000 -0.9049
vn 0.3748 -0.0000 -0.9271
vn 0.9045 -0.0000 -0.4264
vn 0.9557 -0.0000 -0.2945
vn 1.0000 0.0073 0.0004
vn 1.0000 0.0060 0.0005
vn 1.0000 0.0066 0.0005
vn 0.0006 0.0072 1.0000
vn -0.4255 -0.0000 0.9049
vn -0.3748 -0.0000 0.9271
vn -0.9557 -0.0000 0.2945
vn -0.9045 -0.0000 0.4264
vn -1.0000 0.0071 0.0004
vn 0.4255 -0.0000 0.9049
vn 0.3748 -0.0000 0.9271
vn 0.9557 -0.0000 0.2945
vn 0.9045 -0.0000 0.4264
vn 1.0000 0.0071 0.0004
vn -0.0000 -1.0000 -0.0000
vn -0.0000 1.0000 -0.0000
vn -0.9170 -0.3968 0.0392
vn -0.8131 -0.0692 0.5780
vn -0.7819 -0.2334 0.5780
vn -0.9165 0.3961 -0.0555
vn -0.3322 0.9102 0.2475
vn -1.0000 0.0005 -0.0089
vn -0.8006 0.0684 -0.5953
vn -0.3273 -0.9100 -0.2547
vn -0.7672 0.2443 -0.5930
vn -0.4814 -0.7950 -0.3691
vn -1.0000 -0.0007 -0.0089
vn -0.8052 -0.0856 -0.5868
vn -0.6829 0.5201 -0.5130
vn -0.8704 -0.4888 -0.0581
vn -0.8716 0.4884 0.0425
vn -0.6954 -0.5167 0.4995
vn -0.4887 0.7954 0.3586
vn -0.8175 0.0863 0.5695
vn -0.9480 -0.0315 0.3167
vn -0.4794 -0.8448 0.2377
vn -0.9782 -0.2073 -0.0102
vn -0.9779 0.2088 -0.0083
vn -0.1813 0.9785 0.0981
vn -1.0000 -0.0000 -0.0095
vn -0.9779 -0.2088 -0.0102
vn -0.9782 0.2073 -0.0083
vn -0.7618 -0.5863 0.2754
vn -0.4603 0.8686 0.1835
vn -0.8993 0.0324 0.4361
vn 0.7879 -0.0007 -0.6158
vn 0.2431 -0.3440 -0.9070
vn 0.3771 -0.8689 -0.3207
vn 0.2600 0.3574 -0.8970
vn 0.3735 0.8848 -0.2786
vn 0.2793 -0.0055 -0.9602
vn 0.4548 -0.4097 -0.7907
vn 0.4544 0.4194 -0.7859
vn 0.4973 0.0323 -0.8670
vn 0.7873 -0.0002 -0.6166
vn 0.1789 -0.5788 -0.7956
vn 0.0253 -0.9981 -0.0568
vn 0.2125 0.0098 -0.9771
vn 0.4148 -0.5501 -0.7248
vn 0.4427 0.0266 -0.8963
vn 0.4228 0.5302 -0.7349
vn 0.1975 0.5804 -0.7900
vn 0.3847 0.8796 -0.2798
vn 0.7499 -0.0281 -0.6610
vn 0.3947 -0.4701 -0.7894
vn 0.6949 -0.4154 -0.5871
vn 0.3945 0.4782 -0.7847
vn 0.4370 0.8268 -0.3543
vn 0.4493 0.0006 -0.8934
vn 0.0083 0.4630 -0.8863
vn 0.0098 -0.4547 -0.8906
vn 0.0101 0.0339 -0.9994
vn -0.4325 0.0007 -0.9016
vn -0.3797 0.4776 -0.7923
vn -0.3795 -0.4707 -0.7965
vn -0.7392 -0.0273 -0.6730
vn -0.6787 -0.4335 -0.5929
vn -0.4351 0.8232 -0.3647
vn 0.5400 0.7057 -0.4587
vn 0.0103 -0.0459 -0.9989
vn 0.0088 0.5943 -0.8042
vn -0.5345 0.7030 -0.4692
vn 0.7465 0.0317 -0.6646
vn 0.6292 -0.5442 -0.5549
vn 0.0075 -0.5858 -0.8104
vn -0.6175 -0.5496 -0.5627
vn -0.7357 0.0300 -0.6767
vn -0.0000 -1.0000 -0.0047
vn 0.0210 -0.9997 0.0116
vn 0.0190 -0.9996 -0.0189
vn 0.9993 -0.0355 0.0093
vn 0.9774 0.2110 0.0104
vn 0.9993 0.0357 0.0096
vn 0.9775 0.2107 0.0102
vn 0.9773 -0.2117 0.0083
vn 0.9777 -0.2099 0.0082
vn 0.9993 0.0354 0.0096
vn 0.9779 0.2088 0.0102
vn 0.9776 0.2101 0.0103
vn 0.9993 -0.0357 0.0093
vn 0.9782 -0.2074 0.0082
vn 0.9777 -0.2099 0.0083
vn 0.9414 -0.0320 0.3358
vn 0.1677 -0.9782 -0.1223
vn 0.4716 -0.8466 0.2467
vn 0.7017 0.5226 -0.4842
vn 0.1789 0.9786 0.1015
vn 0.8668 0.0317 -0.4977
vn 0.0371 -0.9992 0.0126
vn 0.8629 0.0311 -0.5044
vn 0.0336 -0.9990 -0.0287
vn 0.8509 -0.0313 0.5243
vn 0.1753 0.9756 0.1322
vn 0.7866 0.2975 -0.5410
vn 1.0000 -0.0005 0.0089
vn 0.9162 -0.3968 0.0555
vn 0.8006 -0.0688 0.5953
vn 0.7670 -0.2455 0.5928
vn 0.8131 0.0695 -0.5780
vn 0.3323 -0.9101 -0.2476
vn 0.9169 0.3972 -0.0391
vn 0.7816 0.2352 -0.5777
vn 0.3272 0.9100 0.2547
vn 0.6957 0.5160 -0.4997
vn 1.0000 0.0007 0.0089
vn 0.8174 -0.0866 -0.5695
vn 0.8704 0.4888 0.0581
vn 0.4887 -0.7954 -0.3586
vn 0.8713 -0.4888 -0.0425
vn 0.4811 0.7953 0.3689
vn 0.6830 -0.5198 0.5132
vn 0.8052 0.0860 0.5868
vn 0.8662 0.0306 0.4987
vn 0.5355 -0.7013 0.4706
vn 0.7357 -0.0295 0.6766
vn 0.6350 -0.6409 0.4313
vn 0.6186 0.5469 0.5641
vn 0.7852 -0.3016 0.5408
vn 0.7784 -0.0005 0.6278
vn 0.0247 -0.9996 0.0121
vn 0.1688 -0.6103 0.7740
vn 0.1541 0.6049 0.7812
vn 0.3733 0.8711 0.3191
vn 0.1753 -0.0018 0.9845
vn 0.3871 0.5321 0.7530
vn 0.3926 -0.5180 0.7599
vn 0.4036 -0.0233 0.9146
vn -0.0084 -0.4519 0.8920
vn 0.7440 0.0266 0.6677
vn 0.4352 -0.8231 0.3648
vn 0.6786 0.4336 0.5928
vn -0.0098 0.4450 0.8955
vn -0.0102 -0.0341 0.9994
vn -0.7547 0.0284 0.6555
vn -0.4367 -0.8270 0.3541
vn -0.6949 0.4151 0.5871
vn -0.5416 -0.7031 0.4607
vn -0.8735 0.0314 0.4859
vn -0.7465 -0.0313 0.6646
vn -0.6305 0.5411 0.5565
vn -0.6327 -0.6536 0.4154
vn -0.7871 -0.3256 0.5239
vn -0.7819 -0.4998 0.3727
vn -0.0102 0.0461 0.9989
vn -0.8074 -0.0294 0.5892
vn -0.8975 0.0703 0.4354
vn -0.0088 -0.5943 0.8042
vn -0.0075 0.5858 0.8104
vn 0.1853 -0.5428 0.8192
vn 0.1964 0.5348 0.8218
vn 0.2206 -0.0196 0.9752
vn 0.2974 -0.0297 0.9543
vn 0.2809 -0.1161 0.9527
vn 0.3481 0.0196 0.9373
vn 0.4288 -0.3007 0.8519
vn 0.4305 0.2945 0.8532
vn 0.5477 -0.0365 0.8359
vn -0.0000 1.0000 0.0047
vn -0.0134 -0.3863 0.9223
vn 0.6489 0.0373 0.7600
vn 0.3027 -0.8914 0.3373
vn 0.0124 0.3869 0.9220
vn 0.5630 0.5197 0.6426
vn -0.0001 -0.0226 0.9997
vn -0.6489 0.0173 0.7607
vn -0.3801 -0.8246 0.4190
vn -0.4408 0.7335 0.5173
vn -0.4604 -0.7204 0.5187
vn 0.0005 0.0410 0.9992
vn -0.6411 -0.0011 0.7675
vn -0.4772 0.6726 0.5655
vn 0.0079 -0.4854 0.8742
vn -0.0088 0.4858 0.8740
vn 0.4179 -0.7752 0.4736
vn 0.5250 0.5912 0.6122
vn 0.6408 -0.0429 0.7665
vn 0.4799 0.0057 0.8773
vn 0.1487 -0.9744 0.1688
vn -0.0008 -0.2084 0.9780
vn 0.0011 0.2104 0.9776
vn 0.1889 0.9491 0.2520
vn 0.0002 0.0010 1.0000
vn -0.0008 -0.2105 0.9776
vn 0.0011 0.2083 0.9781
vn 0.2782 -0.8513 0.4448
vn 0.3126 0.7866 0.5325
vn 0.6195 -0.0078 0.7849
vn -0.7791 0.0661 -0.6234
vn -0.8887 -0.3656 -0.2766
vn -0.1636 -0.9773 -0.1347
vn -0.9186 0.3503 -0.1830
vn -0.5233 -0.7359 -0.4297
vn -0.9679 0.0114 -0.2511
vn -0.7942 -0.4120 -0.4466
vn -0.7926 0.4143 -0.4474
vn -0.8694 -0.0817 -0.4873
vn -0.7803 0.0598 -0.6226
vn -0.8733 -0.4189 -0.2486
vn -0.0411 -0.9988 -0.0257
vn -0.9810 0.0440 -0.1891
vn -0.7652 -0.4775 -0.4319
vn -0.9060 -0.1131 -0.4079
vn -0.7197 0.5606 -0.4096
vn -0.7650 0.6307 -0.1301
vn -0.4954 -0.7618 -0.4174
vn -0.6964 0.0993 -0.7108
vn -0.7963 -0.4635 -0.3887
vn -0.2581 -0.9260 -0.2756
vn -0.7901 0.4747 -0.3878
vn -0.6006 -0.4523 -0.6593
vn -0.8977 0.0009 -0.4406
vn -0.8802 0.4688 -0.0746
vn -0.8848 -0.4595 0.0777
vn -1.0000 -0.0036 0.0003
vn -0.8974 0.0096 0.4411
vn -0.7916 0.4713 0.3889
vn -0.7942 -0.4677 0.3880
vn -0.6980 -0.0736 0.7123
vn -0.6556 0.2397 0.7161
vn -0.2790 0.9118 0.3013
vn -0.6536 0.3198 -0.6859
vn -0.9998 0.0185 0.0001
vn -0.8054 0.5881 0.0745
vn -0.4297 0.7849 0.4464
vn -0.7005 -0.1231 -0.7030
vn -0.4153 -0.8022 -0.4290
vn -0.8110 -0.5807 -0.0719
vn -0.6384 -0.3878 0.6649
vn -0.7007 0.1117 0.7046
vn -0.0047 -1.0000 -0.0000
vn 0.0128 -0.9998 -0.0157
vn -0.0222 -0.9996 -0.0158
vn -0.0001 0.0066 -1.0000
vn 0.0009 0.2129 -0.9771
vn -0.0002 -0.0086 -1.0000
vn 0.0007 0.2130 -0.9771
vn -0.0010 -0.2141 -0.9768
vn -0.0012 -0.2114 -0.9774
vn -0.0002 -0.0085 -1.0000
vn 0.0007 0.2105 -0.9776
vn 0.0009 0.2118 -0.9773
vn -0.0001 0.0067 -1.0000
vn -0.0012 -0.2083 -0.9781
vn -0.0011 -0.2117 -0.9773
vn 0.4798 0.0009 -0.8774
vn -0.2867 -0.9165 -0.2790
vn 0.1472 -0.9664 -0.2107
vn -0.2087 0.9626 -0.1730
vn 0.1908 0.9586 -0.2114
vn -0.6820 -0.0025 -0.7314
vn 0.0211 -0.9985 -0.0501
vn -0.6882 -0.0032 -0.7255
vn -0.0287 -0.9983 -0.0508
vn 0.6893 -0.0005 -0.7245
vn 0.3249 0.9049 -0.2750
vn -0.2280 0.9545 -0.1922
vn 0.0001 0.0226 -0.9997
vn -0.0124 -0.3879 -0.9216
vn 0.6489 -0.0177 -0.7607
vn 0.4405 -0.7340 -0.5170
vn -0.6489 -0.0369 -0.7600
vn -0.5630 -0.5196 -0.6427
vn 0.0134 0.3868 -0.9221
vn -0.3025 0.8915 -0.3371
vn 0.3799 0.8247 -0.4189
vn -0.4182 0.7749 -0.4739
vn -0.0005 -0.0410 -0.9992
vn -0.6408 0.0425 -0.7665
vn -0.0079 0.4854 -0.8742
vn -0.5250 -0.5912 -0.6122
vn 0.0088 -0.4864 -0.8737
vn 0.4601 0.7208 -0.5184
vn 0.4774 -0.6723 -0.5657
vn 0.6411 0.0015 -0.7675
vn 0.5021 0.0887 -0.8602
vn 0.4308 -0.7842 -0.4467
vn 0.7007 -0.1113 -0.7047
vn 0.2686 -0.8903 -0.3677
vn 0.6402 0.3834 -0.6657
vn 0.3631 -0.7857 -0.5008
vn 0.7803 0.0517 -0.6233
vn 0.0408 -0.9988 -0.0257
vn 0.8481 -0.4777 -0.2291
vn 0.7634 0.6329 -0.1294
vn 0.4962 -0.7607 -0.4184
vn 0.9845 -0.0060 -0.1753
vn 0.7486 0.5300 -0.3983
vn 0.7728 -0.4818 -0.4130
vn 0.9158 -0.1107 -0.3862
vn 0.8839 -0.4617 0.0749
vn 0.6932 0.0733 -0.7170
vn 0.2791 -0.9118 -0.3014
vn 0.6556 -0.2400 -0.7160
vn 0.8882 0.4528 -0.0780
vn 1.0000 0.0037 -0.0003
vn 0.6914 -0.0991 0.7157
vn 0.6009 0.4512 0.6598
vn 0.2581 0.9259 0.2757
vn 0.6557 -0.3138 0.6868
vn 0.5001 -0.1158 0.8582
vn 0.7005 0.1235 0.7029
vn 0.4166 0.8011 0.4297
vn 0.3137 0.8456 0.4319
vn 0.2390 0.9152 0.3245
vn 0.3781 0.4780 0.7929
vn 0.9998 -0.0186 -0.0001
vn 0.6237 0.1209 0.7722
vn 0.2856 0.7731 0.5663
vn 0.8054 -0.5880 -0.0747
vn 0.8109 0.5807 0.0721
vn 0.8236 -0.5460 -0.1534
vn 0.8210 0.5244 -0.2257
vn 0.9752 0.0022 -0.2212
vn 0.9020 -0.3147 -0.2956
vn 0.9625 -0.1470 -0.2279
vn 0.9452 -0.0550 -0.3218
vn 0.8371 -0.3469 -0.4231
vn 0.8449 0.3180 -0.4302
vn 0.8223 -0.0481 -0.5670
vn 0.0047 1.0000 -0.0000
vn 0.8940 -0.4470 0.0303
vn 0.7938 -0.0451 -0.6066
vn 0.4377 -0.8249 -0.3577
vn 0.9350 0.3443 -0.0846
vn 0.5417 0.7348 -0.4082
vn 0.9998 0.0071 -0.0211
vn 0.8042 -0.1941 0.5617
vn 0.6182 0.6365 0.4612
vn 0.2559 0.9510 0.1738
vn 0.7843 -0.2387 0.5726
vn 0.9874 -0.1569 -0.0185
vn 0.8231 0.1251 0.5539
vn 0.4271 0.8537 0.2981
vn 0.8404 -0.5358 -0.0813
vn 0.8973 0.4403 0.0302
vn 0.5308 -0.7340 -0.4237
vn 0.6062 0.6533 -0.4537
vn 0.7977 -0.0763 -0.5982
vn 0.9375 -0.0182 -0.3474
vn 0.1664 -0.9814 -0.0953
vn 0.9656 -0.2594 -0.0204
vn 0.9875 0.1560 -0.0206
vn 0.5684 0.7601 -0.3149
vn 0.9982 -0.0561 -0.0210
vn 0.9652 -0.2609 -0.0204
vn 0.9878 0.1544 -0.0206
vn 0.4233 -0.8870 -0.1845
vn 0.8089 0.4890 -0.3264
vn 0.8806 -0.0948 -0.4642
vn -0.7766 -0.0404 0.6287
vn -0.1691 -0.3245 0.9307
vn -0.2058 0.9575 0.2021
vn -0.2788 0.3909 0.8772
vn -0.0848 0.9893 0.1184
vn -0.2471 0.0369 0.9683
vn -0.4526 -0.3867 0.8035
vn -0.4070 0.4404 0.8002
vn -0.4596 0.1511 0.8752
vn -0.7758 -0.0324 0.6302
vn -0.1141 -0.7043 0.7007
vn -0.0712 -0.9972 0.0217
vn -0.1821 0.0148 0.9832
vn -0.4087 -0.5719 0.7112
vn -0.3986 0.2004 0.8950
vn -0.3872 0.4933 0.7790
vn -0.2509 0.3308 0.9097
vn -0.0860 0.9894 0.1168
vn -0.7345 -0.0717 0.6748
vn -0.3952 -0.4537 0.7987
vn -0.4565 0.7819 0.4246
vn -0.3460 0.4881 0.8013
vn -0.2089 0.9500 0.2323
vn -0.4207 0.0334 0.9066
vn 0.1817 0.4498 0.8745
vn -0.1593 -0.4476 0.8799
vn 0.0192 -0.0260 0.9995
vn 0.4591 -0.0266 0.8880
vn 0.4289 0.4493 0.7837
vn 0.3800 -0.4866 0.7867
vn 0.7552 0.1274 0.6430
vn 0.1702 -0.9734 0.1533
vn 0.3320 -0.9053 0.2649
vn -0.3723 0.8466 0.3803
vn 0.0268 0.0478 0.9985
vn -0.0952 0.5860 0.8047
vn 0.7564 -0.2422 0.6076
vn -0.7065 0.2066 0.6769
vn -0.7491 -0.0207 0.6621
vn 0.1159 -0.5890 0.7998
vn 0.3426 -0.8908 0.2986
vn 0.7237 -0.2503 0.6431
vn -0.0537 -0.9986 0.0003
vn -0.0825 -0.9964 -0.0172
vn -0.0920 -0.9954 0.0269
vn -0.9949 0.0985 0.0209
vn -0.9647 0.2626 0.0204
vn -0.9997 0.0130 0.0210
vn -0.9646 0.2630 0.0205
vn -0.9870 -0.1594 0.0204
vn -0.9874 -0.1569 0.0206
vn -0.9997 0.0133 0.0210
vn -0.9651 0.2611 0.0205
vn -0.9649 0.2619 0.0205
vn -0.9949 0.0988 0.0209
vn -0.9878 -0.1544 0.0206
vn -0.9873 -0.1574 0.0205
vn -0.9482 0.0913 -0.3044
vn -0.7910 -0.1163 0.6007
vn -0.1747 -0.9805 -0.0899
vn -0.1499 0.9819 0.1158
vn -0.5572 0.7833 -0.2755
vn -0.8491 0.0169 0.5279
vn -0.0340 -0.9991 -0.0257
vn -0.8450 0.0155 0.5345
vn -0.0377 -0.9992 0.0165
vn -0.8658 0.0842 -0.4933
vn -0.8231 -0.0894 -0.5608
vn -0.1587 0.9798 0.1215
vn -0.9998 -0.0071 0.0211
vn -0.9347 -0.3452 0.0846
vn -0.8043 0.1938 -0.5617
vn -0.2559 -0.9510 -0.1737
vn -0.7937 0.0454 0.6066
vn -0.5418 -0.7347 0.4082
vn -0.8939 0.4473 -0.0303
vn -0.4374 0.8252 0.3574
vn -0.6185 -0.6361 -0.4613
vn -0.5311 0.7336 0.4240
vn -0.9874 0.1569 0.0185
vn -0.7977 0.0759 0.5982
vn -0.8404 0.5358 0.0813
vn -0.6061 -0.6534 0.4536
vn -0.8971 -0.4408 -0.0302
vn -0.7841 0.2396 -0.5725
vn -0.4272 -0.8536 -0.2982
vn -0.8231 -0.1248 -0.5540
vn -0.8741 -0.1337 -0.4669
vn -0.7553 0.2464 -0.6073
vn -0.7237 0.2507 -0.6430
vn -0.2244 0.9633 -0.1470
vn -0.3430 0.8904 -0.2992
vn -0.1838 0.9749 -0.1255
vn -0.7952 -0.0355 -0.6053
vn -0.0728 -0.9953 -0.0644
vn -0.1259 -0.6925 -0.7103
vn -0.2769 0.3860 -0.8799
vn -0.0901 0.9935 -0.0701
vn -0.2079 -0.0566 -0.9765
vn -0.4081 0.4552 -0.7913
vn -0.4248 -0.5519 -0.7177
vn -0.4090 0.2347 -0.8818
vn -0.1821 -0.4408 -0.8789
vn -0.7597 -0.1272 -0.6378
vn -0.3318 0.9054 -0.2648
vn -0.1702 0.9734 -0.1533
vn 0.1595 0.4392 -0.8841
vn -0.0192 0.0262 -0.9995
vn 0.7395 0.0718 -0.6693
vn 0.2088 -0.9500 -0.2323
vn 0.4567 -0.7817 -0.4247
vn 0.3730 -0.8458 -0.3814
vn 0.8631 0.0728 -0.4998
vn 0.7065 -0.2063 -0.6770
vn 0.7488 0.0131 -0.6627
vn 0.2411 -0.9472 -0.2114
vn 0.2968 -0.9228 -0.2458
vn 0.4777 -0.8333 -0.2781
vn -0.0268 -0.0480 -0.9985
vn 0.7712 -0.1964 -0.6056
vn 0.6693 -0.6545 -0.3518
vn 0.0957 -0.5861 -0.8046
vn -0.1163 0.5889 -0.7998
vn -0.3177 -0.5034 -0.8035
vn -0.1119 0.5585 -0.8219
vn -0.2485 0.0394 -0.9678
vn -0.1999 0.4578 -0.8663
vn -0.3154 0.5641 -0.7631
vn -0.3761 0.0467 -0.9254
vn -0.4828 -0.2534 -0.8383
vn -0.4299 0.3417 -0.8357
vn -0.5595 0.1759 -0.8099
vn 0.0537 0.9986 -0.0003
vn 0.0119 -0.3879 -0.9216
vn -0.6492 -0.0174 -0.7604
vn -0.4414 -0.7331 -0.5175
vn -0.0139 0.3852 -0.9227
vn -0.3802 0.8247 -0.4188
vn -0.0006 0.0226 -0.9997
vn 0.6485 -0.0373 -0.7603
vn 0.5626 -0.5201 -0.6426
vn 0.3026 0.8914 -0.3374
vn 0.5250 -0.5907 -0.6128
vn -0.0000 -0.0410 -0.9992
vn 0.6405 0.0428 -0.7668
vn 0.4176 0.7754 -0.4737
vn -0.0092 -0.4864 -0.8737
vn 0.0074 0.4849 -0.8746
vn -0.4777 -0.6723 -0.5655
vn -0.4603 0.7209 -0.5181
vn -0.6414 0.0012 -0.7672
vn -0.4801 0.0013 -0.8772
vn -0.1475 -0.9663 -0.2109
vn 0.0006 -0.2083 -0.9781
vn -0.0013 0.2105 -0.9776
vn -0.1908 0.9586 -0.2114
vn -0.0003 -0.0010 -1.0000
vn 0.0007 -0.2104 -0.9776
vn -0.0013 0.2084 -0.9780
vn -0.2731 -0.8371 -0.4741
vn -0.3190 0.8006 -0.5072
vn -0.6194 -0.0127 -0.7850
vn 0.7798 -0.0580 0.6234
vn 0.9205 -0.3425 0.1882
vn 0.5212 0.7385 0.4277
vn 0.8870 0.3725 0.2729
vn 0.1633 0.9774 0.1345
vn 0.9676 0.0249 0.2512
vn 0.7962 -0.4076 0.4472
vn 0.7908 0.4187 0.4465
vn 0.8698 0.0747 0.4878
vn 0.7809 -0.0520 0.6225
vn 0.7695 -0.6243 0.1350
vn 0.0475 -0.9987 0.0163
vn 0.9817 0.0156 0.1899
vn 0.7276 -0.5491 0.4112
vn 0.9063 0.1088 0.4083
vn 0.7561 0.4936 0.4297
vn 0.8688 0.4308 0.2441
vn 0.1615 0.9774 0.1364
vn 0.6986 -0.0731 0.7118
vn 0.7946 -0.4672 0.3877
vn 0.6559 0.2405 0.7155
vn 0.7915 0.4720 0.3883
vn 0.2793 0.9118 0.3012
vn 0.8977 0.0092 0.4404
vn 0.8801 0.4688 -0.0750
vn 0.8848 -0.4595 0.0773
vn 1.0000 -0.0036 -0.0002
vn 0.8974 0.0003 -0.4412
vn 0.7901 0.4744 -0.3883
vn 0.7959 -0.4639 -0.3890
vn 0.6958 0.0988 -0.7114
vn 0.2580 -0.9259 -0.2758
vn 0.6006 -0.4509 -0.6603
vn 0.4298 0.7851 0.4460
vn 0.9998 0.0184 -0.0004
vn 0.8055 0.5879 0.0742
vn 0.6533 0.3195 -0.6864
vn 0.7012 0.1117 0.7042
vn 0.6390 -0.3873 0.6646
vn 0.8108 -0.5808 -0.0723
vn 0.4148 -0.8024 -0.4291
vn 0.7001 -0.1231 -0.7034
vn 0.0047 -1.0000 -0.0000
vn -0.0153 -0.9997 0.0181
vn 0.0257 -0.9995 0.0189
vn 0.0003 0.0085 1.0000
vn -0.0008 0.2127 0.9771
vn 0.0004 -0.0067 1.0000
vn -0.0006 0.2128 0.9771
vn 0.0012 -0.2143 0.9768
vn 0.0014 -0.2116 0.9774
vn 0.0004 -0.0066 1.0000
vn -0.0006 0.2103 0.9776
vn -0.0007 0.2117 0.9773
vn 0.0003 0.0086 1.0000
vn 0.0014 -0.2084 0.9780
vn 0.0013 -0.2119 0.9773
vn -0.4796 0.0052 0.8775
vn 0.2899 -0.9264 0.2403
vn -0.1485 -0.9744 0.1688
vn 0.2070 0.9546 0.2144
vn -0.1887 0.9492 0.2519
vn 0.6821 0.0015 0.7313
vn -0.0211 -0.9998 0.0051
vn 0.6883 0.0005 0.7254
vn 0.0287 -0.9996 0.0058
vn -0.6892 0.0031 0.7246
vn -0.3207 0.8944 0.3118
vn 0.2259 0.9459 0.2330
vn 0.0139 -0.3863 0.9223
vn -0.6485 0.0369 0.7603
vn -0.3024 -0.8915 0.3373
vn 0.6492 0.0177 0.7604
vn 0.3802 -0.8247 0.4188
vn -0.0119 0.3884 0.9214
vn 0.4409 0.7337 0.5170
vn -0.5624 0.5204 0.6425
vn 0.4781 0.6717 0.5659
vn -0.0000 0.0410 0.9992
vn 0.6414 -0.0015 0.7672
vn 0.0092 0.4864 0.8737
vn 0.4603 -0.7209 0.5181
vn -0.0074 -0.4854 0.8742
vn -0.5247 0.5914 0.6124
vn -0.4177 -0.7753 0.4738
vn -0.6405 -0.0425 0.7668
vn -0.4996 -0.1149 0.8586
vn -0.6549 -0.3153 0.6868
vn -0.7000 0.1235 0.7034
vn -0.3136 0.8454 0.4323
vn -0.4160 0.8015 0.4296
vn -0.2388 0.9151 0.3248
vn -0.7797 -0.0595 0.6233
vn -0.0471 -0.9988 0.0163
vn -0.7590 -0.6390 0.1251
vn -0.8533 0.4663 0.2333
vn -0.1613 0.9774 0.1365
vn -0.9839 -0.0369 0.1749
vn -0.7805 0.4681 0.4144
vn -0.7419 -0.5401 0.3974
vn -0.9155 0.1142 0.3859
vn -0.8839 -0.4615 0.0753
vn -0.6910 -0.0995 0.7159
vn -0.6005 0.4514 0.6600
vn -0.2580 0.9260 0.2758
vn -0.8882 0.4529 -0.0776
vn -1.0000 0.0036 0.0001
vn -0.6935 0.0739 -0.7166
vn -0.2792 -0.9118 -0.3011
vn -0.6560 -0.2401 -0.7156
vn -0.4315 -0.7837 -0.4468
vn -0.5027 0.0879 -0.8600
vn -0.7012 -0.1113 -0.7042
vn -0.6411 0.3817 -0.6658
vn -0.2688 -0.8903 -0.3675
vn -0.3633 -0.7859 -0.5004
vn -0.3056 -0.7323 -0.6086
vn -0.9998 -0.0185 0.0004
vn -0.6244 -0.1078 -0.7737
vn -0.4033 -0.3686 -0.8375
vn -0.8054 -0.5880 -0.0743
vn -0.8109 0.5807 0.0724
vn -0.8153 -0.5320 0.2285
vn -0.8292 0.5385 0.1498
vn -0.9752 -0.0031 0.2212
vn -0.9614 0.1619 0.2225
vn -0.8927 0.3399 0.2960
vn -0.9460 0.0348 0.3223
vn -0.8414 -0.3260 0.4310
vn -0.8404 0.3388 0.4230
vn -0.8220 0.0570 0.5666
vn -0.0047 1.0000 -0.0000
vt 0.000000 0.000000
vt -0.509521 1.452160
vt -0.491115 1.475610
vt -0.509521 1.481770
vt -0.472708 1.452160
vt -0.472708 1.481770
vt -0.491115 1.452160
vt -0.491115 1.428710
vt -0.509521 1.422550
vt -0.472708 1.422550
vt -0.509521 1.494460
vt -0.491115 1.502180
vt -0.472708 1.494460
vt -0.509521 1.409860
vt -0.472708 1.409860
vt -0.491115 1.402140
vt -0.491115 1.391780
vt -0.509521 1.401090
vt -0.509521 1.378710
vt -0.472708 1.378710
vt -0.472708 1.401090
vt -0.491115 1.378710
vt -0.509521 1.349270
vt -0.491115 1.349270
vt -0.472708 1.349270
vt -0.509521 1.326290
vt -0.491115 1.326290
vt -0.472708 1.326290
vt -0.509521 1.300540
vt -0.472708 1.300540
vt -0.491115 1.291220
vt -0.469341 1.401880
vt -0.457364 1.420290
vt -0.472701 1.420290
vt -0.457364 1.383480
vt -0.472701 1.383480
vt -0.454004 1.401880
vt -0.443681 1.420290
vt -0.443681 1.383480
vt -0.440321 1.401880
vt -0.444921 1.420290
vt -0.441562 1.401880
vt -0.444921 1.383480
vt -0.511533 1.401880
vt -0.504005 1.420290
vt -0.516895 1.420290
vt -0.504005 1.383480
vt -0.516895 1.383480
vt -0.501324 1.401880
vt -0.491115 1.383480
vt -0.491115 1.420290
vt -0.491115 1.401880
vt -0.480907 1.401880
vt -0.478225 1.383480
vt -0.478225 1.420290
vt -0.470697 1.401880
vt -0.465335 1.420290
vt -0.465335 1.383480
vt -0.454287 1.383480
vt -0.527944 1.383480
vt -0.447567 1.401880
vt -0.454287 1.420290
vt -0.527944 1.420290
vt -0.534663 1.401880
vt -0.465335 1.422550
vt -0.472701 1.401090
vt -0.454286 1.409860
vt -0.478225 1.416410
vt -0.454657 1.452160
vt -0.439032 1.452160
vt -0.454286 1.494460
vt -0.465335 1.481770
vt -0.491115 1.511980
vt -0.491115 1.494040
vt -0.516895 1.481770
vt -0.527943 1.494460
vt -0.543198 1.452160
vt -0.527573 1.452160
vt -0.516895 1.422550
vt -0.527943 1.409860
vt -0.509529 1.401090
vt -0.504005 1.416410
vt -0.491115 1.410280
vt -0.491115 1.392330
vt -0.509529 1.378710
vt -0.472701 1.378710
vt -0.509529 1.349270
vt -0.472701 1.349270
vt -0.524866 1.378710
vt -0.472701 1.326290
vt -0.472701 1.300540
vt -0.491115 1.291780
vt -0.509529 1.300540
vt -0.509529 1.326290
vt -0.524866 1.326290
vt -0.524866 1.300540
vt -0.537309 1.319070
vt -0.537309 1.306200
vt -0.524866 1.349270
vt -0.538549 1.371280
vt -0.538549 1.356700
vt -0.491115 1.377370
vt -0.509521 1.356700
vt -0.491115 1.348400
vt -0.509521 1.371280
vt -0.472708 1.356700
vt -0.472708 1.371280
vt -0.491115 1.301540
vt -0.509521 1.319070
vt -0.509521 1.306200
vt -0.491115 1.327320
vt -0.472708 1.319070
vt -0.472708 1.306200
vt -0.491115 1.384800
vt -0.491115 1.331770
vt -0.491115 1.343810
vt -0.512889 1.401880
vt -0.527943 1.420290
vt -0.509529 1.420290
vt -0.527943 1.383480
vt -0.509529 1.383480
vt -0.524866 1.420290
vt -0.524866 1.383480
vt -0.528226 1.401880
vt -0.538549 1.383480
vt -0.538549 1.420290
vt -0.541909 1.401880
vt -0.454286 1.420290
vt -0.454286 1.383480
vt -0.537309 1.420290
vt -0.537309 1.383480
vt -0.540668 1.401880
vt -0.457364 1.300540
vt -0.457364 1.326290
vt -0.444921 1.319070
vt -0.444921 1.306200
vt -0.457364 1.349270
vt -0.457364 1.378710
vt -0.443681 1.371280
vt -0.443681 1.356700
vt -0.454287 1.409860
vt -0.527944 1.409860
vt -0.527944 1.494460
vt -0.454287 1.494460
s 1
f 1/1/1 2/1/1 3/1/1
f 1/1/1 4/1/1 2/1/1
f 2/1/1 4/1/1 5/1/1
f 1/1/1 6/1/1 4/1/1
f 6/1/1 1/1/1 7/1/1
f 8/1/1 4/1/1 6/1/1
f 8/1/1 9/1/1 4/1/1
f 10/1/2 11/1/3 12/1/3
f 13/1/4 12/1/3 11/1/3
f 12/1/3 13/1/4 14/1/4
f 14/1/4 13/1/4 15/1/4
f 11/1/3 10/1/2 16/1/2
f 17/1/5 16/1/2 10/1/2
f 16/1/2 17/1/5 18/1/6
f 17/1/5 19/1/7 18/1/6
f 19/1/7 17/1/5 20/1/8
f 20/1/8 21/1/9 19/1/7
f 22/1/10 23/1/11 24/1/12
f 23/1/11 22/1/10 25/1/13
f 25/1/13 26/1/14 23/1/11
f 27/1/15 26/1/14 25/1/13
f 26/1/14 27/1/15 28/1/15
f 29/1/16 28/1/15 27/1/15
f 28/1/15 29/1/16 30/1/16
f 29/1/16 31/1/17 30/1/16
f 31/1/17 29/1/16 32/1/17
f 32/1/17 33/1/17 31/1/17
f 34/1/18 35/1/18 36/1/19
f 35/1/18 34/1/18 37/1/19
f 38/1/20 39/1/21 40/1/22
f 40/1/22 39/1/21 41/1/23
f 39/1/21 38/1/20 42/1/20
f 43/1/20 42/1/20 38/1/20
f 42/1/20 43/1/20 44/1/20
f 45/1/24 40/1/22 41/1/23
f 45/1/24 41/1/23 46/1/25
f 45/1/24 46/1/25 47/1/25
f 48/1/26 47/1/25 46/1/25
f 47/1/25 48/1/26 49/1/27
f 50/1/28 51/1/29 52/1/20
f 52/1/20 51/1/29 53/1/20
f 54/1/20 52/1/20 53/1/20
f 54/1/20 53/1/20 55/1/20
f 50/1/28 56/1/30 51/1/29
f 56/1/30 50/1/28 57/1/31
f 57/1/31 58/1/32 56/1/30
f 58/1/32 57/1/31 59/1/32
f 58/1/32 59/1/32 60/1/33
f 59/1/32 61/1/34 60/1/33
f 62/1/35 63/1/35 64/1/36
f 62/1/35 65/1/35 63/1/35
f 66/1/35 65/1/35 62/1/35
f 64/1/36 63/1/35 67/1/37
f 68/1/38 64/1/36 67/1/37
f 68/1/38 67/1/37 69/1/39
f 68/1/38 69/1/39 70/1/25
f 71/1/25 70/1/25 69/1/39
f 71/1/25 72/1/27 70/1/25
f 72/1/27 71/1/25 73/1/40
f 74/1/35 75/1/35 76/1/41
f 75/1/35 74/1/35 77/1/35
f 78/1/35 75/1/35 77/1/35
f 76/1/41 79/1/42 74/1/35
f 80/1/43 79/1/42 76/1/41
f 79/1/42 80/1/43 81/1/44
f 82/1/32 81/1/44 80/1/43
f 82/1/32 83/1/32 81/1/44
f 84/1/34 83/1/32 82/1/32
f 84/1/34 85/1/45 83/1/32
f 86/1/46 87/1/46 88/1/46
f 87/1/46 86/1/46 89/1/46
f 88/1/46 87/1/46 90/1/46
f 87/1/46 91/1/46 90/1/46
f 91/1/46 87/1/46 92/1/46
f 93/1/46 92/1/46 87/1/46
f 92/1/46 93/1/46 94/1/46
f 95/1/46 96/1/46 97/1/46
f 95/1/46 97/1/46 98/1/46
f 99/1/46 97/1/46 96/1/46
f 97/1/46 99/1/46 100/1/46
f 97/1/46 100/1/46 101/1/46
f 97/1/46 101/1/46 102/1/46
f 101/1/46 103/1/46 102/1/46
f 104/1/46 105/1/46 106/1/46
f 105/1/46 104/1/46 107/1/46
f 105/1/46 107/1/46 108/1/46
f 108/1/46 109/1/46 105/1/46
f 110/1/46 105/1/46 109/1/46
f 110/1/46 111/1/46 105/1/46
f 111/1/46 110/1/46 112/1/46
f 113/1/46 114/1/46 115/1/46
f 114/1/46 116/1/46 115/1/46
f 114/1/46 117/1/46 116/1/46
f 117/1/46 114/1/46 118/1/46
f 114/1/46 119/1/46 118/1/46
f 120/1/46 119/1/46 114/1/46
f 120/1/46 121/1/46 119/1/46
f 122/1/47 123/1/47 124/1/47
f 123/1/47 125/1/47 124/1/47
f 126/1/47 125/1/47 123/1/47
f 127/1/47 125/1/47 126/1/47
f 125/1/47 127/1/47 128/1/47
f 128/1/47 129/1/47 125/1/47
f 125/1/47 129/1/47 130/1/47
f 131/1/47 132/1/47 133/1/47
f 133/1/47 132/1/47 134/1/47
f 134/1/47 135/1/47 133/1/47
f 134/1/47 136/1/47 135/1/47
f 136/1/47 134/1/47 137/1/47
f 137/1/47 134/1/47 138/1/47
f 134/1/47 139/1/47 138/1/47
f 140/1/47 141/1/47 142/1/47
f 140/1/47 142/1/47 143/1/47
f 141/1/47 144/1/47 142/1/47
f 141/1/47 145/1/47 144/1/47
f 145/1/47 141/1/47 146/1/47
f 141/1/47 147/1/47 146/1/47
f 147/1/47 141/1/47 148/1/47
f 149/1/47 150/1/47 151/1/47
f 150/1/47 149/1/47 152/1/47
f 153/1/47 151/1/47 150/1/47
f 154/1/47 151/1/47 153/1/47
f 151/1/47 154/1/47 155/1/47
f 156/1/47 151/1/47 155/1/47
f 156/1/47 157/1/47 151/1/47
f 158/1/45 159/1/34 160/1/34
f 160/1/34 159/1/34 161/1/33
f 162/1/40 163/1/27 164/1/27
f 163/1/27 165/1/26 164/1/27
f 166/1/45 167/1/33 168/1/34
f 167/1/33 166/1/45 169/1/34
f 170/1/40 171/1/27 172/1/26
f 170/1/40 172/1/26 173/1/27
f 174/1/35 175/1/35 176/1/35
f 175/1/35 177/1/35 176/1/35
f 178/1/35 179/1/35 180/1/35
f 180/1/35 179/1/35 181/1/35
f 182/1/20 183/1/20 184/1/20
f 182/1/20 184/1/20 185/1/20
f 186/1/20 187/1/20 188/1/20
f 187/1/20 186/1/20 189/1/20
f 190/1/45 191/1/34 192/1/34
f 192/1/34 191/1/34 193/1/33
f 194/1/40 195/1/27 196/1/27
f 195/1/27 197/1/26 196/1/27
f 198/1/45 199/1/33 200/1/34
f 199/1/33 198/1/45 201/1/34
f 202/1/40 203/1/27 204/1/26
f 202/1/40 204/1/26 205/1/27
f 206/1/35 207/1/35 208/1/35
f 207/1/35 206/1/35 209/1/35
f 210/1/35 211/1/35 212/1/35
f 210/1/35 212/1/35 213/1/35
f 214/1/20 215/1/20 216/1/20
f 216/1/20 215/1/20 217/1/20
f 218/1/20 219/1/20 220/1/20
f 219/1/20 221/1/20 220/1/20
f 222/2/48 223/3/49 224/4/50
f 223/3/49 225/5/51 226/6/52
f 223/3/49 222/2/48 227/7/53
f 225/5/51 223/3/49 227/7/53
f 227/7/53 222/2/48 228/8/54
f 228/8/54 225/5/51 227/7/53
f 228/8/54 222/2/48 229/9/55
f 225/5/51 228/8/54 230/10/56
f 231/11/57 232/7/58 233/12/59
f 232/7/58 234/13/60 233/12/59
f 232/7/58 231/11/57 235/2/61
f 234/13/60 232/7/58 236/5/62
f 237/14/63 232/7/58 235/2/61
f 232/7/58 238/15/64 236/5/62
f 232/7/58 237/14/63 239/16/65
f 238/15/64 232/7/58 239/16/65
f 240/17/66 241/18/67 242/19/68
f 240/17/66 243/20/69 244/21/70
f 242/19/68 245/22/71 240/17/66
f 243/20/69 240/17/66 245/22/71
f 245/22/71 242/19/68 246/23/72
f 243/20/69 245/22/71 247/24/71
f 247/24/71 245/22/71 246/23/72
f 248/25/73 243/20/69 247/24/71
f 247/24/71 246/23/72 249/26/68
f 248/25/73 247/24/71 250/27/71
f 250/27/71 247/24/71 249/26/68
f 251/28/73 248/25/73 250/27/71
f 250/27/71 249/26/68 252/29/74
f 250/27/71 253/30/75 251/28/73
f 254/31/76 250/27/71 252/29/74
f 253/30/75 250/27/71 254/31/76
f 255/32/77 256/33/78 257/34/79
f 258/35/80 255/32/77 259/36/81
f 256/33/78 255/32/77 260/37/82
f 255/32/77 258/35/80 260/37/82
f 260/37/82 261/38/83 256/33/78
f 262/39/84 260/37/82 258/35/80
f 261/38/83 260/37/82 263/40/85
f 260/37/82 262/39/84 263/40/85
f 264/32/86 265/33/87 266/34/88
f 265/33/87 264/32/86 267/37/89
f 267/37/89 268/41/90 265/33/87
f 268/41/90 267/37/89 269/42/91
f 267/37/89 270/43/92 269/42/91
f 270/43/92 267/37/89 271/35/93
f 264/32/86 271/35/93 267/37/89
f 271/35/93 264/32/86 272/36/94
f 273/44/95 274/45/96 275/46/97
f 276/47/98 273/44/95 277/48/99
f 273/44/95 276/47/98 278/49/100
f 278/49/100 274/45/96 273/44/95
f 279/50/101 278/49/100 276/47/98
f 278/49/100 280/51/102 274/45/96
f 278/49/100 279/50/101 281/52/103
f 281/52/103 280/51/102 278/49/100
f 279/50/101 282/53/104 281/52/103
f 282/53/104 280/51/102 281/52/103
f 282/53/104 279/50/101 283/54/105
f 280/51/102 282/53/104 284/55/106
f 284/55/106 285/56/107 286/57/108
f 285/56/107 284/55/106 282/53/104
f 283/54/105 285/56/107 282/53/104
f 287/58/109 285/56/107 283/54/105
f 288/59/110 289/52/111 290/50/112
f 289/52/111 291/60/113 290/50/112
f 289/52/111 288/59/110 292/61/114
f 293/62/115 289/52/111 292/61/114
f 289/52/111 293/62/115 294/51/116
f 295/63/117 289/52/111 294/51/116
f 289/52/111 295/63/117 296/64/118
f 291/60/113 289/52/111 296/64/118
f 297/65/119 298/66/119 299/67/119
f 298/66/119 297/65/119 300/68/119
f 299/67/119 301/69/119 297/65/119
f 299/67/119 302/70/119 301/69/119
f 303/71/119 301/69/119 302/70/119
f 301/69/119 303/71/119 304/72/119
f 305/73/119 304/72/119 303/71/119
f 304/72/119 305/73/119 306/74/119
f 307/75/119 306/74/119 305/73/119
f 305/73/119 308/76/119 307/75/119
f 309/77/119 307/75/119 308/76/119
f 307/75/119 309/77/119 310/78/119
f 309/77/119 311/79/119 310/78/119
f 309/77/119 312/80/119 311/79/119
f 313/81/119 311/79/119 312/80/119
f 311/79/119 313/81/119 314/82/119
f 314/82/119 313/81/119 315/83/119
f 313/81/119 316/84/119 315/83/119
f 317/85/119 316/84/119 313/81/119
f 298/66/119 315/83/119 316/84/119
f 315/83/119 298/66/119 300/68/119
f 316/84/119 318/86/119 298/66/119
f 317/85/119 319/22/119 316/84/119
f 318/86/119 316/84/119 319/22/119
f 320/87/120 319/22/119 317/85/119
f 321/24/119 318/86/119 319/22/119
f 320/87/120 321/24/119 319/22/119
f 321/24/119 322/88/119 318/86/119
f 320/87/120 317/85/119 323/89/119
f 324/27/119 322/88/119 321/24/119
f 324/27/119 325/90/119 322/88/119
f 324/27/119 326/91/119 325/90/119
f 326/91/119 324/27/119 327/92/119
f 328/93/119 327/92/119 324/27/119
f 329/94/121 324/27/119 321/24/119
f 328/93/119 324/27/119 329/94/121
f 329/94/121 321/24/119 320/87/120
f 328/93/119 329/94/121 330/95/119
f 331/96/119 328/93/119 330/95/119
f 331/96/119 330/95/119 332/97/119
f 333/98/119 331/96/119 332/97/119
f 334/99/119 320/87/120 323/89/119
f 334/99/119 323/89/119 335/100/119
f 336/101/119 334/99/119 335/100/119
f 337/102/122 338/103/123 339/104/124
f 338/103/123 337/102/122 340/105/125
f 341/106/126 337/102/122 339/104/124
f 337/102/122 341/106/126 342/107/127
f 343/108/128 344/109/129 345/110/130
f 344/109/129 343/108/128 346/111/131
f 343/108/128 347/112/132 346/111/131
f 347/112/132 343/108/128 348/113/133
f 349/17/134 350/20/135 351/21/136
f 352/19/137 349/17/134 353/18/138
f 350/20/135 349/17/134 354/114/139
f 349/17/134 352/19/137 354/114/139
f 355/25/140 356/115/141 357/28/142
f 356/115/141 355/25/140 358/116/143
f 356/115/141 359/23/144 360/26/145
f 359/23/144 356/115/141 358/116/143
f 361/7/146 362/5/147 363/3/148
f 363/3/148 362/5/147 364/6/149
f 365/8/150 362/5/147 361/7/146
f 362/5/147 365/8/150 366/10/151
f 367/2/152 365/8/150 361/7/146
f 363/3/148 367/2/152 361/7/146
f 368/9/153 365/8/150 367/2/152
f 367/2/152 363/3/148 369/4/154
f 370/11/155 371/7/156 372/12/157
f 371/7/156 370/11/155 373/2/158
f 371/7/156 374/13/159 372/12/157
f 374/13/159 371/7/156 375/5/160
f 376/14/161 371/7/156 373/2/158
f 371/7/156 377/15/162 375/5/160
f 371/7/156 376/14/161 378/16/163
f 377/15/162 371/7/156 378/16/163
f 379/117/164 380/118/165 381/64/166
f 380/118/165 379/117/164 382/119/167
f 383/120/168 379/117/164 381/64/166
f 379/117/164 383/120/168 384/121/169
f 385/117/170 386/119/171 387/122/172
f 385/117/170 388/123/173 389/121/174
f 388/123/173 385/117/170 390/124/175
f 390/124/175 385/117/170 387/122/172
f 390/124/175 391/125/176 388/123/173
f 390/124/175 387/122/172 392/126/177
f 391/125/176 390/124/175 393/127/178
f 392/126/177 393/127/178 390/124/175
f 394/51/179 395/56/180 396/57/181
f 397/58/182 395/56/180 398/50/183
f 398/50/183 395/56/180 399/52/184
f 395/56/180 394/51/179 399/52/184
f 399/52/184 394/51/179 400/44/185
f 400/44/185 398/50/183 399/52/184
f 400/44/185 394/51/179 401/46/186
f 398/50/183 400/44/185 402/48/187
f 403/128/188 404/32/189 405/61/190
f 404/32/189 406/129/191 405/61/190
f 404/32/189 403/128/188 407/34/192
f 406/129/191 404/32/189 408/36/193
f 409/34/194 410/52/195 411/32/196
f 410/52/195 412/36/197 411/32/196
f 410/52/195 409/34/194 413/51/198
f 412/36/197 410/52/195 414/50/199
f 415/119/200 410/52/195 413/51/198
f 410/52/195 416/121/201 414/50/199
f 410/52/195 415/119/200 417/117/202
f 416/121/201 410/52/195 417/117/202
f 417/117/202 415/119/200 418/122/203
f 417/117/202 419/123/204 416/121/201
f 420/124/205 417/117/202 418/122/203
f 419/123/204 417/117/202 420/124/205
f 420/124/205 418/122/203 421/130/206
f 420/124/205 422/131/207 419/123/204
f 421/130/206 423/132/208 420/124/205
f 422/131/207 420/124/205 423/132/208
f 424/27/209 425/91/209 426/90/209
f 426/90/209 425/91/209 427/133/209
f 425/91/209 424/27/209 428/92/209
f 429/134/209 426/90/209 427/133/209
f 427/133/209 430/135/209 429/134/209
f 430/135/209 427/133/209 431/136/209
f 428/92/209 424/27/209 432/93/209
f 433/88/209 424/27/209 426/90/209
f 434/94/209 432/93/209 424/27/209
f 435/24/209 434/94/209 424/27/209
f 424/27/209 433/88/209 435/24/209
f 436/87/209 434/94/209 435/24/209
f 437/86/209 435/24/209 433/88/209
f 438/22/209 436/87/209 435/24/209
f 435/24/209 437/86/209 438/22/209
f 439/85/209 436/87/209 438/22/209
f 437/86/209 433/88/209 440/137/209
f 441/84/209 439/85/209 438/22/209
f 437/86/209 441/84/209 438/22/209
f 442/138/209 437/86/209 440/137/209
f 440/137/209 443/139/209 442/138/209
f 443/139/209 440/137/209 444/140/209
f 441/84/209 437/86/209 445/66/209
f 446/81/209 439/85/209 441/84/209
f 445/66/209 447/83/209 441/84/209
f 447/83/209 446/81/209 441/84/209
f 447/83/209 445/66/209 448/68/209
f 446/81/209 447/83/209 449/82/209
f 448/68/209 445/66/209 450/65/209
f 451/79/209 446/81/209 449/82/209
f 445/66/209 452/141/209 450/65/209
f 446/81/209 451/79/209 453/142/209
f 454/70/209 450/65/209 452/141/209
f 455/78/209 453/142/209 451/79/209
f 450/65/209 454/70/209 456/69/209
f 453/142/209 455/78/209 457/77/209
f 454/70/209 458/72/209 456/69/209
f 459/143/209 457/77/209 455/78/209
f 454/70/209 460/144/209 458/72/209
f 459/143/209 455/78/209 461/75/209
f 462/73/209 458/72/209 460/144/209
f 461/75/209 462/73/209 459/143/209
f 458/72/209 462/73/209 463/74/209
f 462/73/209 461/75/209 463/74/209
f 464/2/210 465/3/211 466/4/212
f 465/3/211 467/5/213 468/6/214
f 465/3/211 464/2/210 469/7/215
f 467/5/213 465/3/211 469/7/215
f 469/7/215 464/2/210 470/8/216
f 470/8/216 467/5/213 469/7/215
f 470/8/216 464/2/210 471/9/217
f 467/5/213 470/8/216 472/10/218
f 473/11/219 474/7/220 475/12/221
f 474/7/220 476/13/222 475/12/221
f 474/7/220 473/11/219 477/2/223
f 476/13/222 474/7/220 478/5/224
f 479/14/225 474/7/220 477/2/223
f 474/7/220 480/15/226 478/5/224
f 474/7/220 479/14/225 481/16/227
f 480/15/226 474/7/220 481/16/227
f 482/17/228 483/18/229 484/19/230
f 482/17/228 485/20/231 486/21/232
f 484/19/230 487/22/233 482/17/228
f 485/20/231 482/17/228 487/22/233
f 487/22/233 484/19/230 488/23/234
f 485/20/231 487/22/233 489/24/233
f 489/24/233 487/22/233 488/23/234
f 490/25/235 485/20/231 489/24/233
f 489/24/233 488/23/234 491/26/230
f 490/25/235 489/24/233 492/27/233
f 492/27/233 489/24/233 491/26/230
f 493/28/235 490/25/235 492/27/233
f 492/27/233 491/26/230 494/29/236
f 492/27/233 495/30/237 493/28/235
f 496/31/238 492/27/233 494/29/236
f 495/30/237 492/27/233 496/31/238
f 497/32/239 498/33/240 499/34/241
f 500/35/242 497/32/239 501/36/243
f 498/33/240 497/32/239 502/37/244
f 497/32/239 500/35/242 502/37/244
f 502/37/244 503/38/245 498/33/240
f 504/39/246 502/37/244 500/35/242
f 503/38/245 502/37/244 505/40/247
f 502/37/244 504/39/246 505/40/247
f 506/32/248 507/33/249 508/34/250
f 507/33/249 506/32/248 509/37/251
f 509/37/251 510/41/252 507/33/249
f 510/41/252 509/37/251 511/42/253
f 509/37/251 512/43/254 511/42/253
f 512/43/254 509/37/251 513/35/255
f 506/32/248 513/35/255 509/37/251
f 513/35/255 506/32/248 514/36/256
f 515/44/257 516/45/258 517/46/259
f 518/47/260 515/44/257 519/48/261
f 515/44/257 518/47/260 520/49/262
f 520/49/262 516/45/258 515/44/257
f 521/50/263 520/49/262 518/47/260
f 520/49/262 522/51/264 516/45/258
f 520/49/262 521/50/263 523/52/265
f 523/52/265 522/51/264 520/49/262
f 521/50/263 524/53/266 523/52/265
f 524/53/266 522/51/264 523/52/265
f 524/53/266 521/50/263 525/54/267
f 522/51/264 524/53/266 526/55/268
f 526/55/268 527/56/269 528/57/270
f 527/56/269 526/55/268 524/53/266
f 525/54/267 527/56/269 524/53/266
f 529/58/271 527/56/269 525/54/267
f 530/59/272 531/52/273 532/50/274
f 531/52/273 533/60/275 532/50/274
f 531/52/273 530/59/272 534/61/276
f 535/62/277 531/52/273 534/61/276
f 531/52/273 535/62/277 536/51/278
f 537/63/279 531/52/273 536/51/278
f 531/52/273 537/63/279 538/64/280
f 533/60/275 531/52/273 538/64/280
f 539/65/281 540/66/281 541/67/281
f 540/66/281 539/65/281 542/68/281
f 541/67/281 543/69/281 539/65/281
f 541/67/281 544/70/281 543/69/281
f 545/71/281 543/69/281 544/70/281
f 543/69/281 545/71/281 546/72/281
f 547/73/281 546/72/281 545/71/281
f 546/72/281 547/73/281 548/74/281
f 549/75/281 548/74/281 547/73/281
f 547/73/281 550/76/281 549/75/281
f 551/77/281 549/75/281 550/76/281
f 549/75/281 551/77/281 552/78/281
f 551/77/281 553/79/281 552/78/281
f 551/77/281 554/80/281 553/79/281
f 555/81/281 553/79/281 554/80/281
f 553/79/281 555/81/281 556/82/281
f 556/82/281 555/81/281 557/83/281
f 555/81/281 558/84/281 557/83/281
f 559/85/281 558/84/281 555/81/281
f 540/66/281 557/83/281 558/84/281
f 557/83/281 540/66/281 542/68/281
f 558/84/281 560/86/281 540/66/281
f 559/85/281 561/22/281 558/84/281
f 560/86/281 558/84/281 561/22/281
f 562/87/282 561/22/281 559/85/281
f 563/24/281 560/86/281 561/22/281
f 562/87/282 563/24/281 561/22/281
f 563/24/281 564/88/281 560/86/281
f 562/87/282 559/85/281 565/89/281
f 566/27/281 564/88/281 563/24/281
f 566/27/281 567/90/281 564/88/281
f 566/27/281 568/91/281 567/90/281
f 568/91/281 566/27/281 569/92/281
f 570/93/281 569/92/281 566/27/281
f 571/94/283 566/27/281 563/24/281
f 570/93/281 566/27/281 571/94/283
f 571/94/283 563/24/281 562/87/282
f 570/93/281 571/94/283 572/95/281
f 573/96/281 570/93/281 572/95/281
f 573/96/281 572/95/281 574/97/281
f 575/98/281 573/96/281 574/97/281
f 576/99/281 562/87/282 565/89/281
f 576/99/281 565/89/281 577/100/281
f 578/101/281 576/99/281 577/100/281
f 579/102/284 580/103/285 581/104/286
f 580/103/285 579/102/284 582/105/287
f 583/106/288 579/102/284 581/104/286
f 579/102/284 583/106/288 584/107/289
f 585/108/290 586/109/291 587/110/292
f 586/109/291 585/108/290 588/111/293
f 585/108/290 589/112/294 588/111/293
f 589/112/294 585/108/290 590/113/295
f 591/17/296 592/20/297 593/21/298
f 594/19/299 591/17/296 595/18/300
f 592/20/297 591/17/296 596/114/301
f 591/17/296 594/19/299 596/114/301
f 597/25/302 598/115/303 599/28/304
f 598/115/303 597/25/302 600/116/305
f 598/115/303 601/23/306 602/26/307
f 601/23/306 598/115/303 600/116/305
f 603/7/308 604/5/309 605/3/310
f 605/3/310 604/5/309 606/6/311
f 607/8/312 604/5/309 603/7/308
f 604/5/309 607/8/312 608/10/313
f 609/2/314 607/8/312 603/7/308
f 605/3/310 609/2/314 603/7/308
f 610/9/315 607/8/312 609/2/314
f 609/2/314 605/3/310 611/4/316
f 612/11/317 613/7/318 614/12/319
f 613/7/318 612/11/317 615/2/320
f 613/7/318 616/13/321 614/12/319
f 616/13/321 613/7/318 617/5/322
f 618/14/323 613/7/318 615/2/320
f 613/7/318 619/15/324 617/5/322
f 613/7/318 618/14/323 620/16/325
f 619/15/324 613/7/318 620/16/325
f 621/117/326 622/118/327 623/64/328
f 622/118/327 621/117/326 624/119/329
f 625/120/330 621/117/326 623/64/328
f 621/117/326 625/120/330 626/121/331
f 627/117/332 628/119/333 629/122/334
f 627/117/332 630/123/335 631/121/336
f 630/123/335 627/117/332 632/124/337
f 632/124/337 627/117/332 629/122/334
f 632/124/337 633/125/338 630/123/335
f 632/124/337 629/122/334 634/126/339
f 633/125/338 632/124/337 635/127/340
f 634/126/339 635/127/340 632/124/337
f 636/51/341 637/56/342 638/57/343
f 639/58/344 637/56/342 640/50/345
f 640/50/345 637/56/342 641/52/346
f 637/56/342 636/51/341 641/52/346
f 641/52/346 636/51/341 642/44/347
f 642/44/347 640/50/345 641/52/346
f 642/44/347 636/51/341 643/46/348
f 640/50/345 642/44/347 644/48/349
f 645/128/350 646/32/351 647/61/352
f 646/32/351 648/129/353 647/61/352
f 646/32/351 645/128/350 649/34/354
f 648/129/353 646/32/351 650/36/355
f 651/34/356 652/52/357 653/32/358
f 652/52/357 654/36/359 653/32/358
f 652/52/357 651/34/356 655/51/360
f 654/36/359 652/52/357 656/50/361
f 657/119/362 652/52/357 655/51/360
f 652/52/357 658/121/363 656/50/361
f 652/52/357 657/119/362 659/117/364
f 658/121/363 652/52/357 659/117/364
f 659/117/364 657/119/362 660/122/365
f 659/117/364 661/123/366 658/121/363
f 662/124/367 659/117/364 660/122/365
f 661/123/366 659/117/364 662/124/367
f 662/124/367 660/122/365 663/130/368
f 662/124/367 664/131/369 661/123/366
f 663/130/368 665/132/370 662/124/367
f 664/131/369 662/124/367 665/132/370
f 666/27/371 667/91/371 668/90/371
f 668/90/371 667/91/371 669/133/371
f 667/91/371 666/27/371 670/92/371
f 671/134/371 668/90/371 669/133/371
f 669/133/371 672/135/371 671/134/371
f 672/135/371 669/133/371 673/136/371
f 670/92/371 666/27/371 674/93/371
f 675/88/371 666/27/371 668/90/371
f 676/94/371 674/93/371 666/27/371
f 677/24/371 676/94/371 666/27/371
f 666/27/371 675/88/371 677/24/371
f 678/87/371 676/94/371 677/24/371
f 679/86/371 677/24/371 675/88/371
f 680/22/371 678/87/371 677/24/371
f 677/24/371 679/86/371 680/22/371
f 681/85/371 678/87/371 680/22/371
f 679/86/371 675/88/371 682/137/371
f 683/84/371 681/85/371 680/22/371
f 679/86/371 683/84/371 680/22/371
f 684/138/371 679/86/371 682/137/371
f 682/137/371 685/139/371 684/138/371
f 685/139/371 682/137/371 686/140/371
f 683/84/371 679/86/371 687/66/371
f 688/81/371 681/85/371 683/84/371
f 687/66/371 689/83/371 683/84/371
f 689/83/371 688/81/371 683/84/371
f 689/83/371 687/66/371 690/68/371
f 688/81/371 689/83/371 691/82/371
f 690/68/371 687/66/371 692/65/371
f 693/79/371 688/81/371 691/82/371
f 687/66/371 694/141/371 692/65/371
f 688/81/371 693/79/371 695/142/371
f 696/70/371 692/65/371 694/141/371
f 697/78/371 695/142/371 693/79/371
f 692/65/371 696/70/371 698/69/371
f 695/142/371 697/78/371 699/77/371
f 696/70/371 700/72/371 698/69/371
f 701/143/371 699/77/371 697/78/371
f 696/70/371 702/144/371 700/72/371
f 701/143/371 697/78/371 703/75/371
f 704/73/371 700/72/371 702/144/371
f 703/75/371 704/73/371 701/143/371
f 700/72/371 704/73/371 705/74/371
f 704/73/371 703/75/371 705/74/371
f 706/2/372 707/3/373 708/4/374
f 707/3/373 709/5/375 710/6/376
f 707/3/373 706/2/372 711/7/377
f 709/5/375 707/3/373 711/7/377
f 711/7/377 706/2/372 712/8/378
f 712/8/378 709/5/375 711/7/377
f 712/8/378 706/2/372 713/9/379
f 709/5/375 712/8/378 714/10/380
f 715/11/381 716/7/382 717/12/383
f 716/7/382 718/13/384 717/12/383
f 716/7/382 715/11/381 719/2/385
f 718/13/384 716/7/382 720/5/386
f 721/14/387 716/7/382 719/2/385
f 716/7/382 722/15/388 720/5/386
f 716/7/382 721/14/387 723/16/389
f 722/15/388 716/7/382 723/16/389
f 724/17/390 725/18/391 726/19/392
f 724/17/390 727/20/393 728/21/394
f 726/19/392 729/22/395 724/17/390
f 727/20/393 724/17/390 729/22/395
f 729/22/395 726/19/392 730/23/396
f 727/20/393 729/22/395 731/24/395
f 731/24/395 729/22/395 730/23/396
f 732/25/397 727/20/393 731/24/395
f 731/24/395 730/23/396 733/26/392
f 732/25/397 731/24/395 734/27/395
f 734/27/395 731/24/395 733/26/392
f 735/28/397 732/25/397 734/27/395
f 734/27/395 733/26/392 736/29/398
f 734/27/395 737/30/399 735/28/397
f 738/31/400 734/27/395 736/29/398
f 737/30/399 734/27/395 738/31/400
f 739/32/401 740/33/402 741/34/403
f 742/35/404 739/32/401 743/36/405
f 740/33/402 739/32/401 744/37/406
f 739/32/401 742/35/404 744/37/406
f 744/37/406 745/38/407 740/33/402
f 746/39/408 744/37/406 742/35/404
f 745/38/407 744/37/406 747/40/409
f 744/37/406 746/39/408 747/40/409
f 748/32/410 749/33/411 750/34/412
f 749/33/411 748/32/410 751/37/413
f 751/37/413 752/41/414 749/33/411
f 752/41/414 751/37/413 753/42/415
f 751/37/413 754/43/416 753/42/415
f 754/43/416 751/37/413 755/35/417
f 748/32/410 755/35/417 751/37/413
f 755/35/417 748/32/410 756/36/418
f 757/44/419 758/45/420 759/46/421
f 760/47/422 757/44/419 761/48/423
f 757/44/419 760/47/422 762/49/424
f 762/49/424 758/45/420 757/44/419
f 763/50/425 762/49/424 760/47/422
f 762/49/424 764/51/426 758/45/420
f 762/49/424 763/50/425 765/52/427
f 765/52/427 764/51/426 762/49/424
f 763/50/425 766/53/428 765/52/427
f 766/53/428 764/51/426 765/52/427
f 766/53/428 763/50/425 767/54/429
f 764/51/426 766/53/428 768/55/430
f 768/55/430 769/56/431 770/57/432
f 769/56/431 768/55/430 766/53/428
f 767/54/429 769/56/431 766/53/428
f 771/58/433 769/56/431 767/54/429
f 772/59/434 773/52/435 774/50/436
f 773/52/435 775/60/437 774/50/436
f 773/52/435 772/59/434 776/61/438
f 777/62/439 773/52/435 776/61/438
f 773/52/435 777/62/439 778/51/440
f 779/63/441 773/52/435 778/51/440
f 773/52/435 779/63/441 780/64/442
f 775/60/437 773/52/435 780/64/442
f 781/65/443 782/66/443 783/67/443
f 782/66/443 781/65/443 784/68/443
f 783/67/443 785/69/443 781/65/443
f 783/67/443 786/70/443 785/69/443
f 787/71/443 785/69/443 786/70/443
f 785/69/443 787/71/443 788/72/443
f 789/73/443 788/72/443 787/71/443
f 788/72/443 789/73/443 790/74/443
f 791/75/443 790/74/443 789/73/443
f 789/73/443 792/76/443 791/75/443
f 793/77/443 791/75/443 792/76/443
f 791/75/443 793/77/443 794/78/443
f 793/77/443 795/79/443 794/78/443
f 793/77/443 796/80/443 795/79/443
f 797/81/443 795/79/443 796/80/443
f 795/79/443 797/81/443 798/82/443
f 798/82/443 797/81/443 799/83/443
f 797/81/443 800/84/443 799/83/443
f 801/85/443 800/84/443 797/81/443
f 782/66/443 799/83/443 800/84/443
f 799/83/443 782/66/443 784/68/443
f 800/84/443 802/86/443 782/66/443
f 801/85/443 803/22/443 800/84/443
f 802/86/443 800/84/443 803/22/443
f 804/87/444 803/22/443 801/85/443
f 805/24/443 802/86/443 803/22/443
f 804/87/444 805/24/443 803/22/443
f 805/24/443 806/88/443 802/86/443
f 804/87/444 801/85/443 807/89/443
f 808/27/443 806/88/443 805/24/443
f 808/27/443 809/90/443 806/88/443
f 808/27/443 810/91/443 809/90/443
f 810/91/443 808/27/443 811/92/443
f 812/93/443 811/92/443 808/27/443
f 813/94/445 808/27/443 805/24/443
f 812/93/443 808/27/443 813/94/445
f 813/94/445 805/24/443 804/87/444
f 812/93/443 813/94/445 814/95/443
f 815/96/443 812/93/443 814/95/443
f 815/96/443 814/95/443 816/97/443
f 817/98/443 815/96/443 816/97/443
f 818/99/443 804/87/444 807/89/443
f 818/99/443 807/89/443 819/100/443
f 820/101/443 818/99/443 819/100/443
f 821/102/446 822/103/447 823/104/448
f 822/103/447 821/102/446 824/105/449
f 825/106/450 821/102/446 823/104/448
f 821/102/446 825/106/450 826/107/451
f 827/108/452 828/109/453 829/110/454
f 828/109/453 827/108/452 830/111/455
f 827/108/452 831/112/456 830/111/455
f 831/112/456 827/108/452 832/113/457
f 833/17/458 834/20/459 835/21/460
f 836/19/461 833/17/458 837/18/462
f 834/20/459 833/17/458 838/114/463
f 833/17/458 836/19/461 838/114/463
f 839/25/464 840/115/465 841/28/466
f 840/115/465 839/25/464 842/116/467
f 840/115/465 843/23/468 844/26/469
f 843/23/468 840/115/465 842/116/467
f 845/7/470 846/5/471 847/3/472
f 847/3/472 846/5/471 848/6/473
f 849/8/474 846/5/471 845/7/470
f 846/5/471 849/8/474 850/10/475
f 851/2/476 849/8/474 845/7/470
f 847/3/472 851/2/476 845/7/470
f 852/9/477 849/8/474 851/2/476
f 851/2/476 847/3/472 853/4/478
f 854/11/479 855/7/480 856/12/481
f 855/7/480 854/11/479 857/2/482
f 855/7/480 858/13/483 856/12/481
f 858/13/483 855/7/480 859/5/484
f 860/14/485 855/7/480 857/2/482
f 855/7/480 861/15/486 859/5/484
f 855/7/480 860/14/485 862/16/487
f 861/15/486 855/7/480 862/16/487
f 863/117/488 864/118/489 865/64/490
f 864/118/489 863/117/488 866/119/491
f 867/120/492 863/117/488 865/64/490
f 863/117/488 867/120/492 868/121/493
f 869/117/494 870/119/495 871/122/496
f 869/117/494 872/123/497 873/121/498
f 872/123/497 869/117/494 874/124/499
f 874/124/499 869/117/494 871/122/496
f 874/124/499 875/125/500 872/123/497
f 874/124/499 871/122/496 876/126/501
f 875/125/500 874/124/499 877/127/502
f 876/126/501 877/127/502 874/124/499
f 878/51/503 879/56/504 880/57/505
f 881/58/506 879/56/504 882/50/507
f 882/50/507 879/56/504 883/52/508
f 879/56/504 878/51/503 883/52/508
f 883/52/508 878/51/503 884/44/509
f 884/44/509 882/50/507 883/52/508
f 884/44/509 878/51/503 885/46/510
f 882/50/507 884/44/509 886/48/511
f 887/128/512 888/32/513 889/61/514
f 888/32/513 890/129/515 889/61/514
f 888/32/513 887/128/512 891/34/516
f 890/129/515 888/32/513 892/36/517
f 893/34/518 894/52/519 895/32/520
f 894/52/519 896/36/521 895/32/520
f 894/52/519 893/34/518 897/51/522
f 896/36/521 894/52/519 898/50/523
f 899/119/524 894/52/519 897/51/522
f 894/52/519 900/121/525 898/50/523
f 894/52/519 899/119/524 901/117/526
f 900/121/525 894/52/519 901/117/526
f 901/117/526 899/119/524 902/122/527
f 901/117/526 903/123/528 900/121/525
f 904/124/529 901/117/526 902/122/527
f 903/123/528 901/117/526 904/124/529
f 904/124/529 902/122/527 905/130/530
f 904/124/529 906/131/531 903/123/528
f 905/130/530 907/132/532 904/124/529
f 906/131/531 904/124/529 907/132/532
f 908/27/533 909/91/533 910/90/533
f 910/90/533 909/91/533 911/133/533
f 909/91/533 908/27/533 912/92/533
f 913/134/533 910/90/533 911/133/533
f 911/133/533 914/135/533 913/134/533
f 914/135/533 911/133/533 915/136/533
f 912/92/533 908/27/533 916/93/533
f 917/88/533 908/27/533 910/90/533
f 918/94/533 916/93/533 908/27/533
f 919/24/533 918/94/533 908/27/533
f 908/27/533 917/88/533 919/24/533
f 920/87/533 918/94/533 919/24/533
f 921/86/533 919/24/533 917/88/533
f 922/22/533 920/87/533 919/24/533
f 919/24/533 921/86/533 922/22/533
f 923/85/533 920/87/533 922/22/533
f 921/86/533 917/88/533 924/137/533
f 925/84/533 923/85/533 922/22/533
f 921/86/533 925/84/533 922/22/533
f 926/138/533 921/86/533 924/137/533
f 924/137/533 927/139/533 926/138/533
f 927/139/533 924/137/533 928/140/533
f 925/84/533 921/86/533 929/66/533
f 930/81/533 923/85/533 925/84/533
f 929/66/533 931/83/533 925/84/533
f 931/83/533 930/81/533 925/84/533
f 931/83/533 929/66/533 932/68/533
f 930/81/533 931/83/533 933/82/533
f 932/68/533 929/66/533 934/65/533
f 935/79/533 930/81/533 933/82/533
f 929/66/533 936/141/533 934/65/533
f 930/81/533 935/79/533 937/142/533
f 938/70/533 934/65/533 936/141/533
f 939/78/533 937/142/533 935/79/533
f 934/65/533 938/70/533 940/69/533
f 937/142/533 939/78/533 941/77/533
f 938/70/533 942/72/533 940/69/533
f 943/143/533 941/77/533 939/78/533
f 938/70/533 944/144/533 942/72/533
f 943/143/533 939/78/533 945/75/533
f 946/73/533 942/72/533 944/144/533
f 945/75/533 946/73/533 943/143/533
f 942/72/533 946/73/533 947/74/533
f 946/73/533 945/75/533 947/74/533
f 948/2/534 949/3/535 950/4/536
f 949/3/535 951/5/537 952/6/538
f 949/3/535 948/2/534 953/7/539
f 951/5/537 949/3/535 953/7/539
f 953/7/539 948/2/534 954/8/540
f 954/8/540 951/5/537 953/7/539
f 954/8/540 948/2/534 955/9/541
f 951/5/537 954/8/540 956/10/542
f 957/11/543 958/7/544 959/12/545
f 958/7/544 960/13/546 959/12/545
f 958/7/544 957/11/543 961/2/547
f 960/13/546 958/7/544 962/5/548
f 963/14/549 958/7/544 961/2/547
f 958/7/544 964/15/550 962/5/548
f 958/7/544 963/14/549 965/16/551
f 964/15/550 958/7/544 965/16/551
f 966/17/552 967/18/553 968/19/554
f 966/17/552 969/20/555 970/21/556
f 968/19/554 971/22/557 966/17/552
f 969/20/555 966/17/552 971/22/557
f 971/22/557 968/19/554 972/23/558
f 969/20/555 971/22/557 973/24/557
f 973/24/557 971/22/557 972/23/558
f 974/25/559 969/20/555 973/24/557
f 973/24/557 972/23/558 975/26/554
f 974/25/559 973/24/557 976/27/557
f 976/27/557 973/24/557 975/26/554
f 977/28/559 974/25/559 976/27/557
f 976/27/557 975/26/554 978/29/560
f 976/27/557 979/30/561 977/28/559
f 980/31/562 976/27/557 978/29/560
f 979/30/561 976/27/557 980/31/562
f 981/32/563 982/33/564 983/34/565
f 984/35/566 981/32/563 985/36/567
f 982/33/564 981/32/563 986/37/568
f 981/32/563 984/35/566 986/37/568
f 986/37/568 987/38/569 982/33/564
f 988/39/570 986/37/568 984/35/566
f 987/38/569 986/37/568 989/40/571
f 986/37/568 988/39/570 989/40/571
f 990/32/572 991/33/573 992/34/574
f 991/33/573 990/32/572 993/37/575
f 993/37/575 994/41/576 991/33/573
f 994/41/576 993/37/575 995/42/577
f 993/37/575 996/43/578 995/42/577
f 996/43/578 993/37/575 997/35/579
f 990/32/572 997/35/579 993/37/575
f 997/35/579 990/32/572 998/36/580
f 999/44/581 1000/45/582 1001/46/583
f 1002/47/584 999/44/581 1003/48/585
f 999/44/581 1002/47/584 1004/49/586
f 1004/49/586 1000/45/582 999/44/581
f 1005/50/587 1004/49/586 1002/47/584
f 1004/49/586 1006/51/588 1000/45/582
f 1004/49/586 1005/50/587 1007/52/589
f 1007/52/589 1006/51/588 1004/49/586
f 1005/50/587 1008/53/590 1007/52/589
f 1008/53/590 1006/51/588 1007/52/589
f 1008/53/590 1005/50/587 1009/54/591
f 1006/51/588 1008/53/590 1010/55/592
f 1010/55/592 1011/56/593 1012/57/594
f 1011/56/593 1010/55/592 1008/53/590
f 1009/54/591 1011/56/593 1008/53/590
f 1013/58/595 1011/56/593 1009/54/591
f 1014/59/596 1015/52/597 1016/50/598
f 1015/52/597 1017/60/599 1016/50/598
f 1015/52/597 1014/59/596 1018/61/600
f 1019/62/601 1015/52/597 1018/61/600
f 1015/52/597 1019/62/601 1020/51/602
f 1021/63/603 1015/52/597 1020/51/602
f 1015/52/597 1021/63/603 1022/64/604
f 1017/60/599 1015/52/597 1022/64/604
f 1023/65/605 1024/66/605 1025/67/605
f 1024/66/605 1023/65/605 1026/68/605
f 1025/67/605 1027/69/605 1023/65/605
f 1025/67/605 1028/70/605 1027/69/605
f 1029/71/605 1027/69/605 1028/70/605
f 1027/69/605 1029/71/605 1030/72/605
f 1031/73/605 1030/72/605 1029/71/605
f 1030/72/605 1031/73/605 1032/74/605
f 1033/75/605 1032/74/605 1031/73/605
f 1031/73/605 1034/76/605 1033/75/605
f 1035/77/605 1033/75/605 1034/76/605
f 1033/75/605 1035/77/605 1036/78/605
f 1035/77/605 1037/79/605 1036/78/605
f 1035/77/605 1038/80/605 1037/79/605
f 1039/81/605 1037/79/605 1038/80/605
f 1037/79/605 1039/81/605 1040/82/605
f 1040/82/605 1039/81/605 1041/83/605
f 1039/81/605 1042/84/605 1041/83/605
f 1043/85/605 1042/84/605 1039/81/605
f 1024/66/605 1041/83/605 1042/84/605
f 1041/83/605 1024/66/605 1026/68/605
f 1042/84/605 1044/86/605 1024/66/605
f 1043/85/605 1045/22/605 1042/84/605
f 1044/86/605 1042/84/605 1045/22/605
f 1046/87/606 1045/22/605 1043/85/605
f 1047/24/605 1044/86/605 1045/22/605
f 1046/87/606 1047/24/605 1045/22/605
f 1047/24/605 1048/88/605 1044/86/605
f 1046/87/606 1043/85/605 1049/89/605
f 1050/27/605 1048/88/605 1047/24/605
f 1050/27/605 1051/90/605 1048/88/605
f 1050/27/605 1052/91/605 1051/90/605
f 1052/91/605 1050/27/605 1053/92/605
f 1054/93/605 1053/92/605 1050/27/605
f 1055/94/607 1050/27/605 1047/24/605
f 1054/93/605 1050/27/605 1055/94/607
f 1055/94/607 1047/24/605 1046/87/606
f 1054/93/605 1055/94/607 1056/95/605
f 1057/96/605 1054/93/605 1056/95/605
f 1057/96/605 1056/95/605 1058/97/605
f 1059/98/605 1057/96/605 1058/97/605
f 1060/99/605 1046/87/606 1049/89/605
f 1060/99/605 1049/89/605 1061/100/605
f 1062/101/605 1060/99/605 1061/100/605
f 1063/102/608 1064/103/609 1065/104/610
f 1064/103/609 1063/102/608 1066/105/611
f 1067/106/612 1063/102/608 1065/104/610
f 1063/102/608 1067/106/612 1068/107/613
f 1069/108/614 1070/109/615 1071/110/616
f 1070/109/615 1069/108/614 1072/111/617
f 1069/108/614 1073/112/618 1072/111/617
f 1073/112/618 1069/108/614 1074/113/619
f 1075/17/620 1076/20/621 1077/21/622
f 1078/19/623 1075/17/620 1079/18/624
f 1076/20/621 1075/17/620 1080/114/625
f 1075/17/620 1078/19/623 1080/114/625
f 1081/25/626 1082/115/627 1083/28/628
f 1082/115/627 1081/25/626 1084/116/629
f 1082/115/627 1085/23/630 1086/26/631
f 1085/23/630 1082/115/627 1084/116/629
f 1087/7/19 1088/5/632 1089/3/633
f 1089/3/633 1088/5/632 1090/6/634
f 1091/8/635 1088/5/632 1087/7/19
f 1088/5/632 1091/8/635 1092/10/636
f 1093/2/637 1091/8/635 1087/7/19
f 1089/3/633 1093/2/637 1087/7/19
f 1094/9/638 1091/8/635 1093/2/637
f 1093/2/637 1089/3/633 1095/4/639
f 1096/11/640 1097/7/641 1098/12/642
f 1097/7/641 1096/11/640 1099/2/643
f 1097/7/641 1100/13/644 1098/12/642
f 1100/13/644 1097/7/641 1101/5/645
f 1102/14/646 1097/7/641 1099/2/643
f 1097/7/641 1103/15/647 1101/5/645
f 1097/7/641 1102/14/646 1104/16/648
f 1103/15/647 1097/7/641 1104/16/648
f 1105/117/649 1106/118/650 1107/64/651
f 1106/118/650 1105/117/649 1108/119/652
f 1109/120/653 1105/117/649 1107/64/651
f 1105/117/649 1109/120/653 1110/121/654
f 1111/117/655 1112/119/656 1113/122/657
f 1111/117/655 1114/123/658 1115/121/659
f 1114/123/658 1111/117/655 1116/124/660
f 1116/124/660 1111/117/655 1113/122/657
f 1116/124/660 1117/125/661 1114/123/658
f 1116/124/660 1113/122/657 1118/126/662
f 1117/125/661 1116/124/660 1119/127/663
f 1118/126/662 1119/127/663 1116/124/660
f 1120/51/664 1121/56/665 1122/57/666
f 1123/58/667 1121/56/665 1124/50/668
f 1124/50/668 1121/56/665 1125/52/669
f 1121/56/665 1120/51/664 1125/52/669
f 1125/52/669 1120/51/664 1126/44/670
f 1126/44/670 1124/50/668 1125/52/669
f 1126/44/670 1120/51/664 1127/46/671
f 1124/50/668 1126/44/670 1128/48/672
f 1129/128/673 1130/32/674 1131/61/675
f 1130/32/674 1132/129/676 1131/61/675
f 1130/32/674 1129/128/673 1133/34/677
f 1132/129/676 1130/32/674 1134/36/678
f 1135/34/679 1136/52/680 1137/32/681
f 1136/52/680 1138/36/682 1137/32/681
f 1136/52/680 1135/34/679 1139/51/683
f 1138/36/682 1136/52/680 1140/50/684
f 1141/119/685 1136/52/680 1139/51/683
f 1136/52/680 1142/121/686 1140/50/684
f 1136/52/680 1141/119/685 1143/117/687
f 1142/121/686 1136/52/680 1143/117/687
f 1143/117/687 1141/119/685 1144/122/688
f 1143/117/687 1145/123/689 1142/121/686
f 1146/124/690 1143/117/687 1144/122/688
f 1145/123/689 1143/117/687 1146/124/690
f 1146/124/690 1144/122/688 1147/130/691
f 1146/124/690 1148/131/692 1145/123/689
f 1147/130/691 1149/132/693 1146/124/690
f 1148/131/692 1146/124/690 1149/132/693
f 1150/27/694 1151/91/694 1152/90/694
f 1152/90/694 1151/91/694 1153/133/694
f 1151/91/694 1150/27/694 1154/92/694
f 1155/134/694 1152/90/694 1153/133/694
f 1153/133/694 1156/135/694 1155/134/694
f 1156/135/694 1153/133/694 1157/136/694
f 1154/92/694 1150/27/694 1158/93/694
f 1159/88/694 1150/27/694 1152/90/694
f 1160/94/694 1158/93/694 1150/27/694
f 1161/24/694 1160/94/694 1150/27/694
f 1150/27/694 1159/88/694 1161/24/694
f 1162/87/694 1160/94/694 1161/24/694
f 1163/86/694 1161/24/694 1159/88/694
f 1164/22/694 1162/87/694 1161/24/694
f 1161/24/694 1163/86/694 1164/22/694
f 1165/85/694 1162/87/694 1164/22/694
f 1163/86/694 1159/88/694 1166/137/694
f 1167/84/694 1165/85/694 1164/22/694
f 1163/86/694 1167/84/694 1164/22/694
f 1168/138/694 1163/86/694 1166/137/694
f 1166/137/694 1169/139/694 1168/138/694
f 1169/139/694 1166/137/694 1170/140/694
f 1167/84/694 1163/86/694 1171/66/694
f 1172/81/694 1165/85/694 1167/84/694
f 1171/66/694 1173/83/694 1167/84/694
f 1173/83/694 1172/81/694 1167/84/694
f 1173/83/694 1171/66/694 1174/68/694
f 1172/81/694 1173/83/694 1175/82/694
f 1174/68/694 1171/66/694 1176/65/694
f 1177/79/694 1172/81/694 1175/82/694
f 1171/66/694 1178/141/694 1176/65/694
f 1172/81/694 1177/79/694 1179/142/694
f 1180/70/694 1176/65/694 1178/141/694
f 1181/78/694 1179/142/694 1177/79/694
f 1176/65/694 1180/70/694 1182/69/694
f 1179/142/694 1181/78/694 1183/77/694
f 1180/70/694 1184/72/694 1182/69/694
f 1185/143/694 1183/77/694 1181/78/694
f 1180/70/694 1186/144/694 1184/72/694
f 1185/143/694 1181/78/694 1187/75/694
f 1188/73/694 1184/72/694 1186/144/694
f 1187/75/694 1188/73/694 1185/143/694
f 1184/72/694 1188/73/694 1189/74/694
f 1188/73/694 1187/75/694 1189/74/694
f 1190/1/33 1191/1/34 1192/1/45
f 1192/1/45 1193/1/34 1190/1/33
f 1194/1/35 1195/1/35 1196/1/35
f 1194/1/35 1196/1/35 1197/1/35
f 1198/1/27 1199/1/27 1200/1/40
f 1199/1/27 1198/1/27 1201/1/26
f 1202/1/20 1203/1/20 1204/1/20
f 1203/1/20 1202/1/20 1205/1/20
f 1206/1/47 1207/1/47 1208/1/47
f 1207/1/47 1206/1/47 1209/1/47
f 1210/1/46 1211/1/46 1212/1/46
f 1211/1/46 1210/1/46 1213/1/46
